<svg width="343" height="141" viewBox="0 0 343 141" fill="none" xmlns="http://www.w3.org/2000/svg">
<path d="M125.56 104.738L125.351 105.069L124.873 105.832C124.71 106.088 124.553 106.338 124.384 106.594L123.872 107.357C123.703 107.613 123.529 107.863 123.354 108.119L122.807 108.882L122.26 109.644L121.654 110.43C121.462 110.686 121.27 110.942 121.072 111.193L120.49 111.932C120.287 112.188 120.083 112.444 119.873 112.694C118.628 114.185 117.308 115.628 115.915 117.025C109.88 123.061 102.715 127.849 94.8286 131.116C86.9427 134.383 78.4905 136.064 69.9548 136.064C61.419 136.064 52.9668 134.383 45.0809 131.116C37.1949 127.849 30.0297 123.061 23.9943 117.025C22.6012 115.632 21.2819 114.188 20.0362 112.694L19.4076 111.932L18.8255 111.169C18.6276 110.919 18.4355 110.663 18.2435 110.407C18.0514 110.151 17.8535 109.901 17.6614 109.644C17.4693 109.388 17.2947 109.138 17.1084 108.882L16.5263 108.102L16.0025 107.339L15.4961 106.577C15.3273 106.327 15.1643 106.07 15.0013 105.814C14.8383 105.558 14.687 105.308 14.5298 105.052C14.3727 104.796 14.2155 104.545 14.0642 104.289C13.9128 104.033 13.7673 103.783 13.6218 103.527L13.1853 102.764L12.7662 102.002C12.6265 101.752 12.4926 101.495 12.3587 101.239C12.2248 100.983 12.091 100.733 11.9629 100.477C11.8348 100.221 11.7068 99.9704 11.5846 99.7143C11.4623 99.4581 11.3343 99.2079 11.212 98.9517C11.0898 98.6956 10.9734 98.4453 10.857 98.1892L10.5077 97.4267C10.3971 97.1764 10.2865 96.9203 10.1818 96.6642C10.077 96.4081 9.96058 96.1578 9.8558 95.9017C9.75103 95.6456 9.65208 95.3953 9.55312 95.1392C9.45417 94.8831 9.3494 94.6328 9.25045 94.3767C9.1515 94.1205 9.06418 93.8703 8.96523 93.6141C8.86628 93.358 8.77315 93.1077 8.68584 92.8516L8.4239 92.0891C8.33659 91.833 8.24928 91.5827 8.16779 91.3266C8.0863 91.0705 8.00481 90.8202 7.92914 90.5641C7.85347 90.308 7.76616 90.0577 7.69049 89.8016C7.61482 89.5455 7.54498 89.2952 7.46931 89.0391C7.39364 88.7829 7.32379 88.5327 7.25394 88.2765C7.18409 88.0204 7.12006 87.7701 7.05603 87.514C6.99201 87.2579 6.92216 87.0076 6.85813 86.7515C6.7941 86.4954 6.7359 86.2451 6.67769 85.989C6.61948 85.7329 6.55545 85.4826 6.49725 85.2265C6.43904 84.9704 6.39247 84.7201 6.33427 84.464C6.27606 84.2079 6.22367 83.9576 6.17711 83.7015C6.13054 83.4453 6.08397 83.195 6.03741 82.9389C5.99084 82.6828 5.93846 82.4325 5.89771 82.1764L5.77548 81.4139L5.65324 80.6514L5.54847 79.8889L5.4437 79.1264L5.35638 78.3639C5.35638 78.1077 5.29818 77.8574 5.27489 77.6013L5.20505 76.8388C5.20505 76.5827 5.15848 76.3324 5.14102 76.0763L5.08863 75.3138C5.08863 75.0577 5.05371 74.8074 5.04207 74.5513L5.00714 73.7888C5.00714 73.5327 5.00714 73.2824 5.00714 73.0262C5.00714 72.7701 5.00714 72.5198 5.00714 72.2637C5.00714 72.0076 5.00714 71.7573 5.00714 71.5012C5.00714 71.2451 5.00714 71.1345 5.00714 70.9191V70.7154C5.00714 70.4593 5.00714 70.209 5.00714 69.9529C5.00714 69.6968 5.00714 69.4465 5.00714 69.1904C5.00714 68.9343 5.00714 68.684 5.03624 68.4279C5.06535 68.1718 5.03624 67.9215 5.06535 67.6654C5.09445 67.4093 5.06535 67.159 5.11191 66.9028C5.15848 66.6467 5.11191 66.3964 5.15848 66.1403C5.20505 65.8842 5.19922 65.6339 5.22251 65.3778C5.24579 65.1217 5.26325 64.8714 5.28654 64.6153C5.30982 64.3592 5.33892 64.1089 5.36803 63.8528C5.39713 63.5967 5.42041 63.3464 5.44952 63.0903C5.47862 62.8342 5.51354 62.5839 5.54847 62.3278C5.58339 62.0716 5.6125 61.8214 5.65324 61.5652C5.69399 61.3091 5.72891 61.0588 5.76966 60.8027L5.89189 60.0402C5.93264 59.7841 5.9792 59.5338 6.02577 59.2777L6.16546 58.5152C8.41209 46.9327 13.7686 36.1801 21.6607 27.41C29.5528 18.6398 39.6829 12.1829 50.9651 8.73147C62.2473 5.28 74.2561 4.9641 85.7042 7.81764C97.1522 10.6712 107.608 16.5866 115.95 24.9296C119.645 28.6196 122.885 32.739 125.601 37.1997H131.311C126.076 27.6858 118.698 19.5209 109.762 13.3508C100.826 7.18074 90.5763 3.17491 79.8246 1.65025C69.0728 0.125583 58.1138 1.12392 47.8146 4.56628C37.5154 8.00863 28.1586 13.8005 20.4844 21.4838C10.3601 31.5543 3.58747 44.5019 1.08979 58.5618C1.04323 58.812 1.00248 59.0682 0.961739 59.3243L0.839504 60.0868C0.798759 60.3429 0.758014 60.5932 0.723089 60.8493L0.618316 61.6118C0.583392 61.8679 0.548468 62.1182 0.519364 62.3743C0.490261 62.6304 0.461157 62.8807 0.437874 63.1368C0.414591 63.393 0.379667 63.6432 0.356384 63.8994L0.286535 64.6619C0.286535 64.918 0.23997 65.1683 0.222507 65.4244L0.170121 66.1927C0.170121 66.4488 0.135197 66.6991 0.123555 66.9552C0.111914 67.2113 0.123555 67.4616 0.08281 67.7178C0.042065 67.9739 0.08281 68.2242 0.0537064 68.4803C0.0246028 68.7364 0.0537064 68.9867 0.0537064 69.2428C0.0537064 69.4989 0.0537064 69.7492 0.0537064 70.0053C0.0537064 70.2614 0.0537064 70.5117 0.0537064 70.7678V70.9715C0.0537064 71.1578 0.0537064 71.3382 0.0537064 71.5536C0.0537064 71.769 0.0537064 72.06 0.0537064 72.3161V73.0786C0.0537064 73.3347 0.0537064 73.585 0.08281 73.8411C0.111914 74.0973 0.08281 74.3475 0.111914 74.6037C0.141017 74.8598 0.111914 75.1101 0.158479 75.3662C0.205045 75.6223 0.158479 75.8726 0.205045 76.1287C0.251611 76.3848 0.24579 76.6351 0.269073 76.8912C0.292356 77.1473 0.309818 77.3976 0.333101 77.6537C0.356384 77.9098 0.385488 78.1601 0.40877 78.4162C0.432053 78.6723 0.461157 78.9226 0.490261 79.1787C0.519364 79.4349 0.548468 79.6851 0.583392 79.9413L0.688165 80.7038L0.792938 81.4663L0.915173 82.2288L1.03741 82.9913C1.07815 83.2474 1.13054 83.4977 1.17711 83.7538L1.3168 84.5163C1.36337 84.7725 1.41576 85.0227 1.46814 85.2789C1.52053 85.535 1.57291 85.7853 1.63112 86.0414C1.68933 86.2975 1.74172 86.5478 1.79992 86.8039C1.85813 87.06 1.91634 87.3103 1.98037 87.5664C2.04439 87.8225 2.1026 88.0728 2.16663 88.3289C2.23066 88.585 2.30051 88.8353 2.36453 89.0914L2.56826 89.8539C2.63811 90.1101 2.71378 90.3604 2.78945 90.6165L3.01063 91.379C3.0863 91.6351 3.16779 91.8854 3.24928 92.1415L3.49375 92.8691C3.57524 93.1252 3.66255 93.3755 3.74986 93.6316L4.0118 94.3941C4.09911 94.6502 4.19224 94.9005 4.28537 95.1566C4.3785 95.4127 4.47163 95.663 4.57059 95.9191L4.86744 96.6817C4.9664 96.9378 5.07117 97.1881 5.17012 97.4442L5.46116 98.2067C5.56593 98.4628 5.67652 98.7131 5.78712 98.9692C5.89771 99.2253 6.00831 99.4756 6.12472 99.7317L6.47396 100.494C6.59038 100.75 6.71261 101.001 6.83485 101.257C6.95708 101.513 7.07932 101.763 7.20737 102.019C7.33543 102.275 7.45766 102.526 7.59154 102.782C7.72542 103.038 7.85347 103.288 7.98735 103.544L8.3948 104.307L8.81389 105.069C8.95359 105.325 9.09911 105.576 9.24463 105.832L9.687 106.594L10.1468 107.357C10.304 107.613 10.4553 107.863 10.6183 108.119C10.7813 108.375 10.9385 108.626 11.1014 108.882L11.5962 109.644C11.765 109.901 11.9396 110.151 12.1142 110.407C12.2889 110.663 12.4577 110.913 12.6381 111.169L13.1853 111.932L13.7673 112.694C15.8267 115.465 18.0874 118.079 20.531 120.518C33.6493 133.633 51.4398 141.001 69.9897 141.001C88.5396 141.001 106.33 133.633 119.448 120.518C121.887 118.077 124.146 115.462 126.206 112.694L126.788 111.932L127.33 111.169L127.853 110.407C128.028 110.157 128.197 109.901 128.366 109.644C128.535 109.388 128.703 109.138 128.866 108.882C129.029 108.626 129.192 108.375 129.349 108.119L129.821 107.357L130.281 106.594C130.432 106.344 130.578 106.088 130.729 105.832C130.88 105.576 131.014 105.325 131.16 105.069C131.224 104.959 131.288 104.848 131.346 104.738H125.56Z" fill="url(#paint0_linear_3018_27845)"/>
<path d="M120.019 74.9831H124.874C126.297 74.9025 127.708 75.291 128.89 76.089C129.354 76.5154 129.725 77.0335 129.979 77.6107C130.232 78.1878 130.363 78.8113 130.363 79.4417C130.363 80.0721 130.232 80.6956 129.979 81.2728C129.725 81.8499 129.354 82.3681 128.89 82.7945C127.71 83.5977 126.299 83.9905 124.874 83.9121H121.713V91.6652H120.013V74.9831H120.019ZM121.719 82.3579H124.455C125.103 82.3723 125.75 82.2939 126.375 82.1251C126.833 82.0013 127.262 81.7898 127.639 81.5023C127.941 81.2591 128.175 80.9424 128.32 80.5826C128.464 80.2117 128.535 79.8164 128.529 79.4185C128.531 79.036 128.46 78.6567 128.32 78.3009C128.174 77.9382 127.94 77.6179 127.639 77.3696C127.268 77.0721 126.837 76.8595 126.375 76.7467C125.748 76.5852 125.102 76.5108 124.455 76.5256H121.719V82.3579Z" fill="#222222"/>
<path d="M140.054 84.8996V84.6144C140.054 82.709 139.111 81.7583 137.225 81.7622C135.983 81.7557 134.785 82.2242 133.878 83.0719L132.935 81.9659C133.971 80.8949 135.525 80.3652 137.591 80.3652C138.114 80.3654 138.634 80.4439 139.134 80.5981C139.609 80.7426 140.047 80.9867 140.42 81.314C140.794 81.6531 141.092 82.0678 141.293 82.5305C141.527 83.0824 141.64 83.6777 141.625 84.2768V89.2011C141.625 89.626 141.625 90.0684 141.683 90.534C141.742 90.9997 141.765 91.378 141.811 91.6982H140.281C140.234 91.4304 140.199 91.1394 140.176 90.8251C140.176 90.5108 140.141 90.2023 140.141 89.9054H140.094C139.712 90.5726 139.155 91.1222 138.482 91.4945C137.773 91.835 136.992 92.0006 136.206 91.9776C135.728 91.9771 135.252 91.9106 134.792 91.7797C134.353 91.6546 133.942 91.4471 133.581 91.1685C133.228 90.8956 132.939 90.5502 132.731 90.1557C132.512 89.7212 132.402 89.2396 132.411 88.7529C132.367 87.9882 132.614 87.2352 133.104 86.6458C133.578 86.1165 134.179 85.716 134.85 85.4816C135.573 85.226 136.326 85.0674 137.091 85.0102C137.883 84.9461 138.61 84.917 139.268 84.917H140.042L140.054 84.8996ZM139.25 86.1743C138.86 86.1743 138.366 86.1743 137.778 86.2325C137.203 86.2702 136.634 86.3658 136.078 86.5177C135.572 86.6517 135.099 86.8874 134.687 87.2104C134.495 87.3664 134.343 87.565 134.242 87.7904C134.141 88.0157 134.094 88.2617 134.105 88.5084C134.097 88.8327 134.173 89.1535 134.326 89.4397C134.467 89.6943 134.667 89.9117 134.908 90.0742C135.164 90.2415 135.448 90.3618 135.746 90.4293C136.052 90.4989 136.364 90.534 136.678 90.534C137.183 90.5467 137.686 90.4494 138.15 90.2488C138.552 90.0732 138.91 89.8108 139.198 89.4805C139.485 89.1534 139.697 88.7682 139.821 88.3513C139.956 87.9041 140.023 87.4389 140.019 86.9717V86.1685H139.227L139.25 86.1743Z" fill="#222222"/>
<path d="M149.314 89.7539L152.685 80.6328H154.571L149.058 94.5385C148.786 95.2958 148.355 95.9863 147.795 96.5641C147.496 96.8299 147.147 97.0336 146.768 97.1635C146.389 97.2934 145.989 97.3468 145.589 97.3208C145.356 97.3208 145.112 97.3208 144.873 97.3208C144.628 97.303 144.386 97.2561 144.151 97.1811L144.314 95.6736C144.675 95.8541 145.075 95.944 145.479 95.9355C145.719 95.9476 145.96 95.9076 146.184 95.8182C146.408 95.7288 146.61 95.5921 146.777 95.4175C147.14 94.9859 147.421 94.4905 147.603 93.9564L148.43 91.8028L143.907 80.6328H145.863L149.314 89.7539Z" fill="#222222"/>
<path d="M156.579 83.0736C156.579 82.6661 156.579 82.2587 156.544 81.8454C156.509 81.4322 156.492 81.0305 156.463 80.6172H158.133V82.2878H158.18C158.544 81.6552 159.089 81.1463 159.746 80.8268C160.361 80.509 161.043 80.3396 161.736 80.332C162.057 80.3332 162.376 80.3644 162.691 80.4252C163.032 80.4887 163.362 80.6045 163.669 80.7686C164.002 80.9463 164.301 81.1807 164.553 81.4613C164.854 81.8031 165.089 82.1978 165.246 82.6254C165.557 81.9251 166.08 81.3406 166.742 80.9549C167.383 80.5596 168.12 80.3481 168.872 80.3437C170.285 80.3437 171.329 80.7162 172.004 81.4613C172.732 82.3611 173.093 83.5021 173.017 84.6568V91.6417H171.463V85.2389C171.52 84.3451 171.317 83.4538 170.881 82.672C170.491 82.0899 169.757 81.7756 168.692 81.7756C168.183 81.7584 167.679 81.8769 167.231 82.119C166.844 82.3396 166.516 82.6513 166.276 83.027C166.025 83.4213 165.846 83.8568 165.747 84.3134C165.636 84.8042 165.581 85.3061 165.584 85.8093V91.6766H164.03V85.2331C164.086 84.3393 163.884 83.448 163.448 82.6661C163.058 82.0841 162.324 81.7698 161.253 81.7698C161.036 81.7854 160.82 81.8165 160.607 81.8629C160.222 81.9509 159.863 82.1283 159.559 82.3809C159.146 82.7307 158.812 83.1655 158.581 83.6557C158.256 84.3972 158.106 85.2041 158.145 86.0131V91.6708H156.579V83.0736Z" fill="#222222"/>
<path d="M177.731 86.5645C177.774 87.1019 177.91 87.6278 178.133 88.1186C178.343 88.5903 178.639 89.0187 179.006 89.3817C179.368 89.7365 179.792 90.0207 180.258 90.2199C180.741 90.427 181.262 90.532 181.788 90.5284C182.548 90.5472 183.296 90.345 183.942 89.9464C184.497 89.6123 184.969 89.1565 185.322 88.6134L186.521 89.6029C185.948 90.3673 185.199 90.9822 184.338 91.3957C183.535 91.7585 182.664 91.9432 181.783 91.937C181.003 91.9441 180.229 91.7957 179.507 91.5005C178.829 91.2239 178.215 90.8119 177.702 90.2898C177.199 89.7578 176.804 89.1331 176.538 88.4504C176.24 87.711 176.091 86.9195 176.102 86.1221C176.091 85.3258 176.235 84.535 176.527 83.7939C176.793 83.1115 177.188 82.4869 177.691 81.9545C178.186 81.4377 178.779 81.026 179.437 80.7438C180.131 80.4492 180.878 80.3005 181.631 80.3072C182.402 80.2958 183.166 80.4486 183.872 80.7554C184.5 81.0235 185.065 81.4201 185.531 81.9196C185.987 82.4263 186.336 83.0204 186.556 83.6658C186.793 84.3509 186.913 85.0711 186.911 85.7962V86.5645H177.731ZM185.229 85.2898C185.262 84.8131 185.192 84.3349 185.023 83.8878C184.855 83.4408 184.591 83.0355 184.251 82.6999C183.911 82.3642 183.503 82.1061 183.053 81.9433C182.604 81.7805 182.125 81.7168 181.649 81.7566C181.147 81.7567 180.65 81.8577 180.188 82.0535C179.731 82.2413 179.311 82.5094 178.948 82.8451C178.6 83.1681 178.312 83.5505 178.098 83.9743C177.89 84.3837 177.78 84.8362 177.778 85.2956H185.229V85.2898Z" fill="#222222"/>
<path d="M191.236 80.6349C191.236 80.9317 191.288 81.2169 191.294 81.5196C191.3 81.8223 191.294 82.1017 191.294 82.4044H191.341C191.52 82.0996 191.742 81.8214 191.998 81.5778C192.268 81.3252 192.57 81.108 192.895 80.9317C193.227 80.752 193.579 80.6094 193.942 80.5068C194.298 80.4056 194.667 80.3547 195.037 80.3555C196.453 80.3555 197.497 80.728 198.168 81.4731C198.896 82.3729 199.258 83.5139 199.181 84.6686V91.6535H197.627V85.5592C197.688 84.5789 197.468 83.6016 196.992 82.742C196.569 82.09 195.784 81.7641 194.635 81.7641C194.414 81.7817 194.194 81.8128 193.977 81.8572C193.556 81.9418 193.158 82.1187 192.813 82.3753C192.364 82.7138 191.998 83.1496 191.742 83.65C191.396 84.3755 191.234 85.1752 191.271 85.9783V91.636H189.757V83.0738C189.757 82.7769 189.757 82.3985 189.722 81.9445C189.687 81.4905 189.67 81.0598 189.641 80.6465L191.236 80.6349Z" fill="#222222"/>
<path d="M208.558 82.0481H205.374V88.5498C205.366 88.8873 205.405 89.2243 205.49 89.551C205.552 89.769 205.666 89.9687 205.822 90.1331C205.963 90.2737 206.137 90.3759 206.328 90.4299C206.539 90.485 206.757 90.5124 206.975 90.5114C207.254 90.5087 207.532 90.4696 207.801 90.395C208.072 90.3231 208.334 90.2196 208.581 90.0865L208.651 91.5242C207.99 91.8078 207.275 91.9449 206.555 91.9259C206.242 91.9231 205.929 91.884 205.624 91.8094C205.299 91.728 204.997 91.5749 204.739 91.3612C204.453 91.1178 204.228 90.8108 204.082 90.4649C203.89 89.9944 203.8 89.4883 203.82 88.9806V82.0481H201.491V80.6337H203.82V77.5254H205.374V80.6337H208.558V82.0481Z" fill="#222222"/>
<path d="M219.489 91.6646H217.79V74.9824H219.489V91.6646Z" fill="#222222"/>
<path d="M224.937 80.6349C224.967 80.9317 224.99 81.2169 224.996 81.5196C225.001 81.8223 224.996 82.1017 224.996 82.4044H225.042C225.222 82.0996 225.443 81.8214 225.7 81.5778C225.97 81.3252 226.271 81.108 226.596 80.9317C226.929 80.752 227.28 80.6094 227.644 80.5068C228 80.4056 228.368 80.3547 228.738 80.3555C230.153 80.3555 231.195 80.728 231.876 81.4731C232.603 82.3729 232.965 83.5139 232.889 84.6686V91.6535H231.334V85.5592C231.395 84.5789 231.175 83.6016 230.7 82.742C230.273 82.09 229.487 81.7641 228.343 81.7641C228.122 81.7817 227.902 81.8128 227.685 81.8572C227.263 81.9418 226.866 82.1187 226.521 82.3753C226.072 82.7138 225.706 83.1496 225.45 83.65C225.103 84.3755 224.942 85.1752 224.978 85.9783V91.636H223.459V83.0738C223.459 82.7769 223.459 82.3985 223.424 81.9445C223.389 81.4905 223.372 81.0598 223.343 80.6465L224.937 80.6349Z" fill="#222222"/>
<path d="M242.254 82.0481H239.07V88.5498C239.063 88.8873 239.102 89.2243 239.187 89.551C239.249 89.769 239.363 89.9687 239.519 90.1331C239.659 90.2737 239.834 90.3759 240.025 90.4299C240.236 90.485 240.453 90.5124 240.671 90.5114C240.951 90.5087 241.228 90.4696 241.498 90.395C241.769 90.3231 242.031 90.2196 242.278 90.0865L242.347 91.5242C241.686 91.8078 240.971 91.9449 240.252 91.9259C239.938 91.9231 239.626 91.884 239.321 91.8094C238.996 91.728 238.694 91.5749 238.436 91.3612C238.15 91.1178 237.925 90.8108 237.778 90.4649C237.586 89.9944 237.497 89.4883 237.516 88.9806V82.0481H235.188V80.6337H237.516V77.5254H239.07V80.6337H242.254V82.0481Z" fill="#222222"/>
<path d="M245.461 86.5665C245.504 87.1039 245.64 87.6298 245.863 88.1207C246.073 88.5923 246.369 89.0207 246.736 89.3838C247.089 89.7403 247.506 90.0284 247.964 90.2336C248.448 90.4406 248.969 90.5457 249.495 90.5421C250.254 90.5609 251.002 90.3587 251.648 89.96C252.203 89.626 252.675 89.1702 253.028 88.6271L254.227 89.6166C253.655 90.3794 252.908 90.9942 252.05 91.4094C251.247 91.7722 250.376 91.9569 249.495 91.9507C248.715 91.9578 247.941 91.8094 247.219 91.5142C246.541 91.2376 245.927 90.8256 245.414 90.3034C244.911 89.7715 244.516 89.1468 244.25 88.4641C243.952 87.7247 243.803 86.9332 243.814 86.1358C243.803 85.3395 243.947 84.5487 244.239 83.8075C244.505 83.1252 244.9 82.5006 245.403 81.9682C245.898 81.4514 246.492 81.0396 247.149 80.7575C247.843 80.4628 248.59 80.3142 249.343 80.3209C250.114 80.3095 250.878 80.4623 251.584 80.7691C252.213 81.0372 252.778 81.4337 253.243 81.9332C253.698 82.4415 254.046 83.0351 254.268 83.6795C254.505 84.3646 254.625 85.0848 254.623 85.8098V86.5665H245.461ZM252.952 85.2918C252.986 84.8152 252.916 84.3369 252.747 83.8898C252.579 83.4428 252.315 83.0375 251.975 82.7019C251.635 82.3662 251.226 82.1081 250.777 81.9453C250.328 81.7825 249.849 81.7188 249.373 81.7586C248.871 81.7588 248.374 81.8597 247.912 82.0555C247.454 82.2433 247.035 82.5114 246.672 82.8471C246.324 83.1701 246.036 83.5525 245.822 83.9763C245.614 84.3858 245.504 84.8383 245.502 85.2976H252.952V85.2918Z" fill="#222222"/>
<path d="M259.391 91.6629H257.86V73.8457H259.414L259.391 91.6629Z" fill="#222222"/>
<path d="M265.042 91.6629H263.488V73.8457H265.042V91.6629Z" fill="#222222"/>
<path d="M271.055 76.3968C271.06 76.5504 271.03 76.7031 270.969 76.844C270.908 76.9849 270.816 77.1104 270.7 77.2117C270.489 77.4121 270.211 77.5263 269.92 77.5318C269.629 77.5298 269.349 77.4151 269.14 77.2117C269.028 77.1076 268.939 76.9815 268.877 76.8413C268.816 76.7011 268.785 76.5497 268.785 76.3968C268.785 76.2438 268.816 76.0924 268.877 75.9522C268.939 75.812 269.028 75.6859 269.14 75.5819C269.351 75.3814 269.629 75.2672 269.92 75.2617C270.212 75.2637 270.491 75.3784 270.7 75.5819C270.815 75.6836 270.906 75.8093 270.968 75.95C271.029 76.0908 271.059 76.2433 271.055 76.3968V76.3968ZM270.7 91.6645H269.146V80.6342H270.7V91.6645Z" fill="#222222"/>
<path d="M275.322 93.8813C275.781 94.5023 276.379 95.0068 277.068 95.354C277.824 95.7379 278.659 95.9373 279.507 95.936C280.19 95.9533 280.871 95.8367 281.509 95.5926C282.021 95.3926 282.478 95.0733 282.842 94.6613C283.186 94.2622 283.434 93.7906 283.57 93.2818C283.722 92.7342 283.797 92.1679 283.791 91.5996V89.6206H283.744C283.302 90.3235 282.662 90.8803 281.905 91.2213C281.184 91.5355 280.405 91.6961 279.618 91.6927C278.846 91.6997 278.081 91.5553 277.365 91.2678C276.688 90.9987 276.067 90.6037 275.537 90.1037C275.013 89.5995 274.597 88.9934 274.315 88.3225C274.014 87.6141 273.861 86.8514 273.867 86.0816C273.847 84.5685 274.417 83.107 275.456 82.0071C275.947 81.4865 276.542 81.0742 277.202 80.7963C277.915 80.499 278.682 80.3504 279.455 80.3598C279.806 80.3605 280.156 80.3917 280.502 80.4529C280.883 80.5204 281.254 80.6317 281.608 80.7847C281.998 80.9549 282.365 81.1718 282.703 81.4308C283.088 81.73 283.429 82.0828 283.715 82.4785H283.762V80.645H285.316V91.5705C285.31 92.2129 285.236 92.8529 285.095 93.4797C284.943 94.1568 284.645 94.7925 284.222 95.3423C283.74 95.9487 283.121 96.4333 282.417 96.7568C281.469 97.176 280.438 97.3751 279.402 97.3388C278.394 97.3564 277.393 97.1724 276.457 96.7975C275.563 96.4124 274.759 95.8432 274.1 95.127L275.322 93.8813ZM275.607 86.0059C275.602 86.5672 275.711 87.1237 275.927 87.6415C276.335 88.6459 277.112 89.4561 278.098 89.9058C278.604 90.1365 279.155 90.2537 279.711 90.2492C280.263 90.251 280.81 90.1462 281.323 89.9407C281.826 89.7427 282.286 89.4503 282.679 89.0792C283.073 88.7046 283.383 88.2502 283.587 87.7463C283.803 87.1903 283.904 86.5962 283.884 86.0001C283.89 85.442 283.793 84.8877 283.599 84.3645C283.418 83.8645 283.137 83.4068 282.772 83.0199C282.399 82.6267 281.95 82.3137 281.451 82.1002C280.899 81.8654 280.305 81.7484 279.705 81.7568C279.149 81.7523 278.599 81.8695 278.093 82.1002C277.606 82.3229 277.166 82.6349 276.795 83.0199C276.424 83.4107 276.128 83.8665 275.921 84.3645C275.704 84.8768 275.588 85.4262 275.578 85.9826L275.607 86.0059Z" fill="#222222"/>
<path d="M289.932 86.5645C289.975 87.1019 290.111 87.6278 290.334 88.1186C290.543 88.5903 290.84 89.0187 291.207 89.3817C291.568 89.7365 291.992 90.0207 292.458 90.2199C292.942 90.427 293.463 90.532 293.989 90.5284C294.748 90.5466 295.496 90.3444 296.143 89.9464C296.698 89.6123 297.169 89.1565 297.522 88.6134L298.721 89.6029C298.148 90.3673 297.4 90.9822 296.538 91.3957C295.736 91.7585 294.864 91.9432 293.983 91.937C293.203 91.9441 292.429 91.7957 291.707 91.5005C291.03 91.2239 290.416 90.8119 289.903 90.2898C289.399 89.7578 289.004 89.1331 288.739 88.4504C288.44 87.711 288.292 86.9195 288.302 86.1221C288.291 85.3258 288.436 84.535 288.727 83.7939C288.993 83.1115 289.388 82.4869 289.891 81.9545C290.386 81.4377 290.98 81.026 291.637 80.7438C292.331 80.4492 293.078 80.3005 293.832 80.3072C294.602 80.2958 295.366 80.4486 296.073 80.7554C296.701 81.0235 297.266 81.4201 297.732 81.9196C298.186 82.4278 298.534 83.0214 298.756 83.6658C298.993 84.3509 299.114 85.0711 299.111 85.7962V86.5645H289.932ZM297.441 85.3014C297.474 84.8248 297.404 84.3465 297.236 83.8995C297.067 83.4524 296.803 83.0472 296.463 82.7115C296.123 82.3758 295.715 82.1178 295.265 81.9549C294.816 81.7921 294.337 81.7284 293.861 81.7682C293.359 81.7684 292.862 81.8693 292.4 82.0651C291.943 82.2529 291.523 82.521 291.16 82.8567C290.812 83.1798 290.524 83.5621 290.31 83.9859C290.102 84.3954 289.992 84.8479 289.99 85.3072H297.441V85.3014Z" fill="#222222"/>
<path d="M303.43 80.6349C303.459 80.9317 303.483 81.2169 303.488 81.5196C303.494 81.8223 303.488 82.1017 303.488 82.4044H303.535C303.715 82.0996 303.936 81.8214 304.193 81.5778C304.463 81.3252 304.764 81.108 305.089 80.9317C305.422 80.752 305.773 80.6094 306.137 80.5068C306.493 80.4056 306.861 80.3547 307.231 80.3555C308.646 80.3555 309.687 80.728 310.368 81.4731C311.096 82.3729 311.458 83.5139 311.381 84.6686V91.6535H309.839V85.5592C309.9 84.5789 309.679 83.6016 309.204 82.742C308.777 82.09 307.992 81.7641 306.847 81.7641C306.626 81.7817 306.406 81.8128 306.189 81.8572C305.768 81.9418 305.37 82.1187 305.025 82.3753C304.576 82.7138 304.21 83.1496 303.954 83.65C303.608 84.3755 303.446 85.1752 303.483 85.9783V91.636H301.928V83.0738C301.928 82.7769 301.928 82.3985 301.894 81.9445C301.859 81.4905 301.841 81.0598 301.812 80.6465L303.43 80.6349Z" fill="#222222"/>
<path d="M323.087 83.2303C322.8 82.8029 322.417 82.4482 321.969 82.1942C321.473 81.9054 320.907 81.7584 320.333 81.7693C319.736 81.7427 319.14 81.848 318.587 82.0778C318.09 82.2867 317.643 82.6003 317.278 82.9975C316.91 83.4047 316.629 83.8818 316.451 84.4003C316.26 84.9626 316.164 85.5526 316.166 86.1465C316.161 86.7405 316.258 87.331 316.451 87.8927C316.627 88.4122 316.908 88.8898 317.278 89.2955C317.645 89.6907 318.091 90.0041 318.587 90.2152C319.14 90.443 319.736 90.5482 320.333 90.5237C320.907 90.5346 321.473 90.3876 321.969 90.0988C322.416 89.8431 322.798 89.4887 323.087 89.0627L324.361 90.0289C323.856 90.6389 323.219 91.1265 322.499 91.455C321.817 91.7593 321.08 91.9236 320.333 91.9381C319.505 91.9663 318.679 91.8257 317.906 91.5248C317.211 91.2532 316.58 90.8388 316.055 90.3083C315.537 89.7831 315.14 89.1515 314.891 88.4573C314.353 86.9518 314.353 85.3062 314.891 83.8007C315.145 83.1087 315.541 82.478 316.055 81.9497C316.582 81.4211 317.212 81.0069 317.906 80.7332C318.679 80.4324 319.505 80.2918 320.333 80.3199C321.08 80.3334 321.817 80.4977 322.499 80.8031C323.219 81.1315 323.856 81.6191 324.361 82.2291L323.087 83.2303Z" fill="#222222"/>
<path d="M327.493 86.5665C327.536 87.1039 327.672 87.6298 327.895 88.1207C328.105 88.5923 328.401 89.0207 328.768 89.3838C329.133 89.7445 329.564 90.0328 330.037 90.2336C330.52 90.4406 331.042 90.5457 331.568 90.5421C332.327 90.5609 333.075 90.3587 333.721 89.96C334.276 89.626 334.748 89.1702 335.101 88.6271L336.3 89.6166C335.728 90.3794 334.981 90.9942 334.123 91.4094C333.32 91.7722 332.448 91.9569 331.568 91.9507C330.787 91.9578 330.014 91.8094 329.292 91.5142C328.614 91.2376 328 90.8256 327.487 90.3034C326.984 89.7715 326.588 89.1468 326.323 88.4641C326.024 87.7247 325.876 86.9332 325.887 86.1358C325.876 85.3395 326.02 84.5487 326.311 83.8075C326.577 83.1252 326.973 82.5006 327.476 81.9682C327.97 81.4514 328.564 81.0396 329.222 80.7575C329.916 80.4628 330.663 80.3142 331.416 80.3209C332.187 80.3095 332.951 80.4623 333.657 80.7691C334.285 81.0372 334.85 81.4337 335.316 81.9332C335.77 82.4415 336.119 83.0351 336.341 83.6795C336.578 84.3646 336.698 85.0848 336.696 85.8098V86.5665H327.493ZM334.984 85.2918C335.018 84.8152 334.948 84.3369 334.779 83.8898C334.611 83.4428 334.347 83.0375 334.007 82.7019C333.667 82.3662 333.258 82.1081 332.809 81.9453C332.36 81.7825 331.881 81.7188 331.405 81.7586C330.903 81.7588 330.406 81.8597 329.944 82.0555C329.486 82.2433 329.067 82.5114 328.704 82.8471C328.356 83.1701 328.068 83.5525 327.854 83.9763C327.646 84.3858 327.536 84.8383 327.534 85.2976H334.984V85.2918Z" fill="#222222"/>
<path d="M128.093 48.2363H131.032L139.263 67.3574H135.38L133.599 62.986H125.316L123.57 67.3574H119.763L128.093 48.2363ZM132.406 60.0524L129.466 52.2817L126.474 60.0524H132.406Z" fill="#222222"/>
<path d="M147.569 48.2363H150.479L158.739 67.3574H154.833L153.087 62.9686H144.792L143.046 67.3399H139.239L147.569 48.2363ZM151.888 60.0524L148.948 52.2817L145.956 60.0524H151.888Z" fill="#222222"/>
<path d="M160.577 54.3833H163.814V56.4322H163.866C164.198 55.7132 164.732 55.1064 165.403 54.686C166.093 54.2651 166.888 54.0491 167.696 54.0631C167.891 54.063 168.086 54.0805 168.278 54.1155C168.464 54.1505 168.662 54.197 168.86 54.2494V57.381C168.593 57.3111 168.325 57.2529 168.063 57.2063C167.809 57.1605 167.552 57.1371 167.295 57.1365C166.66 57.108 166.031 57.2529 165.473 57.5556C165.056 57.7959 164.697 58.1235 164.419 58.516C164.19 58.8405 164.026 59.2061 163.936 59.5928C163.868 59.8577 163.827 60.1288 163.814 60.4019V67.3577H160.577V54.3833Z" fill="#222222"/>
<path d="M173.174 61.9947C173.203 62.4286 173.318 62.8523 173.513 63.2411C173.708 63.6299 173.979 63.9759 174.309 64.259C174.963 64.7989 175.789 65.0861 176.637 65.068C177.349 65.0919 178.054 64.9187 178.674 64.5674C179.224 64.2342 179.712 63.8089 180.118 63.3102L182.446 65.0564C181.78 65.923 180.907 66.6092 179.908 67.0529C178.978 67.4434 177.978 67.6414 176.969 67.635C176.03 67.6395 175.097 67.4759 174.216 67.1518C173.385 66.8477 172.623 66.3807 171.975 65.7782C171.336 65.171 170.827 64.4403 170.479 63.6303C169.741 61.8407 169.741 59.8321 170.479 58.0424C170.828 57.2347 171.34 56.5077 171.983 55.9068C172.626 55.306 173.386 54.8441 174.216 54.55C175.096 54.2227 176.029 54.059 176.969 54.0669C177.815 54.0567 178.654 54.217 179.437 54.5383C180.169 54.8429 180.824 55.3084 181.352 55.9004C181.909 56.5428 182.331 57.2912 182.592 58.1006C182.903 59.0727 183.053 60.0894 183.034 61.1099V62.0005H173.139L173.174 61.9947ZM179.809 59.5616C179.823 59.1452 179.752 58.7303 179.598 58.3427C179.445 57.9552 179.214 57.6033 178.919 57.309C178.257 56.7302 177.393 56.4353 176.515 56.4883C176.09 56.4625 175.665 56.5235 175.264 56.6676C174.864 56.8118 174.497 57.0359 174.187 57.3265C173.597 57.934 173.231 58.7244 173.151 59.5674H179.786L179.809 59.5616Z" fill="#222222"/>
<path d="M184.559 57.1365V54.3833H187.231V50.6348H190.467V54.3833H194.029V57.1365H190.467V62.8001C190.439 63.3369 190.567 63.8702 190.834 64.3367C191.004 64.5494 191.226 64.7147 191.479 64.8166C191.732 64.9186 192.007 64.9538 192.277 64.9188C192.594 64.9168 192.909 64.8856 193.22 64.8257C193.509 64.7818 193.785 64.6767 194.029 64.5172V67.2413C193.63 67.4185 193.206 67.5324 192.772 67.5789C192.338 67.6378 191.9 67.6689 191.462 67.672C190.745 67.6939 190.029 67.5975 189.343 67.3868C188.839 67.2265 188.389 66.9281 188.045 66.5253C187.715 66.1045 187.493 65.6087 187.399 65.0818C187.275 64.4237 187.217 63.7549 187.225 63.0853V57.1307H184.559V57.1365Z" fill="#222222"/>
<path d="M199.157 61.9947C199.19 62.4308 199.31 62.8558 199.51 63.2447C199.71 63.6336 199.986 63.9785 200.322 64.259C200.976 64.7989 201.802 65.0861 202.65 65.068C203.362 65.0919 204.067 64.9187 204.687 64.5674C205.237 64.2342 205.725 63.8089 206.131 63.3102L208.459 65.0564C207.793 65.923 206.92 66.6092 205.921 67.0529C204.991 67.4434 203.991 67.6414 202.982 67.635C202.042 67.6395 201.11 67.4759 200.228 67.1518C199.397 66.8477 198.636 66.3807 197.987 65.7782C197.348 65.171 196.839 64.4403 196.492 63.6303C195.754 61.8407 195.754 59.8321 196.492 58.0424C196.842 57.2342 197.355 56.5068 197.999 55.9059C198.643 55.305 199.404 54.8434 200.234 54.55C201.115 54.2227 202.048 54.059 202.987 54.0669C203.833 54.0567 204.673 54.217 205.455 54.5383C206.188 54.8429 206.842 55.3084 207.37 55.9004C207.928 56.5428 208.349 57.2912 208.61 58.1006C208.922 59.0727 209.071 60.0894 209.053 61.1099V62.0005H199.157V61.9947ZM205.793 59.5616C205.805 59.1443 205.732 58.7289 205.577 58.3413C205.421 57.9538 205.188 57.6024 204.891 57.309C204.228 56.7302 203.365 56.4353 202.487 56.4883C202.062 56.4625 201.637 56.5235 201.236 56.6676C200.836 56.8118 200.469 57.0359 200.159 57.3265C199.569 57.934 199.203 58.7244 199.122 59.5674H205.758L205.793 59.5616Z" fill="#222222"/>
<path d="M215.333 136.309L217.329 135.954L219.128 124.732L217.207 124.377L217.265 124.039H222.632C225.583 124.039 226.811 125.663 226.811 127.287C226.811 129.307 225.03 131.204 222.003 131.204C221.344 131.198 220.687 131.126 220.042 130.989L219.268 135.96L221.165 136.315L221.107 136.653H215.286L215.333 136.309ZM224.716 127.31C224.716 125.785 223.808 124.557 222.201 124.557C221.811 124.559 221.421 124.598 221.037 124.674L220.129 130.494C220.535 130.563 220.946 130.596 221.357 130.593C223.546 130.611 224.716 129.208 224.716 127.31Z" fill="#222222"/>
<path d="M227.19 133.342C227.19 130.688 228.989 127.463 232.097 127.463C233.843 127.463 235.065 128.709 235.065 130.984C235.065 133.639 233.319 136.863 230.217 136.863C228.459 136.869 227.19 135.6 227.19 133.342ZM233.412 131.386C233.412 129.803 232.958 128.08 231.474 128.08C229.635 128.08 228.919 131.305 228.919 132.969C228.919 134.634 229.373 136.293 230.84 136.293C232.673 136.275 233.412 133.045 233.412 131.386Z" fill="#222222"/>
<path d="M238.355 136.769L238.75 135.722C238.512 132.299 238.197 130.221 237.877 129.319C237.738 128.906 237.58 128.737 237.202 128.737C236.83 128.766 236.464 128.846 236.114 128.975L236.015 128.836C236.55 128.201 237.481 127.45 238.151 127.45C238.942 127.45 239.158 127.904 239.396 128.44C239.81 129.371 240.107 132.456 240.147 134.755L240.229 134.796C241.126 133.482 241.905 132.091 242.557 130.64C242.377 129.476 242.243 128.603 242.179 128.126L243.582 127.334H243.681C243.96 129.412 244.332 132.305 244.688 134.755L244.769 134.796C245.803 133.536 246.558 132.073 246.987 130.5C246.699 129.98 246.517 129.409 246.451 128.818C246.41 127.91 246.864 127.45 247.4 127.45C247.935 127.45 248.372 128.032 248.407 128.894C248.488 130.989 246.015 134.319 243.36 136.973L242.947 136.758L243.302 135.71L242.72 131.909C241.618 133.764 240.28 135.468 238.739 136.979L238.355 136.769Z" fill="#222222"/>
<path d="M253.203 135.755C253.644 135.739 254.077 135.634 254.477 135.447C254.877 135.26 255.235 134.995 255.531 134.667L255.671 134.847C255.349 135.431 254.885 135.922 254.32 136.276C253.756 136.629 253.111 136.833 252.446 136.867C250.368 136.867 249.221 135.342 249.221 133.404C249.221 130.715 251.142 127.467 254.21 127.467C255.636 127.467 256.445 128.34 256.445 129.289C256.445 130.616 254.978 132.275 250.979 132.118C250.671 134.37 251.503 135.755 253.203 135.755ZM254.949 129.085C254.949 128.433 254.634 127.921 254 127.921C252.533 127.921 251.445 129.783 251.09 131.605C253.785 131.966 254.949 130.296 254.949 129.085V129.085Z" fill="#222222"/>
<path d="M258.902 129.185L257.615 128.574V128.376L260.526 127.346L260.607 127.404L260.369 129.4L260.45 129.459C261.125 128.254 262.15 127.421 262.965 127.421C263.657 127.421 264.129 127.817 264.129 128.393C264.132 128.527 264.108 128.659 264.059 128.783C264.009 128.906 263.935 129.018 263.841 129.113C263.747 129.207 263.635 129.281 263.511 129.33C263.387 129.38 263.255 129.404 263.122 129.4C262.882 129.393 262.647 129.337 262.429 129.237C262.211 129.137 262.015 128.995 261.853 128.818C261.223 129.043 260.672 129.448 260.27 129.982L259.17 136.624H257.645L258.902 129.185Z" fill="#222222"/>
<path d="M268.069 135.755C268.51 135.739 268.943 135.634 269.343 135.447C269.743 135.26 270.101 134.995 270.397 134.667L270.537 134.847C270.216 135.431 269.751 135.922 269.187 136.276C268.622 136.629 267.977 136.833 267.312 136.867C265.234 136.867 264.087 135.342 264.087 133.404C264.087 130.715 266.008 127.467 269.076 127.467C270.502 127.467 271.311 128.34 271.311 129.289C271.311 130.616 269.844 132.275 265.845 132.118C265.554 134.37 266.387 135.755 268.069 135.755ZM269.815 129.085C269.815 128.433 269.501 127.921 268.866 127.921C267.399 127.921 266.311 129.783 265.956 131.605C268.662 131.966 269.809 130.296 269.809 129.085H269.815Z" fill="#222222"/>
<path d="M272.085 133.579C272.085 130.669 274.658 127.462 277.848 127.462C278.11 127.453 278.371 127.487 278.622 127.56L279.257 123.8L277.97 123.189V122.991L280.98 121.961L281.061 122.019L278.867 135.005C278.75 135.698 278.983 135.878 280.648 135.896L280.688 136.035C279.974 136.51 279.151 136.796 278.296 136.868C277.545 136.868 277.307 136.233 277.307 135.424L277.225 135.366C276.492 136.216 275.7 136.868 274.693 136.868C273.413 136.868 272.085 135.739 272.085 133.579ZM277.371 134.865L278.343 129.324C278.122 129.036 277.841 128.8 277.519 128.632C277.197 128.464 276.843 128.369 276.48 128.352C275.153 128.352 273.75 130.43 273.75 133.143C273.75 134.644 274.402 135.715 275.613 135.715C275.947 135.698 276.274 135.615 276.575 135.472C276.877 135.328 277.147 135.126 277.371 134.877V134.865Z" fill="#222222"/>
<path d="M285.904 135.937L287.923 123.818L286.637 123.207V123.009L289.664 121.979L289.745 122.037L288.639 128.707L288.721 128.765C289.53 128.032 290.322 127.479 291.334 127.479C292.621 127.479 293.808 128.585 293.808 130.768C293.808 133.678 291.055 136.885 288.366 136.885C287.455 136.89 286.576 136.551 285.904 135.937V135.937ZM292.138 131.187C292.138 129.685 291.486 128.614 290.275 128.614C289.662 128.601 289.063 128.796 288.575 129.167L287.545 134.988C287.766 135.276 288.047 135.512 288.369 135.68C288.691 135.848 289.045 135.943 289.408 135.96C290.735 135.977 292.138 133.899 292.138 131.187Z" fill="#222222"/>
<path d="M293.628 139.534C293.628 138.882 293.966 138.405 294.559 138.405C295.269 138.405 295.723 139.255 295.648 140.302C296.754 139.72 297.865 138.265 298.558 136.88C298.11 134.307 297.448 131.776 296.579 129.313C296.399 128.917 296.224 128.731 295.846 128.731C295.487 128.759 295.134 128.839 294.798 128.969L294.699 128.83C295.176 128.195 295.968 127.444 296.637 127.444C297.411 127.444 297.685 127.898 297.964 128.434C298.773 130.395 299.301 132.46 299.53 134.569H299.629C300.432 132.189 301.099 129.766 301.626 127.311H301.707L303.191 128.102C301.445 131.985 299.309 138.038 297.115 139.942C296.585 140.51 295.867 140.867 295.095 140.948C294.905 140.954 294.716 140.921 294.539 140.853C294.362 140.784 294.201 140.681 294.064 140.55C293.927 140.418 293.819 140.26 293.744 140.086C293.669 139.911 293.629 139.724 293.628 139.534V139.534Z" fill="#222222"/>
<path d="M308.086 135.982L309.897 135.505L311.643 124.446L309.99 123.968L310.048 123.631H316.451L316.392 123.968L314.582 124.446L312.836 135.505L314.483 135.982L314.425 136.32H308.022L308.086 135.982ZM316.16 133.462C316.16 130.441 319.221 127.018 322.266 127.018C322.492 127.018 322.718 127.038 322.941 127.077L323.523 123.677L322.289 122.705V122.507L326.247 121.553L326.328 121.611L324.262 134.137C324.082 135.15 324.344 135.301 326.09 135.371L326.13 135.511C325.247 136.132 324.206 136.491 323.127 136.547C322.921 136.56 322.714 136.528 322.522 136.453C322.329 136.377 322.156 136.26 322.014 136.11C321.871 135.96 321.764 135.781 321.699 135.585C321.634 135.389 321.613 135.181 321.637 134.975L321.52 134.917C320.706 136.011 320.007 136.547 318.814 136.547C317.231 136.541 316.16 135.348 316.16 133.462ZM321.747 134.195L322.58 129.306C322.419 129.01 322.192 128.756 321.916 128.563C321.641 128.37 321.324 128.244 320.991 128.194C319.378 128.194 318.785 131.273 318.785 132.886C318.785 134.3 319.32 134.853 320.257 134.853C320.82 134.833 321.354 134.598 321.747 134.195V134.195ZM326.654 133.462C326.654 130.441 329.716 127.018 332.76 127.018C333.325 127.023 333.881 127.153 334.39 127.397L335.665 126.919L335.845 126.978L334.652 134.137C334.472 135.15 334.734 135.301 336.48 135.371L336.52 135.511C335.637 136.132 334.596 136.491 333.517 136.547C333.311 136.56 333.104 136.528 332.912 136.453C332.719 136.377 332.546 136.26 332.403 136.11C332.261 135.96 332.154 135.781 332.089 135.585C332.024 135.389 332.003 135.181 332.027 134.975L331.91 134.917C331.096 136.011 330.397 136.547 329.245 136.547C327.708 136.541 326.654 135.348 326.654 133.462V133.462ZM332.167 134.195L332.981 129.306C332.845 129 332.63 128.736 332.358 128.541C332.086 128.345 331.767 128.226 331.433 128.194C329.92 128.194 329.285 131.273 329.285 132.886C329.285 134.3 329.821 134.853 330.7 134.853C331.254 134.828 331.779 134.593 332.167 134.195V134.195ZM339.076 127.682L338.872 127.42C338.756 127.263 338.709 127.228 338.569 127.228H338.465V128.631L338.721 128.718V128.805H337.807V128.718L338.069 128.631V127.228H337.941C337.807 127.228 337.754 127.269 337.638 127.42L337.434 127.682H337.364L337.452 127.1H339.058L339.146 127.682H339.076ZM341.585 128.631L341.841 128.718V128.805H340.956V128.718L341.189 128.631V127.309L340.607 128.817H340.415L339.832 127.309H339.792V128.625L340.013 128.73V128.817H339.349V128.73L339.565 128.625V127.275L339.349 127.176V127.088H340.129L340.595 128.293L340.927 127.391L341.032 127.088H341.829V127.176L341.573 127.263V128.642L341.585 128.631Z" fill="url(#paint1_linear_3018_27845)"/>
<path d="M337.999 80.9373C337.998 80.615 338.063 80.2958 338.191 80.0001C338.315 79.7159 338.491 79.4573 338.709 79.2376C338.932 79.0204 339.195 78.8484 339.483 78.7312C339.782 78.6076 340.103 78.5443 340.426 78.5449C340.748 78.5437 341.067 78.607 341.363 78.7312C341.648 78.8487 341.907 79.0207 342.126 79.2376C342.344 79.4565 342.518 79.7154 342.638 80.0001C342.766 80.2958 342.832 80.615 342.83 80.9373C342.832 81.2577 342.767 81.5751 342.638 81.8686C342.517 82.1507 342.343 82.4075 342.126 82.6253C341.907 82.8421 341.648 83.0142 341.363 83.1317C341.067 83.2558 340.748 83.3192 340.426 83.3179C340.103 83.3185 339.782 83.2553 339.483 83.1317C339.195 83.0145 338.932 82.8425 338.709 82.6253C338.489 82.4092 338.313 82.1521 338.191 81.8686C338.062 81.5751 337.997 81.2577 337.999 80.9373V80.9373ZM338.232 80.9373C338.23 81.2258 338.29 81.5115 338.407 81.7754C338.633 82.2968 339.049 82.7128 339.571 82.9396C339.839 83.0569 340.128 83.1164 340.421 83.1142C340.709 83.1159 340.995 83.0563 341.259 82.9396C341.517 82.8265 341.752 82.6667 341.951 82.4681C342.15 82.2696 342.308 82.0343 342.417 81.7754C342.532 81.511 342.591 81.2257 342.591 80.9373C342.591 80.6489 342.532 80.3635 342.417 80.0991C342.304 79.8425 342.146 79.608 341.951 79.4064C341.754 79.2053 341.518 79.0451 341.259 78.9349C340.995 78.8182 340.709 78.7587 340.421 78.7603C340.128 78.7586 339.839 78.8181 339.571 78.9349C339.313 79.048 339.078 79.2078 338.878 79.4064C338.676 79.6036 338.516 79.8391 338.407 80.0991C338.287 80.3621 338.227 80.6484 338.232 80.9373V80.9373ZM341.195 82.2353L340.415 81.0711H339.833V82.2353H339.6V79.581H340.514C340.74 79.5685 340.964 79.6343 341.148 79.7673C341.228 79.8344 341.291 79.9195 341.331 80.0157C341.372 80.1118 341.389 80.2162 341.381 80.3203C341.387 80.4188 341.371 80.5174 341.332 80.6084C341.294 80.6993 341.235 80.78 341.16 80.8441C341.019 80.9553 340.849 81.0239 340.671 81.042L341.486 82.2062H341.218L341.195 82.2353ZM341.131 80.3144C341.141 80.2322 341.128 80.1487 341.093 80.0736C341.058 79.9985 341.002 79.9347 340.933 79.8895C340.796 79.8188 340.644 79.7828 340.49 79.7848H339.833V80.8907H340.333C340.535 80.901 340.735 80.8589 340.915 80.7685C340.991 80.7218 341.052 80.6541 341.09 80.5735C341.129 80.4929 341.143 80.4028 341.131 80.3144V80.3144Z" fill="#222222"/>
<defs>
<linearGradient id="paint0_linear_3018_27845" x1="65.6474" y1="1.00064" x2="65.6474" y2="141.001" gradientUnits="userSpaceOnUse">
<stop stop-color="#E76124"/>
<stop offset="0.38" stop-color="#E76124"/>
<stop offset="1" stop-color="#F09420"/>
</linearGradient>
<linearGradient id="paint1_linear_3018_27845" x1="308.022" y1="129.05" x2="341.841" y2="129.05" gradientUnits="userSpaceOnUse">
<stop stop-color="#E76124"/>
<stop offset="0.5" stop-color="#F6892E"/>
<stop offset="1" stop-color="#F09420"/>
</linearGradient>
</defs>
</svg>
