<svg width="123" height="105" viewBox="0 0 123 105" fill="none" xmlns="http://www.w3.org/2000/svg">
<path d="M103.629 24.8114C107.055 25.1447 114.222 24.04 115.479 16.9542C116.735 9.86844 120.095 7.90652 121.618 7.81128" stroke="#F3603F" stroke-width="1.50541" stroke-linecap="round"/>
<circle cx="61.7151" cy="50.792" r="26.0432" fill="#58B87E"/>
<path fill-rule="evenodd" clip-rule="evenodd" d="M59.1409 58.1501C58.6823 58.1501 58.2189 57.9774 57.8683 57.6294L52.1683 52.0129C51.4647 51.3194 51.4647 50.1976 52.1683 49.5041C52.8718 48.8106 54.0099 48.8106 54.7134 49.5041L59.1409 53.8638L69.2637 43.8875C69.9672 43.1941 71.1053 43.1941 71.8088 43.8875C72.5123 44.581 72.5123 45.7029 71.8088 46.3964L60.4134 57.6294C60.0629 57.9774 59.6019 58.1501 59.1409 58.1501Z" fill="white"/>
<path d="M91.7227 84.9336C94.9208 85.858 101.104 89.3709 100.251 96.0269" stroke="#F7B23B" stroke-width="1.50541" stroke-linecap="round" stroke-linejoin="round"/>
<path d="M1.38281 75.4442C6.29058 77.2937 16.871 78.6203 19.9304 69.1303M19.9304 69.1303C20.3766 66.5155 19.9305 61.3432 14.5766 61.5728C13.5567 64.092 13.1997 69.1303 19.9304 69.1303ZM19.9304 69.1303C22.1612 69.5449 27.3495 69.1495 30.2559 64.2514" stroke="#6E89FA" stroke-width="1.50541" stroke-linecap="round" stroke-linejoin="round"/>
<ellipse cx="75.7994" cy="100.894" rx="3.28373" ry="3.28576" fill="#637BFE"/>
<path d="M102.503 45.8262C104.178 45.8264 105.535 47.1852 105.535 48.8613C105.535 50.5373 104.177 51.8953 102.503 51.8955C100.828 51.8955 99.4699 50.5374 99.4697 48.8613C99.4697 47.1851 100.828 45.8262 102.503 45.8262Z" stroke="#C05EFD" stroke-width="0.501805"/>
<ellipse cx="54.7171" cy="3.60453" rx="3.59596" ry="3.59818" fill="#53B175"/>
<ellipse cx="64.9264" cy="9.67807" rx="1.89906" ry="1.90023" fill="#F3603F"/>
<path d="M23.0703 34.5056C24.7696 34.5056 26.1474 35.884 26.1475 37.5847C26.1475 39.2855 24.7696 40.6638 23.0703 40.6638C21.371 40.6638 19.9932 39.2855 19.9932 37.5847C19.9932 35.884 21.371 34.5056 23.0703 34.5056Z" stroke="#F7B23B" stroke-width="0.501805"/>
<path d="M30.7139 86.6855C32.5962 86.6855 34.123 88.2128 34.123 90.0967C34.1228 91.9804 32.5961 93.5068 30.7139 93.5068C28.8318 93.5067 27.3059 91.9803 27.3057 90.0967C27.3057 88.2129 28.8316 86.6857 30.7139 86.6855Z" stroke="#53B175" stroke-width="0.501805"/>
<ellipse cx="1.74828" cy="1.74935" rx="1.74828" ry="1.74935" transform="matrix(-1 0 0 1 67.3398 95.3735)" fill="#53B175"/>
</svg>
