<?xml version="1.0" encoding="utf-8"?>
<!-- Generator: Adobe Illustrator 24.0.1, SVG Export Plug-In . SVG Version: 6.00 Build 0)  -->
<svg version="1.1" id="Layer_1" xmlns="http://www.w3.org/2000/svg" xmlns:xlink="http://www.w3.org/1999/xlink" x="0px" y="0px"
	 viewBox="0 0 1080 298" style="enable-background:new 0 0 1080 298;" xml:space="preserve">
<style type="text/css">
	.st0{display:none;}
	.st1{display:inline;fill-rule:evenodd;clip-rule:evenodd;fill:#003369;}
	.st2{display:inline;fill-rule:evenodd;clip-rule:evenodd;fill:#5DBA47;}
	.st3{fill:#0367A5;}
	.st4{fill:#3CB6AB;}
	.st5{opacity:0.5;fill:#3CB6AB;}
	.st6{opacity:0.22;}
	.st7{opacity:0.46;fill:#293A8C;}
	.st8{opacity:0.24;fill:none;stroke:#12916D;stroke-width:0.3641;stroke-miterlimit:10;}
	.st9{fill-rule:evenodd;clip-rule:evenodd;fill:#3CB6AB;}
	.st10{opacity:0.11;fill:#293A8C;}
	.st11{opacity:0.21;}
	.st12{opacity:0.46;fill:#3E8E28;}
	.st13{fill:#2D2D2D;}
	.st14{font-family:'MicrosoftSansSerif';}
	.st15{font-size:31.4178px;}
	.st16{opacity:0.24;fill:none;stroke:#12916D;stroke-width:0.3102;stroke-miterlimit:10;}
</style>
<g>
	<g>
		<g>
			<path class="st3" d="M412,93.3l-16,24.4l-16-24.4h-16.1v63.3h14.9v-38.9l9.8,14.8v24.1h14.8V132l9.6-14.5v0.9h15.1V93.3H412z
				 M412.9,131.2v25.5h15.1v-25.5H412.9z"/>
			<path class="st3" d="M455.9,118.6l0.1,12.6h16.6v-12.6H455.9z"/>
			<polygon class="st3" points="491,143.7 491,156.5 442.3,156.5 442.3,131.2 456,131.2 456,131.4 456,143.7 			"/>
			<polygon class="st3" points="491,106.2 455.8,106.2 455.9,118.4 455.9,118.6 442.3,118.6 442.3,93.4 491,93.4 			"/>
			<path class="st3" d="M524,156.5h-25.1V93.3H524c10.2,0,18.5,3,24.7,9.1c6.3,6.1,9.5,13.5,9.5,22.4c0,8.9-3.2,16.4-9.5,22.6
				C542.5,153.5,534.3,156.5,524,156.5z M524,143.6c10.8,0,16.9-6.1,18.2-18.5c0-11.1-6.1-17.4-18.2-18.8h-9.9v37.3H524z"/>
			<path class="st3" d="M566.1,93.3h15.2v63.2h-15.2V93.3z"/>
			<path class="st3" d="M635.7,156.6h-46.6V93.3h15.2v50.2h31.3V156.6z"/>
			<path class="st3" d="M643.6,93.3h15.2v63.2h-15.2V93.3z"/>
			<path class="st3" d="M723.9,156.6h-13l-29.2-38.3v38.3h-15V93.3h13.9l28.2,37.1V93.3h15.1V156.6z"/>
			<path class="st3" d="M785.4,156.5h-17.9L747,133.1v23.4h-15.2V93.3H747v23.5l20.5-23.5h17.9l-27.9,31.6L785.4,156.5z"/>
			<path class="st4" d="M849,157.6c-5.8,0-10.7-1-14.8-3.1c-4.1-2.1-7.5-4.8-10.3-8l10.3-9.8c2.5,2.9,4.9,4.9,7.1,6.2
				c2.2,1.2,4.9,1.8,7.9,1.8c2.3,0,4.2-0.6,5.8-1.9c1.5-1.3,2.3-3.1,2.3-5.5v-0.2c0-2.6-1-4.5-3.1-5.7c-2-1.3-4.8-2-8.5-2h-6.4
				l-2.2-9.1l14.7-14.8h-24.4V93.3h43.8V104l-15.7,15c1.8,0.4,3.7,0.9,5.8,1.7c2.1,0.8,3.9,1.9,5.6,3.3c1.7,1.4,3,3.2,3.9,5.3
				c1,2.1,1.4,4.5,1.4,7.4v0.2c0,2.9-0.5,5.7-1.6,8.1c-1,2.5-2.5,4.7-4.5,6.6c-2,1.9-4.5,3.3-7.4,4.4
				C855.9,157.1,852.6,157.6,849,157.6z"/>
			<path class="st4" d="M906.4,157.6c-4.3,0-7.9-0.6-10.8-1.8c-3-1.2-5.6-2.9-7.8-5c-2.4-2.4-4.2-5.5-5.6-9.1
				c-1.4-3.7-2.1-8.6-2.1-14.8v-0.2c0-4.8,0.5-9.3,1.6-13.5c1.2-4.1,2.9-7.8,5.1-10.8c2.3-3.1,5.2-5.6,8.8-7.3
				c3.6-1.8,7.8-2.8,12.6-2.8c2.2,0,4.3,0.1,6.1,0.4c1.9,0.3,3.6,0.8,5.2,1.4c1.6,0.6,3.2,1.4,4.7,2.2c1.5,0.9,2.9,1.9,4.4,3.1
				l-7.8,11.4c-1.5-1.2-2.8-2.1-3.7-2.7c-0.9-0.6-1.9-1.1-2.9-1.5c-0.9-0.4-1.9-0.7-3-0.9c-1-0.2-2.2-0.4-3.4-0.4
				c-1.8,0-3.4,0.3-4.8,1c-1.3,0.7-2.5,1.7-3.5,3c-1,1.3-1.8,2.8-2.4,4.5c-0.6,1.8-1,3.4-1.1,4.8c0.7-0.5,2.1-1.2,4.1-2
				c2.1-0.9,4.8-1.4,8-1.4s6.3,0.5,9.1,1.4c2.8,0.9,5.2,2.2,7.3,3.9c2,1.7,3.6,3.8,4.7,6.3c1.1,2.5,1.7,5.4,1.7,8.6v0.2
				c0,3.2-0.6,6.2-1.9,8.8c-1.2,2.7-2.9,5-5.1,7c-2.2,2-4.8,3.5-7.8,4.6C913.2,157.1,909.9,157.6,906.4,157.6z M905.9,145.3
				c3.1,0,5.6-0.8,7.3-2.4c1.8-1.7,2.7-3.9,2.7-6.6v-0.2c0-2.7-0.9-4.8-2.8-6.4c-1.8-1.6-4.3-2.4-7.4-2.4c-3.1,0-5.6,0.8-7.3,2.4
				c-1.8,1.6-2.7,3.7-2.7,6.4v0.2c0,2.7,0.9,4.9,2.8,6.6C900.3,144.4,902.8,145.3,905.9,145.3z"/>
			<path class="st4" d="M967.4,157.6c-4.4,0-8.3-0.8-11.8-2.5c-3.6-1.7-6.6-4-9.1-7c-2.4-2.9-4.3-6.4-5.6-10.3c-1.3-4-2-8.2-2-12.7
				v-0.2c0-4.5,0.7-8.7,2-12.7c1.4-3.9,3.3-7.3,5.8-10.3c2.4-3,5.5-5.4,9.1-7.1c3.5-1.7,7.4-2.6,11.8-2.6c4.3,0,8.2,0.8,11.8,2.5
				c3.6,1.7,6.6,4,9,7c2.4,2.9,4.4,6.4,5.8,10.3c1.3,4,2,8.3,2,12.7v0.2c0,4.5-0.7,8.7-2,12.7c-1.4,3.9-3.3,7.4-5.9,10.3
				c-2.4,3-5.4,5.3-9,7C975.7,156.8,971.8,157.6,967.4,157.6z M967.6,144.6c1.9,0,3.6-0.5,5.2-1.4c1.5-0.9,2.9-2.3,4-4
				c1.2-1.7,2.1-3.7,2.7-6.2c0.6-2.4,1-5.1,1-8v-0.2c0-2.9-0.3-5.5-1-8c-0.7-2.4-1.6-4.5-2.8-6.3c-1.2-1.8-2.6-3.2-4.2-4.1
				c-1.6-0.9-3.3-1.4-5.1-1.4c-1.9,0-3.6,0.4-5.2,1.3c-1.5,1-2.9,2.3-4,4.1c-1.2,1.7-2.1,3.7-2.7,6.2c-0.7,2.4-1,5.1-1,8v0.2
				c0,2.9,0.3,5.5,1,8c0.6,2.5,1.6,4.6,2.8,6.3c1.2,1.8,2.5,3.1,4.2,4C964,144.2,965.7,144.6,967.6,144.6z"/>
			<polygon class="st3" points="472.6,118.6 472.6,131.2 456,131.2 455.9,118.6 			"/>
		</g>
		<g>
			<text transform="matrix(1 0 0 1 411.4589 211.3907)" class="st13 st14 st15">Gateway to Medical Solutions</text>
		</g>
	</g>
	<g>
		<g>
			<path class="st3" d="M323,81.8l9,35.2c-10.2,6.3-24.4,17.5-29.9,22.4c-5.8,5.3-18.6,10.7-22.6,13c-4,2.3-12.7,4.9-16.1,6.2
				c-3.1,1.2-7.3,4.3-10.4,5.5c-3.2,1.2-8.6,5.1-10.5,6.4c-1.6,1.1-5.7-0.5-5.1-4.2c0.6-3.7,4.5-9,7.3-11.2
				c3.4-2.7,10.8-4.8,12.8-5.9c2.2-1.3,4.2-3.5,3.8-5.4c-0.9-4-11.1-7.5-18.5-10.9c-1.8,1.2-10.2,6.3-11.9,7.2
				c-1.6,0.8-2.7,2.9-6.6,4c-4,1.1-5.9-2.5-4.8-3.6c1.1-1,4.7-2.5,6.2-4.1c1.4-1.6,3.4-2.7,7.8-6.5c-1.7-0.1-7.4,1.7-9.3,2.7
				c-1.9,1-6.8,4.6-8.6,6.4c-1.8,1.8-3.1,4.4-6.6,6c-5.2,2.5-7.8-2-6.9-2.8c0.9-0.8,7.4-7.7,12.6-11.7c-3,1.1-9.3,3-11.8,4.1
				c-2.4,1-6.7,3.1-11.3,3.3c-4.4,0.1-5.8-4.2-4.8-5.6c0.8-1.1,8.3-4.4,12.1-6c-1.7-0.5-5-0.9-7-1.8c-2.2-1-2.7-5.3,0.4-6.1
				c3.2-0.8,15.4-1.6,19.1-2.1c3.8-0.5,14.2-2,16.4-1.9c2.3,0.1,5.2,0.2,8.6,0.4c3.4,0.2,10.1-0.8,22.1-1.9
				c15.2-1.2,23.5-2,26.7-3.3c1.6-0.7,2-2.1,3.7-3.1c1.6-0.9,2.8,0,5.2-1.4C295.9,103.9,308.9,93.3,323,81.8z"/>
			<g>
				<g>
					<path class="st4" d="M191.6,171.3l13.3-5.4c0,0,16.1-11.8,18.6-11.4c2.5,0.4-7.7,9.1-7.7,9.1l-19.1,11.9L191.6,171.3z"/>
					<path class="st5" d="M191.6,171.3l13.3-5.4c0,0,16.1-11.8,18.6-11.4c2.5,0.4-7.7,9.1-7.7,9.1l-19.1,11.9L191.6,171.3z"/>
					<path class="st4" d="M224.2,152c-5.6,5.3-10.4,10.6-13.2,12.3c-1.8,1.1-6.1,3.2-10.3,5.7c-2.5,1.5-4.9,3.2-6.6,4.8
						c-4.5,4.4,8.5-2,8.5-2s15.1-5.5,20.4-10.2c5.3-4.7,10.5-8.4,10.5-10.9c0-0.2,0-0.4-0.1-0.6C232.8,148.8,229.3,147.1,224.2,152z
						"/>
					<path class="st5" d="M233.4,151c-3.3,1.4-8.5,6.1-10.7,7.9c-2.6,2.1-4.8,4.3-8.4,6.4c-4.2,2.4-10.6,5-10.6,5l-3-0.2
						c-2.5,1.5-4.9,3.2-6.6,4.8c-4.5,4.4,8.5-2,8.5-2s15.1-5.5,20.4-10.2c5.3-4.7,10.5-8.4,10.5-10.9
						C233.5,151.4,233.5,151.2,233.4,151z"/>
					<path class="st4" d="M233,154.1c-1.9,0.2-4.4,2.1-6.9,4.1c-1.9,1.5-3.8,3.1-5.5,4.2c-4.2,2.7-22.2,11.4-22.2,11.4l16.8,2.4
						c0,0,11.2-8,15.1-11.5c0.9-0.8,1.8-1.6,2.5-2.3c2.3-2.2,3.7-3.6,4.1-4.7C237.3,156.3,236.3,153.7,233,154.1z"/>
					<path class="st4" d="M210.6,171.6c0,0-7.8,0.9-11.9-0.5c-0.4-0.1-0.8-0.2-1.1-0.3l0,0c-2-0.5-3.9-0.7-6.2-0.7
						c-2,0-4.4,0.1-7.4,0.2c-7.3,0.3-9.5,0.3-12.1-1.7c-2.5-2-2.3-4.3-1.5-6.6c0.8-2,5.9-11.6,0.6-16c-1.1-0.9-2.7-0.6-3.4,0.5
						c-1.7,2.6-4.8,7.1-6,9.1c-1.8,2.7-3,7-5.4,10.2c-1.7,2.2-3.9,3.8-6.5,7.9c-1.2,2-2.5,4.5-3.9,8l-4.1,4.8l-0.9,1.1l-1.6,1.8
						l2.4-0.5l34.8-7.7l19.2-1.2l0.6-0.4L210.6,171.6z"/>
					<path class="st5" d="M210.6,171.6c0,0-7.8,0.9-11.9-0.5c-0.4-0.1-0.8-0.2-1.1-0.3l0,0c-2-0.5-3.9-0.7-6.2-0.7
						c-10.8,1.3-20.6,1.1-29.3,1.3c-4.9,0.1-9,1-12.3,2.3c-1.2,2-2.5,4.5-3.9,8l-4.1,4.8l33.6-6.4l20.9-0.6L210.6,171.6z"/>
					<path class="st5" d="M230.5,159.2c-1.5-1-2.9-1.2-4.5-1c-1.9,1.5-3.8,3.1-5.5,4.2c-4.2,2.7-22.2,11.4-22.2,11.4l16.8,2.4
						c0,0,11.2-8,15.1-11.5c0.9-0.8,1.8-1.6,2.5-2.3C232.4,161.3,231.8,160,230.5,159.2z"/>
					<path class="st4" d="M230.2,164.7L230.2,164.7c-0.5,1.5-10.5,9.7-13.5,11.8c-3,2.1-13.2,7.3-19.2,9.9
						c-5.9,2.6-33.5,14.9-33.5,14.9l-0.3,0.2l-9.1,6.1c-7.1-5.4-14.2-10.9-21.1-16.6c3.5-1.9,6.4-3.6,8.5-4.9c0,0,0,0,0,0
						c0,0,0.1-0.1,0.1-0.1c0.9-0.6,1.8-1.2,2.7-1.7c15.2-9.3,23-8.7,28.1-8.7c3.4,0,12.9-1.3,20.9-2.5c1-0.2,2-0.3,3-0.5h0
						c2.1-0.3,3.9-0.6,5.5-0.9c0,0,0,0,0,0c0.1,0,0.1,0,0.2,0h0c0,0,0.1,0,0.2,0h0c1-0.2,1.8-0.3,2.5-0.4c1.3-0.2,2.5-0.6,3.7-1
						c0,0,0,0,0,0c1.3-0.5,2.5-1,3.6-1.6c0,0,0,0,0,0c0,0,0,0,0,0h0c2.2-1.1,3.8-2.3,4.7-2.8c1.7-1.1,5.9-4.7,5.9-4.7
						c1.1-0.7,2.1-1.1,2.9-1.3C230,159.1,230.6,163.4,230.2,164.7z"/>
				</g>
			</g>
			<path class="st9" d="M292.4,46.4c-29-8.7-64,1.8-80.7,39.2c-16.8-37.4-51.8-47.9-80.8-39.2C102.1,55,82.7,80.9,84,113.1
				c1.2,31,23.3,56,49.5,77.9c6.8,5.7,14,11.2,21.1,16.6c22,16.6,44,31.7,57.1,46.8c33.6-38.8,125.1-77.2,127.6-141.3
				C340.6,80.9,321.2,55,292.4,46.4z M322.2,112.4c-2.7,56.3-85.7,97.5-110.6,138.8c-9.8-16.2-28.6-32.5-48-49.6
				c-5.2-4.6-10.5-9.3-15.7-14.1c-0.6-0.6-1.3-1.2-1.9-1.8c-0.5-0.4-0.9-0.9-1.4-1.3c-0.2-0.2-0.5-0.4-0.7-0.7
				c-22.5-21.5-41.7-44.7-43-71.3c-1.2-25.6,12.8-45.8,35.6-53.3c27.2-9,62,1.5,75.1,33.2c13-31.7,47.9-42.2,75-33.2
				C309.4,66.6,323.5,86.8,322.2,112.4z"/>
		</g>
		<g class="st6">
			<path class="st7" d="M185.5,187.7c2.7-0.3,5.5-0.9,8.1-1.8c2.7-0.9,5-2.2,7.5-3.4c0.1,0,0.1,0,0.1,0.1c-2.1,1.7-4.8,2.7-7.3,3.6
				C191.1,187.1,188.4,187.6,185.5,187.7C185.4,187.8,185.4,187.7,185.5,187.7z"/>
			<path class="st7" d="M183,188.9c-0.3,0.1-0.2,0.6,0.1,0.5c0.7-0.2,1.4-0.1,2.1-0.4c0.1,0,0.1-0.2,0-0.3
				C184.6,188.3,183.7,188.6,183,188.9z"/>
			<path class="st7" d="M187.5,190.3c-0.9-0.3-2.1-0.1-3,0.1c-1.1,0.2-2.3,0.5-3.3,1c-0.2,0.1-0.1,0.4,0.1,0.3c1-0.3,2-0.6,3.1-0.7
				c1-0.2,2.2-0.1,3.1-0.5C187.6,190.4,187.6,190.3,187.5,190.3z"/>
			<path class="st7" d="M162.7,202.3c0,0.1,0.2,0.2,0.2,0.1c1.3-2.5,5-4,7.3-5.5c2.6-1.7,5.3-3.3,8.1-4.5c0.1,0,0-0.1,0-0.1
				c-3.4,1.1-6.4,3-9.5,4.9C166.8,198.5,163.6,199.8,162.7,202.3z"/>
			<path class="st7" d="M175.2,192.5c1.3-0.5,2.5-1.1,3.8-1.5c1.3-0.5,2.6-0.7,3.9-1.3c0.1,0,0.1-0.2,0-0.2
				c-2.6,0.2-5.6,1.4-7.7,2.7C175,192.4,175.1,192.6,175.2,192.5z"/>
			<path class="st7" d="M175.9,190.8c2.2-1.1,4.5-1.7,6.9-2.2c0.2,0,0.1-0.3,0-0.3c-2.5,0.2-4.9,1.2-7,2.4
				C175.8,190.7,175.8,190.9,175.9,190.8z"/>
			<path class="st7" d="M177.5,188.7c1.4-0.6,2.7-0.7,4.1-0.9c0.2,0,0.2-0.2,0-0.2c-1.4-0.1-2.9,0.4-4.2,1
				C177.4,188.6,177.4,188.7,177.5,188.7z"/>
			<path class="st7" d="M178.7,187c0.8,0,2-0.2,2.6-0.7c0.1,0,0-0.1-0.1-0.1c-0.4,0-0.8,0.2-1.2,0.3c-0.5,0.1-0.9,0.2-1.4,0.3
				C178.5,186.8,178.5,187,178.7,187z"/>
			<path class="st7" d="M181,185.1c0.1,0,0.1-0.1,0-0.1c-0.6,0-1.1,0-1.6,0.1c-0.2,0-0.1,0.3,0,0.3C180,185.3,180.5,185.3,181,185.1
				z"/>
			<path class="st7" d="M165.5,198.4c1.6-0.8,3-2,4.6-2.9c1.5-0.9,3.2-1.7,4.7-2.7c0,0,0-0.1,0-0.1c-1.7,0.6-3.3,1.6-4.8,2.5
				c-1.5,0.9-3.2,1.9-4.5,3.1C165.4,198.4,165.5,198.5,165.5,198.4z"/>
			<path class="st7" d="M171,193.2c1.2-0.6,2.4-1.1,3.5-1.8c0.1,0,0-0.1,0-0.1c-1.2,0.5-2.4,1.1-3.6,1.7
				C170.8,193.1,170.9,193.3,171,193.2z"/>
			<path class="st7" d="M173,190.9c0.3-0.1,0.5-0.3,0.8-0.4c0.1,0,0-0.2-0.1-0.1c-0.3,0.1-0.5,0.2-0.8,0.4
				C172.8,190.8,172.9,191,173,190.9z"/>
		</g>
		<path class="st16" d="M143.8,192c0,0,14.7-4.8,23.2-10.3c9-5.8,22-6,25.1-6.4c9-1.3,9.9,0.1,16.8-5.2"/>
		<path class="st10" d="M163.3,181.7c-0.6,0-1.1-0.2-1.6-0.5c-0.1,0-0.1,0-0.1,0.1c0.9,0.6,2.3,0.9,3.3,0.4c0,0,0-0.1,0-0.1
			C164.3,181.6,163.8,181.8,163.3,181.7z"/>
		<path class="st10" d="M159.5,178.5c0.4,1.3,1.9,2,3.1,2.5c0.6,0.2,1.2,0.4,1.9,0.4c0.7,0,1.3-0.4,1.9-0.6c0,0,0-0.1,0-0.1
			c-0.4-0.1-0.6,0-1,0c-0.9,0.2-1.4,0.2-2.3-0.1c-1.2-0.4-2.9-1.1-3.5-2.2C159.7,178.3,159.5,178.4,159.5,178.5z"/>
		<g class="st11">
			<path class="st12" d="M224,162.3c-1.7,0.6-3.4,1.8-4.6,3.1c0,0,0,0.1,0.1,0.1c1.4-1.3,2.9-2.2,4.6-3.1
				C224.1,162.3,224.1,162.2,224,162.3z"/>
			<path class="st12" d="M223.3,163.1c-1.1,0.4-2.1,1.2-2.9,2c0,0,0,0.1,0.1,0.1c0.5-0.4,0.9-0.7,1.4-1.1
				C222.4,163.7,222.9,163.5,223.3,163.1C223.4,163.1,223.4,163,223.3,163.1z"/>
			<path class="st12" d="M222.5,163.9c-0.4,0.1-0.7,0.4-1,0.7c-0.1,0.1,0,0.2,0.1,0.1C222,164.4,222.3,164.2,222.5,163.9
				C222.6,163.9,222.6,163.8,222.5,163.9z"/>
			<path class="st12" d="M222.4,164.5c0.2-0.1,0.4-0.1,0.5-0.4c0,0,0-0.1-0.1-0.1c-0.2,0.1-0.3,0.2-0.5,0.2
				C222.3,164.4,222.3,164.6,222.4,164.5z"/>
		</g>
	</g>
</g>
</svg>
