<?xml version="1.0" standalone="no"?>
<!DOCTYPE svg PUBLIC "-//W3C//DTD SVG 20010904//EN"
 "http://www.w3.org/TR/2001/REC-SVG-20010904/DTD/svg10.dtd">
<svg version="1.0" xmlns="http://www.w3.org/2000/svg"
 width="1024.000000pt" height="1024.000000pt" viewBox="0 0 1024.000000 1024.000000"
 preserveAspectRatio="xMidYMid meet">
<metadata>
Created by potrace 1.16, written by Peter Selinger 2001-2019
</metadata>
<g transform="translate(0.000000,1024.000000) scale(0.100000,-0.100000)"
fill="#000000" stroke="none">
<path d="M1150 5118 l0 -2768 1855 0 1855 0 0 1770 0 1770 -850 0 -850 0 0
-505 0 -505 340 0 340 0 0 -760 0 -760 -830 0 -830 0 0 1765 0 1765 1340 0
1340 0 0 498 0 497 -1855 0 -1855 0 0 -2767z"/>
<path d="M5380 5118 l0 -2768 510 0 510 0 0 1265 0 1265 535 0 535 0 0 505 0
505 -535 0 -535 0 0 500 0 500 575 0 575 0 0 498 0 497 -1085 0 -1085 0 0
-2767z"/>
<path d="M8059 7405 c0 -264 -3 -1509 -5 -2767 l-4 -2288 520 0 520 0 2 2115
c2 1163 3 2408 3 2765 l0 650 -518 3 -517 2 -1 -480z"/>
</g>
</svg>
