<svg width="24" height="24" viewBox="0 0 24 24" fill="none" xmlns="http://www.w3.org/2000/svg">
<path d="M6.375 11.375L8.3312 6.375H10.0143L12 11.375H10.4941L10.1102 10.3077H8.17618L7.77018 11.375H6.375ZM9.78543 9.36211L9.17274 7.40652H9.15797L8.4936 9.36211H9.78543Z" fill="white"/>
<rect x="5" y="5" width="8.375" height="8.375" stroke="white"/>
<rect x="10.625" y="10.625" width="8.375" height="8.375" fill="#002F56" stroke="white"/>
<path d="M15.1012 18.25C14.7905 18.25 14.4868 18.215 14.19 18.145C13.8979 18.0749 13.6335 17.9633 13.3971 17.8101C13.1606 17.6613 12.9728 17.4688 12.8337 17.2324C12.6946 16.9961 12.625 16.7116 12.625 16.3789C12.625 16.02 12.7015 15.6918 12.8545 15.3942C13.0076 15.0922 13.2232 14.8252 13.5014 14.5932C13.7796 14.3613 14.1088 14.1687 14.4891 14.0155C14.8739 13.8579 15.2936 13.7463 15.748 13.6807L15.9775 14.5473C15.5695 14.6173 15.2148 14.7092 14.9134 14.823C14.6166 14.9368 14.3708 15.0703 14.1761 15.2235C13.9813 15.3767 13.8353 15.5408 13.7379 15.7159C13.6451 15.8953 13.5988 16.0835 13.5988 16.2805C13.5988 16.438 13.6289 16.5759 13.6892 16.6941C13.7541 16.8122 13.8399 16.9107 13.9465 16.9895C14.0532 17.0727 14.1714 17.1383 14.3013 17.1864C14.4311 17.239 14.5656 17.2762 14.7047 17.2981C14.8438 17.3199 14.976 17.3309 15.1012 17.3309C15.4211 17.3309 15.7179 17.3024 15.9915 17.2455C16.2697 17.1886 16.5131 17.1186 16.7218 17.0355L17 17.8824C16.8887 17.9349 16.7311 17.9896 16.527 18.0465C16.3276 18.1034 16.1027 18.1515 15.8523 18.1909C15.6066 18.2303 15.3562 18.25 15.1012 18.25ZM13.717 14.6129C13.5547 14.5516 13.404 14.4641 13.2649 14.3503C13.1304 14.2365 13.0215 14.0965 12.938 13.9301C12.8592 13.7595 12.8198 13.5647 12.8198 13.3459C12.8198 13.0701 12.8963 12.8316 13.0493 12.6303C13.2023 12.4289 13.4063 12.2735 13.6614 12.1641C13.9164 12.0547 14.1946 12 14.496 12C14.6444 12 14.7812 12.0088 14.9064 12.0263C15.0362 12.0438 15.1684 12.07 15.3029 12.105L15.1498 12.9782C15.0525 12.9563 14.9528 12.9388 14.8508 12.9257C14.7487 12.9126 14.6583 12.906 14.5795 12.906C14.4172 12.906 14.2758 12.9279 14.1552 12.9716C14.0393 13.0154 13.9489 13.0789 13.8839 13.162C13.8237 13.2408 13.7935 13.3349 13.7935 13.4443C13.7935 13.5319 13.8213 13.615 13.877 13.6938C13.9373 13.7726 14.0138 13.8426 14.1065 13.9039C14.1993 13.9608 14.3013 14.0089 14.4126 14.0483C14.5238 14.0833 14.6328 14.103 14.7395 14.1074L13.717 14.6129Z" fill="white"/>
</svg>
