<svg width="33" height="32" viewBox="0 0 33 32" fill="none" xmlns="http://www.w3.org/2000/svg">
<mask id="path-1-inside-1_3078_10536" fill="white">
<path fill-rule="evenodd" clip-rule="evenodd" d="M21.3857 7.21491L16.3672 5.12305L14.3554 9.94951C16.1223 11.5134 16.7897 14.0845 15.8312 16.3841C14.8727 18.6838 12.5767 20.0197 10.2221 19.8656L8.76151 23.3696L13.7801 25.4615C14.7996 25.8865 15.9706 25.4045 16.3956 24.3849L22.4623 9.83045C22.8873 8.8109 22.4053 7.63989 21.3857 7.21491Z"/>
</mask>
<path d="M16.3672 5.12305L16.7519 4.20002L15.8289 3.81528L15.4442 4.7383L16.3672 5.12305ZM14.3554 9.94951L13.4324 9.56476L13.1573 10.2246L13.6926 10.6983L14.3554 9.94951ZM10.2221 19.8656L10.2874 18.8677L9.57409 18.821L9.29907 19.4808L10.2221 19.8656ZM8.76151 23.3696L7.83848 22.9849L7.45374 23.9079L8.37677 24.2927L8.76151 23.3696ZM16.3956 24.3849L15.4726 24.0002L16.3956 24.3849ZM22.4623 9.83045L23.3853 10.2152L22.4623 9.83045ZM15.9824 6.04607L21.001 8.13794L21.7705 6.29189L16.7519 4.20002L15.9824 6.04607ZM15.2784 10.3342L17.2902 5.50779L15.4442 4.7383L13.4324 9.56476L15.2784 10.3342ZM13.6926 10.6983C15.1492 11.9875 15.6972 14.1064 14.9082 15.9994L16.7542 16.7689C17.8822 14.0627 17.0955 11.0392 15.0181 9.20067L13.6926 10.6983ZM14.9082 15.9994C14.1191 17.8924 12.2284 18.9948 10.2874 18.8677L10.1568 20.8634C12.9249 21.0446 15.6262 19.4751 16.7542 16.7689L14.9082 15.9994ZM9.68453 23.7544L11.1451 20.2503L9.29907 19.4808L7.83848 22.9849L9.68453 23.7544ZM14.1648 24.5385L9.14625 22.4466L8.37677 24.2927L13.3953 26.3845L14.1648 24.5385ZM15.4726 24.0002C15.2601 24.51 14.6746 24.751 14.1648 24.5385L13.3953 26.3845C14.9246 27.022 16.6811 26.299 17.3186 24.7697L15.4726 24.0002ZM21.5393 9.4457L15.4726 24.0002L17.3186 24.7697L23.3853 10.2152L21.5393 9.4457ZM21.001 8.13794C21.5108 8.35043 21.7518 8.93593 21.5393 9.4457L23.3853 10.2152C24.0228 8.68587 23.2998 6.92935 21.7705 6.29189L21.001 8.13794Z" fill="#002F56" mask="url(#path-1-inside-1_3078_10536)"/>
</svg>
