<svg width="24" height="24" viewBox="0 0 24 24" fill="none" xmlns="http://www.w3.org/2000/svg">
<path d="M14.6633 4.96833L14.8292 5.3H15.2H17.6C17.8209 5.3 18 5.47909 18 5.7V5.8H5.6V5.7C5.6 5.47909 5.77909 5.3 6 5.3H8.4H8.77082L8.93666 4.96833L9.23387 4.3739C9.47102 3.8996 9.95579 3.6 10.4861 3.6H13.1139C13.6442 3.6 14.129 3.8996 14.3661 4.3739L14.6633 4.96833ZM7.85 19.4C7.0768 19.4 6.45 18.7732 6.45 18V8.7H17.15V18C17.15 18.7732 16.5232 19.4 15.75 19.4H7.85Z" stroke="#002F56" stroke-width="1.2"/>
</svg>
