<?xml version="1.0" encoding="UTF-8"?>
<svg version="1.1" xmlns="http://www.w3.org/2000/svg" width="512" height="512">
<path d="M0 0 C1.94298364 -0.00299726 3.88596669 -0.00640108 5.82894897 -0.01017761 C11.07721668 -0.01896496 16.32546804 -0.02135352 21.57374239 -0.0219934 C24.86182987 -0.02270699 28.14991327 -0.02484715 31.43799973 -0.02749062 C42.93523164 -0.0367272 54.432452 -0.04082769 65.9296875 -0.04003906 C76.60415655 -0.03943899 87.27857494 -0.04998131 97.95303118 -0.06578273 C107.15263149 -0.07890992 116.35221534 -0.08422078 125.55182493 -0.08358365 C131.03070891 -0.08333015 136.50954784 -0.08609892 141.98842239 -0.0967617 C147.14806242 -0.10653011 152.30761513 -0.10646274 157.46725845 -0.09924507 C159.34640126 -0.09820994 161.22554976 -0.10049723 163.10468292 -0.10660553 C178.61933458 -0.15371655 194.06015801 0.59347563 209.18896484 4.33276367 C210.49788696 4.65204834 210.49788696 4.65204834 211.83325195 4.9777832 C237.27212317 11.51821113 261.87882766 27.38761366 275.56396484 50.14526367 C290.98872385 76.45196822 294.718537 103.51050586 294.70922852 133.58129883 C294.71222577 135.52428247 294.7156296 137.46726552 294.71940613 139.4102478 C294.72819348 144.6585155 294.73058204 149.90676687 294.73122191 155.15504122 C294.7319355 158.4431287 294.73407567 161.73121209 294.73671913 165.01929855 C294.74595572 176.51653047 294.75005621 188.01375083 294.74926758 199.51098633 C294.74866751 210.18545537 294.75920982 220.85987377 294.77501124 231.53433001 C294.78813843 240.73393031 294.7934493 249.93351417 294.79281217 259.13312376 C294.79255867 264.61200774 294.79532744 270.09084667 294.80599022 275.56972122 C294.81575862 280.72936125 294.81569125 285.88891396 294.80847359 291.04855728 C294.80743846 292.92770009 294.80972574 294.80684859 294.81583405 296.68598175 C294.86294507 312.20063341 294.11575289 327.64145684 290.37646484 342.77026367 C290.1636084 343.64287842 289.95075195 344.51549316 289.73144531 345.41455078 C283.19101739 370.853422 267.32161485 395.46012648 244.56396484 409.14526367 C218.26989648 424.56261354 190.48562126 428.47576885 160.44677734 428.40405273 C158.50290802 428.40677104 156.55903973 428.41033662 154.61517334 428.41467285 C149.3920305 428.42369944 144.1689677 428.42029326 138.94582367 428.41391468 C133.44500026 428.40880376 127.94418309 428.41356014 122.44335938 428.41668701 C113.2107624 428.42031195 103.97819755 428.41556638 94.74560547 428.40600586 C84.11531307 428.39512418 73.48509744 428.3986508 62.8548069 428.40965867 C53.6805589 428.41877368 44.50633382 428.41999632 35.33208275 428.41478133 C29.8734143 428.4116847 24.41478177 428.4111881 18.95611572 428.41785431 C13.82101144 428.42368886 8.68600483 428.41952077 3.55091095 428.4080658 C1.68144136 428.40545154 -0.18803665 428.40612788 -2.05750275 428.41059113 C-39.86894417 428.49244799 -74.32162704 420.58783129 -102.18603516 393.70776367 C-128.29806854 366.89299852 -133.5923932 330.54927313 -133.58129883 294.70922852 C-133.58429608 292.76624487 -133.58769991 290.82326182 -133.59147644 288.88027954 C-133.60026379 283.63201184 -133.60265235 278.38376047 -133.60329223 273.13548613 C-133.60400582 269.84739865 -133.60614598 266.55931525 -133.60878944 263.27122879 C-133.61802603 251.77399688 -133.62212652 240.27677652 -133.62133789 228.77954102 C-133.62073782 218.10507197 -133.63128014 207.43065357 -133.64708155 196.75619733 C-133.66020875 187.55659703 -133.66551961 178.35701317 -133.66488248 169.15740359 C-133.66462898 163.67851961 -133.66739775 158.19968068 -133.67806053 152.72080612 C-133.68782894 147.5611661 -133.68776157 142.40161339 -133.6805439 137.24197006 C-133.67950877 135.36282726 -133.68179606 133.48367876 -133.68790436 131.60454559 C-133.73501538 116.08989394 -132.9878232 100.6490705 -129.24853516 85.52026367 C-129.03567871 84.64764893 -128.82282227 83.77503418 -128.60351562 82.87597656 C-122.07896752 57.49886959 -106.23895935 32.74646438 -83.43603516 19.14526367 C-57.11151198 3.73595637 -30.08412963 -0.00931261 0 0 Z M-81.71728516 61.54760742 C-99.1592222 81.70646158 -100.75599126 109.41813856 -100.69482422 134.80761719 C-100.69754139 136.72650281 -100.70110636 138.64538738 -100.70544434 140.56427002 C-100.7144837 145.72741468 -100.71105949 150.8904785 -100.70468616 156.05362439 C-100.69958275 161.48512805 -100.70432952 166.91662531 -100.7074585 172.34812927 C-100.71108527 181.46403227 -100.70633267 190.57990274 -100.69677734 199.69580078 C-100.68589203 210.20114325 -100.68942417 220.70640807 -100.70043015 231.21174866 C-100.70953597 240.2695623 -100.71077235 249.3273527 -100.70555282 258.38516945 C-100.7024516 263.77837929 -100.70197258 269.17155277 -100.70862579 274.56476021 C-100.7144469 279.63662944 -100.71031609 284.70839954 -100.69883728 289.78025818 C-100.69621613 291.63002293 -100.69691162 293.47979617 -100.70136261 295.32955742 C-100.73116044 308.98252892 -100.10967591 322.2321095 -96.37353516 335.45776367 C-96.03193359 336.69139648 -95.69033203 337.9250293 -95.33837891 339.19604492 C-94.55688043 342.04187335 -94.55688043 342.04187335 -93.43603516 344.14526367 C-88.28710011 342.45983016 -84.13118388 339.41019733 -79.70166016 336.37963867 C-78.84294815 335.79780319 -77.98423615 335.21596771 -77.09950256 334.61650085 C-75.25259215 333.36443246 -73.40710307 332.11026542 -71.56289673 330.85421753 C-67.6933057 328.21928009 -63.81611976 325.59561969 -59.93940735 322.97117615 C-56.9933603 320.97643596 -54.04839636 318.9801041 -51.10351562 316.98364258 C-43.69911122 311.96650108 -36.28378796 306.96589836 -28.85070801 301.99133301 C-27.46249183 301.0611532 -26.07550223 300.12913988 -24.68981934 299.19519043 C-8.27565445 288.13301255 6.06950116 282.17376914 26.18505859 285.79760742 C35.36689659 288.57962075 42.27437864 294.25238098 49.56396484 300.27026367 C60.77970619 309.32710645 72.28387941 312.25158734 86.56396484 311.14526367 C102.36049695 308.32371882 112.47508831 298.92879671 124.03271484 288.39526367 C127.5419597 285.27593491 131.19558607 282.34777234 134.84521484 279.39526367 C137.48544214 277.21024798 140.03126205 274.95354977 142.56396484 272.64526367 C146.86388275 268.72635115 151.32316031 265.05355498 155.84521484 261.39526367 C158.48544214 259.21024798 161.03126205 256.95354977 163.56396484 254.64526367 C167.86388275 250.72635115 172.32316031 247.05355498 176.84521484 243.39526367 C179.48544214 241.21024798 182.03126205 238.95354977 184.56396484 236.64526367 C186.22854766 235.14295151 187.89523825 233.6429717 189.56396484 232.14526367 C190.41474609 231.37956055 191.26552734 230.61385742 192.14208984 229.82495117 C204.35384478 219.29141987 216.86952061 213.81156525 233.13037109 214.23901367 C242.46450896 215.15678365 249.49762286 218.63322013 257.56396484 223.14526367 C258.89461127 223.81727729 260.22741101 224.48507728 261.56396484 225.14526367 C261.63456734 211.16576798 261.68700007 197.1863006 261.71940136 183.20666218 C261.73496337 176.7132321 261.75602586 170.21992299 261.7902832 163.7265625 C261.82321777 157.44359866 261.84088873 151.16075013 261.84859657 144.87770653 C261.85407956 142.49750138 261.86478347 140.11730153 261.88115501 137.73714638 C262.06718835 109.53290751 260.35167438 79.89350023 239.81445312 58.32348633 C220.54748265 38.82163237 195.53298796 33.03630333 168.80549371 32.86893427 C166.14332272 32.86290742 163.48126516 32.86661106 160.8190918 32.87060547 C158.87890936 32.86624789 156.93872864 32.86106129 154.99855042 32.8551178 C149.7709701 32.84182712 144.54346251 32.84113811 139.31586862 32.8436811 C134.93039098 32.84475787 130.54492764 32.83984936 126.15945309 32.83507568 C115.80022002 32.8240142 105.44102322 32.82352371 95.08178711 32.82958984 C84.44532321 32.83562323 73.80899181 32.82332693 63.1725505 32.80201977 C53.9957821 32.78432221 44.81905555 32.77841531 35.64227074 32.78165752 C30.18123432 32.78345801 24.72029237 32.78095916 19.25927162 32.76694298 C14.11678094 32.75423613 8.97449451 32.75642836 3.83200645 32.76935387 C1.96176454 32.77169174 0.09150766 32.76908732 -1.77871704 32.76073074 C-32.66473592 32.63284875 -59.81349014 38.48111095 -81.71728516 61.54760742 Z " fill="#000000" transform="translate(175.43603515625,41.854736328125)"/>
<path d="M0 0 C11.71606424 13.00268693 14.70301211 27.00404161 14.13623047 43.88427734 C13.85482634 48.25461458 12.73246396 52.00688185 11 56 C10.52433594 57.20462891 10.52433594 57.20462891 10.0390625 58.43359375 C4.41013901 71.22841628 -5.58394281 79.35885152 -18 85 C-31.27500478 89.99923844 -45.86312097 89.35035249 -58.83984375 83.78125 C-72.43727129 76.91578869 -81.73267223 66.58522279 -86.50878906 52.14648438 C-90.38500475 38.76792734 -88.88415702 24.50712917 -82.5390625 12.15625 C-74.47336907 -1.76423612 -63.50452545 -9.85300645 -48 -14 C-30.64167121 -17.9628339 -12.78057423 -11.92729932 0 0 Z " fill="#000000" transform="translate(229,134)"/>
</svg>
