<svg width="25" height="25" viewBox="0 0 25 25" fill="none" xmlns="http://www.w3.org/2000/svg">
<g id="info_outline" clip-path="url(#clip0_670_12399)">
<path id="Vector" d="M11.442 7.04537H13.4465V9.04985H11.442V7.04537ZM12.4443 17.0678C12.9955 17.0678 13.4465 16.6168 13.4465 16.0655V12.0566C13.4465 11.5053 12.9955 11.0543 12.4443 11.0543C11.893 11.0543 11.442 11.5053 11.442 12.0566V16.0655C11.442 16.6168 11.893 17.0678 12.4443 17.0678ZM12.4443 2.03418C6.91191 2.03418 2.42188 6.52421 2.42188 12.0566C2.42188 17.5889 6.91191 22.079 12.4443 22.079C17.9766 22.079 22.4667 17.5889 22.4667 12.0566C22.4667 6.52421 17.9766 2.03418 12.4443 2.03418ZM12.4443 20.0745C8.02439 20.0745 4.42635 16.4764 4.42635 12.0566C4.42635 7.6367 8.02439 4.03866 12.4443 4.03866C16.8641 4.03866 20.4622 7.6367 20.4622 12.0566C20.4622 16.4764 16.8641 20.0745 12.4443 20.0745Z" fill="#A3AED0"/>
</g>
<defs>
<clipPath id="clip0_670_12399">
<rect width="24.0537" height="24.0537" fill="white" transform="translate(0.417969 0.0297852)"/>
</clipPath>
</defs>
</svg>
