<svg width="33" height="32" viewBox="0 0 33 32" fill="none" xmlns="http://www.w3.org/2000/svg">
<mask id="path-1-inside-1_3078_34261" fill="white">
<path fill-rule="evenodd" clip-rule="evenodd" d="M23.6111 5.33398H8.5V24.3816C8.5 25.4862 9.39543 26.3816 10.5 26.3816H23.6111V21.5245H20.9133V18.8261H23.6111V16.1275H20.9133V13.4291H23.6111V5.33398ZM23.611 7.49273H11.7379V11.2705H23.611V7.49273ZM18.215 16.1275H20.913V18.8259H18.2146V16.1275H15.5166V13.4291H18.215V16.1275ZM15.5166 18.8261H18.215V21.5245H20.913V24.2229H18.2146V21.5245H15.5166V18.8261ZM15.5162 16.1275H12.8178V18.8259H15.5162V16.1275ZM12.8178 21.5245H15.5162V24.2229H12.8178V21.5245Z"/>
</mask>
<path d="M8.5 5.33398V4.59403H7.76004V5.33398H8.5ZM23.6111 5.33398H24.3511V4.59403H23.6111V5.33398ZM23.6111 26.3816V27.1216H24.3511V26.3816H23.6111ZM23.6111 21.5245H24.3511V20.7845H23.6111V21.5245ZM20.9133 21.5245H20.1733V22.2645H20.9133V21.5245ZM20.9133 18.8261V18.0861H20.1733V18.8261H20.9133ZM23.6111 18.8261V19.566H24.3511V18.8261H23.6111ZM23.6111 16.1275H24.3511V15.3876H23.6111V16.1275ZM20.9133 16.1275H20.1733V16.8675H20.9133V16.1275ZM20.9133 13.4291V12.6892H20.1733V13.4291H20.9133ZM23.6111 13.4291V14.1691H24.3511V13.4291H23.6111ZM11.7379 7.49273V6.75278H10.998V7.49273H11.7379ZM23.611 7.49273H24.3509V6.75278H23.611V7.49273ZM11.7379 11.2705H10.998V12.0105H11.7379V11.2705ZM23.611 11.2705V12.0105H24.3509V11.2705H23.611ZM20.913 16.1275H21.653V15.3876H20.913V16.1275ZM18.215 16.1275H17.4751V16.8675H18.215V16.1275ZM20.913 18.8259V19.5659H21.653V18.8259H20.913ZM18.2146 18.8259H17.4746V19.5659H18.2146V18.8259ZM18.2146 16.1275H18.9545V15.3876H18.2146V16.1275ZM15.5166 16.1275H14.7766V16.8675H15.5166V16.1275ZM15.5166 13.4291V12.6892H14.7766V13.4291H15.5166ZM18.215 13.4291H18.955V12.6892H18.215V13.4291ZM18.215 18.8261H18.955V18.0861H18.215V18.8261ZM15.5166 18.8261V18.0861H14.7766V18.8261H15.5166ZM18.215 21.5245H17.4751V22.2644H18.215V21.5245ZM20.913 21.5245H21.653V20.7845H20.913V21.5245ZM20.913 24.2229V24.9628H21.653V24.2229H20.913ZM18.2146 24.2229H17.4746V24.9628H18.2146V24.2229ZM18.2146 21.5245H18.9545V20.7845H18.2146V21.5245ZM15.5166 21.5245H14.7766V22.2645H15.5166V21.5245ZM12.8178 16.1275V15.3876H12.0778V16.1275H12.8178ZM15.5162 16.1275H16.2562V15.3876H15.5162V16.1275ZM12.8178 18.8259H12.0778V19.5659H12.8178V18.8259ZM15.5162 18.8259V19.5659H16.2562V18.8259H15.5162ZM15.5162 21.5245H16.2562V20.7845H15.5162V21.5245ZM12.8178 21.5245V20.7845H12.0778V21.5245H12.8178ZM15.5162 24.2229V24.9628H16.2562V24.2229H15.5162ZM12.8178 24.2229H12.0778V24.9628H12.8178V24.2229ZM8.5 6.07394H23.6111V4.59403H8.5V6.07394ZM9.23996 24.3816V5.33398H7.76004V24.3816H9.23996ZM10.5 25.6416C9.8041 25.6416 9.23996 25.0775 9.23996 24.3816H7.76004C7.76004 25.8948 8.98676 27.1216 10.5 27.1216V25.6416ZM23.6111 25.6416H10.5V27.1216H23.6111V25.6416ZM22.8712 21.5245V26.3816H24.3511V21.5245H22.8712ZM23.6111 20.7845H20.9133V22.2645H23.6111V20.7845ZM21.6532 21.5245V18.8261H20.1733V21.5245H21.6532ZM20.9133 19.566H23.6111V18.0861H20.9133V19.566ZM22.8712 16.1275V18.8261H24.3511V16.1275H22.8712ZM23.6111 15.3876H20.9133V16.8675H23.6111V15.3876ZM21.6532 16.1275V13.4291H20.1733V16.1275H21.6532ZM20.9133 14.1691H23.6111V12.6892H20.9133V14.1691ZM22.8712 5.33398V13.4291H24.3511V5.33398H22.8712ZM11.7379 8.23269H23.611V6.75278H11.7379V8.23269ZM12.4779 11.2705V7.49273H10.998V11.2705H12.4779ZM23.611 10.5306H11.7379V12.0105H23.611V10.5306ZM22.871 7.49273V11.2705H24.3509V7.49273H22.871ZM20.913 15.3876H18.215V16.8675H20.913V15.3876ZM21.653 18.8259V16.1275H20.173V18.8259H21.653ZM18.2146 19.5659H20.913V18.086H18.2146V19.5659ZM17.4746 16.1275V18.8259H18.9545V16.1275H17.4746ZM15.5166 16.8675H18.2146V15.3876H15.5166V16.8675ZM14.7766 13.4291V16.1275H16.2565V13.4291H14.7766ZM18.215 12.6892H15.5166V14.1691H18.215V12.6892ZM18.955 16.1275V13.4291H17.4751V16.1275H18.955ZM18.215 18.0861H15.5166V19.566H18.215V18.0861ZM18.955 21.5245V18.8261H17.4751V21.5245H18.955ZM20.913 20.7845H18.215V22.2644H20.913V20.7845ZM21.653 24.2229V21.5245H20.173V24.2229H21.653ZM18.2146 24.9628H20.913V23.4829H18.2146V24.9628ZM17.4746 21.5245V24.2229H18.9545V21.5245H17.4746ZM15.5166 22.2645H18.2146V20.7845H15.5166V22.2645ZM14.7766 18.8261V21.5245H16.2565V18.8261H14.7766ZM12.8178 16.8675H15.5162V15.3876H12.8178V16.8675ZM13.5577 18.8259V16.1275H12.0778V18.8259H13.5577ZM15.5162 18.086H12.8178V19.5659H15.5162V18.086ZM14.7762 16.1275V18.8259H16.2562V16.1275H14.7762ZM15.5162 20.7845H12.8178V22.2644H15.5162V20.7845ZM16.2562 24.2229V21.5245H14.7762V24.2229H16.2562ZM12.8178 24.9628H15.5162V23.4829H12.8178V24.9628ZM12.0778 21.5245V24.2229H13.5577V21.5245H12.0778Z" fill="#002F56" mask="url(#path-1-inside-1_3078_34261)"/>
</svg>
