<svg width="14" height="16" viewBox="0 0 14 16" fill="none" xmlns="http://www.w3.org/2000/svg">
<g id="Location">
<path id="Fill 1" fill-rule="evenodd" clip-rule="evenodd" d="M7.35661 5.28809C6.59265 5.28809 5.97119 5.90954 5.97119 6.67429C5.97119 7.43825 6.59265 8.05892 7.35661 8.05892C8.12057 8.05892 8.74203 7.43825 8.74203 6.67429C8.74203 5.90954 8.12057 5.28809 7.35661 5.28809ZM7.35661 9.24642C5.93794 9.24642 4.78369 8.09296 4.78369 6.67429C4.78369 5.25484 5.93794 4.10059 7.35661 4.10059C8.77528 4.10059 9.92953 5.25484 9.92953 6.67429C9.92953 8.09296 8.77528 9.24642 7.35661 9.24642Z" fill="black"/>
<g id="Group 5">
<mask id="mask0_84004_2525" style="mask-type:luminance" maskUnits="userSpaceOnUse" x="0" y="0" width="14" height="16">
<path id="Clip 4" fill-rule="evenodd" clip-rule="evenodd" d="M0.824707 0.141602H13.8868V15.5791H0.824707V0.141602Z" fill="white"/>
</mask>
<g mask="url(#mask0_84004_2525)">
<path id="Fill 3" fill-rule="evenodd" clip-rule="evenodd" d="M7.35596 1.3291C4.40937 1.3291 2.01221 3.74923 2.01221 6.72273C2.01221 10.5061 6.46454 14.1921 7.35596 14.3884C8.24737 14.1913 12.6997 10.5053 12.6997 6.72273C12.6997 3.74923 10.3025 1.3291 7.35596 1.3291ZM7.35596 15.5791C5.93571 15.5791 0.824707 11.1838 0.824707 6.72273C0.824707 3.09373 3.75467 0.141602 7.35596 0.141602C10.9572 0.141602 13.8872 3.09373 13.8872 6.72273C13.8872 11.1838 8.77621 15.5791 7.35596 15.5791Z" fill="black"/>
</g>
</g>
</g>
</svg>
