<svg width="20" height="21" viewBox="0 0 20 21" fill="none" xmlns="http://www.w3.org/2000/svg">
<mask id="path-1-inside-1_477_44414" fill="white">
<path d="M15.9856 3C16.4171 3 16.7773 3.14453 17.0664 3.43359C17.3555 3.72266 17.5 4.08293 17.5 4.51441V16.4856C17.5 16.9171 17.3555 17.2773 17.0664 17.5664C16.7773 17.8555 16.4171 18 15.9856 18H9.98197V17.0625L15.9856 17.0625C16.1298 17.0625 16.262 17.0024 16.3822 16.8822C16.5024 16.762 16.5625 16.6298 16.5625 16.4856L16.5625 4.51441C16.5625 4.3702 16.5024 4.23799 16.3822 4.11778C16.262 3.99759 16.1298 3.9375 15.9856 3.9375L9.98198 3.9375V3L15.9856 3ZM5.81732 7.18268L6.47538 7.85698L4.30108 10.0312H12.6322V10.9687L4.30108 10.9687L6.47537 13.143L5.81732 13.8173L2.5 10.5L5.81732 7.18268Z"/>
</mask>
<path d="M15.9856 3C16.4171 3 16.7773 3.14453 17.0664 3.43359C17.3555 3.72266 17.5 4.08293 17.5 4.51441V16.4856C17.5 16.9171 17.3555 17.2773 17.0664 17.5664C16.7773 17.8555 16.4171 18 15.9856 18H9.98197V17.0625L15.9856 17.0625C16.1298 17.0625 16.262 17.0024 16.3822 16.8822C16.5024 16.762 16.5625 16.6298 16.5625 16.4856L16.5625 4.51441C16.5625 4.3702 16.5024 4.23799 16.3822 4.11778C16.262 3.99759 16.1298 3.9375 15.9856 3.9375L9.98198 3.9375V3L15.9856 3ZM5.81732 7.18268L6.47538 7.85698L4.30108 10.0312H12.6322V10.9687L4.30108 10.9687L6.47537 13.143L5.81732 13.8173L2.5 10.5L5.81732 7.18268Z" fill="#002F56"/>
<path d="M15.9856 3V1.8V3ZM17.5 4.51441L16.3 4.51441V4.51441H17.5ZM17.5 16.4856H18.7H17.5ZM15.9856 18V16.8V18ZM9.98197 18H8.78197V19.2H9.98197V18ZM9.98197 17.0625L9.98198 15.8625L8.78197 15.8625V17.0625H9.98197ZM15.9856 17.0625L15.9856 18.2625H15.9856V17.0625ZM16.3822 16.8822L17.2307 17.7308L17.2308 17.7307L16.3822 16.8822ZM16.5625 16.4856H15.3625H16.5625ZM16.5625 4.51441L17.7625 4.51441L16.5625 4.51441ZM16.3822 4.11778L17.2308 3.26931L17.2307 3.2692L16.3822 4.11778ZM15.9856 3.9375V2.7375V3.9375ZM9.98198 3.9375H8.78198V5.1375H9.98198V3.9375ZM9.98198 3L9.98198 1.8L8.78198 1.8V3H9.98198ZM5.81732 7.18268L6.67613 6.34456L5.82773 5.47522L4.96879 6.33415L5.81732 7.18268ZM6.47538 7.85698L7.3239 8.70551L8.16216 7.86726L7.33418 7.01885L6.47538 7.85698ZM4.30108 10.0312L3.45255 9.18272L1.404 11.2312H4.30108V10.0312ZM12.6322 10.0312H13.8322V8.83125H12.6322V10.0312ZM12.6322 10.9687L12.6322 12.1687H13.8322V10.9687H12.6322ZM4.30108 10.9687L4.30108 9.76875L1.404 9.76875L3.45255 11.8173L4.30108 10.9687ZM6.47537 13.143L7.33418 13.9811L8.16216 13.1327L7.3239 12.2945L6.47537 13.143ZM5.81732 13.8173L4.96879 14.6658L5.82773 15.5248L6.67613 14.6554L5.81732 13.8173ZM2.5 10.5L1.65147 9.65147L0.802944 10.5L1.65147 11.3485L2.5 10.5ZM15.9856 4.2C16.1184 4.2 16.1674 4.23161 16.2179 4.28212L17.9149 2.58507C17.3873 2.05745 16.7157 1.8 15.9856 1.8V4.2ZM16.2179 4.28212C16.2684 4.33263 16.3 4.38156 16.3 4.51441L18.7 4.51441C18.7 3.7843 18.4426 3.11268 17.9149 2.58507L16.2179 4.28212ZM16.3 4.51441V16.4856H18.7V4.51441H16.3ZM16.3 16.4856C16.3 16.6184 16.2684 16.6674 16.2179 16.7179L17.9149 18.4149C18.4425 17.8873 18.7 17.2157 18.7 16.4856H16.3ZM16.2179 16.7179C16.1674 16.7684 16.1184 16.8 15.9856 16.8V19.2C16.7157 19.2 17.3873 18.9426 17.9149 18.4149L16.2179 16.7179ZM15.9856 16.8H9.98197V19.2H15.9856V16.8ZM11.182 18V17.0625H8.78197V18H11.182ZM9.98197 18.2625L15.9856 18.2625L15.9856 15.8625L9.98198 15.8625L9.98197 18.2625ZM15.9856 18.2625C16.5044 18.2625 16.9287 18.0327 17.2307 17.7308L15.5337 16.0336C15.5584 16.009 15.6112 15.9637 15.6964 15.925C15.7851 15.8847 15.8852 15.8625 15.9856 15.8625V18.2625ZM17.2308 17.7307C17.5327 17.4287 17.7625 17.0044 17.7625 16.4856H15.3625C15.3625 16.3852 15.3847 16.2851 15.425 16.1964C15.4637 16.1112 15.509 16.0584 15.5336 16.0337L17.2308 17.7307ZM17.7625 16.4856L17.7625 4.51441L15.3625 4.51441L15.3625 16.4856H17.7625ZM17.7625 4.51441C17.7625 3.99558 17.5327 3.57127 17.2308 3.26931L15.5336 4.96625C15.509 4.94163 15.4637 4.88877 15.425 4.80365C15.3847 4.71494 15.3625 4.61484 15.3625 4.51441L17.7625 4.51441ZM17.2307 3.2692C16.9287 2.96727 16.5044 2.7375 15.9856 2.7375V5.1375C15.8852 5.1375 15.7851 5.11534 15.6964 5.07502C15.6112 5.03633 15.5584 4.99098 15.5337 4.96637L17.2307 3.2692ZM15.9856 2.7375L9.98198 2.7375L9.98198 5.1375L15.9856 5.1375V2.7375ZM11.182 3.9375V3H8.78198V3.9375H11.182ZM9.98198 4.2L15.9856 4.2V1.8L9.98198 1.8L9.98198 4.2ZM4.95851 8.0208L5.61657 8.6951L7.33418 7.01885L6.67613 6.34456L4.95851 8.0208ZM5.62685 7.00844L3.45255 9.18272L5.1496 10.8798L7.3239 8.70551L5.62685 7.00844ZM4.30108 11.2312H12.6322V8.83125H4.30108V11.2312ZM11.4322 10.0312V10.9687H13.8322V10.0312H11.4322ZM12.6322 9.76875L4.30108 9.76875L4.30108 12.1687L12.6322 12.1687L12.6322 9.76875ZM3.45255 11.8173L5.62685 13.9916L7.3239 12.2945L5.1496 10.1202L3.45255 11.8173ZM5.61657 12.3049L4.95851 12.9792L6.67613 14.6554L7.33418 13.9811L5.61657 12.3049ZM6.66585 12.9688L3.34853 9.65147L1.65147 11.3485L4.96879 14.6658L6.66585 12.9688ZM3.34853 11.3485L6.66585 8.03121L4.96879 6.33415L1.65147 9.65147L3.34853 11.3485Z" fill="#002F56" mask="url(#path-1-inside-1_477_44414)"/>
</svg>
