<svg width="25" height="25" viewBox="0 0 25 25" fill="none" xmlns="http://www.w3.org/2000/svg">
<g id="notifications_none" clip-path="url(#clip0_670_12404)">
<path id="Vector" d="M19.566 17.3585L18.2731 16.0656V11.0544C18.2731 7.97756 16.6295 5.4018 13.7631 4.72028V4.03876C13.7631 3.2069 13.0916 2.5354 12.2597 2.5354C11.4279 2.5354 10.7564 3.2069 10.7564 4.03876V4.72028C7.87993 5.4018 6.24628 7.96754 6.24628 11.0544V16.0656L4.95339 17.3585C4.32198 17.9899 4.76297 19.0723 5.65496 19.0723H18.8544C19.7565 19.0723 20.1974 17.9899 19.566 17.3585ZM16.2687 17.0679H8.25076V11.0544C8.25076 8.56888 9.76414 6.54436 12.2597 6.54436C14.7553 6.54436 16.2687 8.56888 16.2687 11.0544V17.0679ZM12.2597 22.0791C13.3622 22.0791 14.2642 21.177 14.2642 20.0746H10.2552C10.2552 21.177 11.1472 22.0791 12.2597 22.0791Z" fill="#A3AED0"/>
</g>
<defs>
<clipPath id="clip0_670_12404">
<rect width="24.0537" height="24.0537" fill="white" transform="translate(0.234375 0.0297852)"/>
</clipPath>
</defs>
</svg>
