<svg width="37" height="36" viewBox="0 0 37 36" fill="none" xmlns="http://www.w3.org/2000/svg">
<rect x="0.947266" y="27" width="31.2632" height="2.84211" fill="#002F56" stroke="#002F56"/>
<path fill-rule="evenodd" clip-rule="evenodd" d="M0.947266 6.15771H32.2104V26.9998H0.947266V6.15771Z" stroke="#002F56"/>
<path fill-rule="evenodd" clip-rule="evenodd" d="M5.68359 11.2893H19.1046H5.68359Z" fill="#D1B786"/>
<path d="M5.68359 11.2893H19.1046" stroke="#002F56" stroke-linecap="square" stroke-linejoin="round"/>
<path fill-rule="evenodd" clip-rule="evenodd" d="M22.7363 11.2893H36.1574H22.7363Z" fill="#D1B786"/>
<path d="M22.7363 11.2893H36.1574" stroke="#002F56" stroke-linecap="square" stroke-linejoin="round"/>
<path fill-rule="evenodd" clip-rule="evenodd" d="M18.9473 15.1578H34.1052H18.9473Z" fill="#D1B786"/>
<path d="M18.9473 15.1578H34.1052" stroke="#002F56" stroke-linecap="square" stroke-linejoin="round"/>
<path fill-rule="evenodd" clip-rule="evenodd" d="M22.7363 18.9473H35.0521H22.7363Z" fill="#D1B786"/>
<path d="M22.7363 18.9473H35.0521" stroke="#002F56" stroke-linecap="square" stroke-linejoin="round"/>
<path fill-rule="evenodd" clip-rule="evenodd" d="M17.0527 22.7369H35.0527H17.0527Z" fill="#D1B786"/>
<path d="M17.0527 22.7369H35.0527" stroke="#002F56" stroke-linecap="square" stroke-linejoin="round"/>
<path d="M5.76188 22.2271C5.913 20.7158 7.1847 19.5649 8.70349 19.5649H10.2426C11.7614 19.5649 13.0331 20.7158 13.1843 22.2271L13.2625 23.0099H5.68359L5.76188 22.2271Z" fill="#002F56"/>
<rect x="9.33984" y="14.1411" width="3.44498" height="3.44498" transform="rotate(45 9.33984 14.1411)" fill="#002F56"/>
</svg>
