<svg width="24" height="24" viewBox="0 0 24 24" fill="none" xmlns="http://www.w3.org/2000/svg">
<g id="pdf2-svgrepo-com 1">
<path id="Vector" d="M18.2931 1.98047L22.2974 6.15462V22.0279H7.33887V22.0797H22.3485V6.20715L18.2931 1.98047Z" fill="#909090"/>
<path id="Vector_2" d="M18.2428 1.92871H7.28711V22.028H22.2968V6.1554L18.2428 1.92871Z" fill="#F4F4F4"/>
<path id="Vector_3" d="M7.17688 3.00781H2.57812V7.92107H17.0437V3.00781H7.17688Z" fill="#7A7B7C"/>
<path id="Vector_4" d="M17.1219 7.83776H2.67285V2.9209H17.1219V7.83776Z" fill="#DD2025"/>
<path id="Vector_5" d="M7.46211 3.75195H7.44052H7.29154H6.52148V7.20642H7.26132V6.04126L7.42468 6.05061C7.58342 6.04788 7.74067 6.01945 7.89032 5.96641C8.02152 5.92129 8.14221 5.85004 8.24512 5.75698C8.34983 5.66833 8.43239 5.55645 8.48621 5.43025C8.55839 5.22046 8.58418 4.9975 8.56178 4.77678C8.55729 4.6191 8.52964 4.46294 8.47974 4.3133C8.43431 4.20529 8.36688 4.10791 8.28176 4.02737C8.19664 3.94683 8.09568 3.8849 7.98532 3.84551C7.88989 3.81097 7.7913 3.7859 7.69097 3.77066C7.61499 3.75894 7.53826 3.75269 7.46139 3.75195M7.32537 5.4029H7.26132V4.33777H7.40021C7.46152 4.33335 7.52303 4.34276 7.58021 4.36531C7.63738 4.38786 7.68876 4.42296 7.73055 4.46804C7.81714 4.58391 7.8634 4.72496 7.86225 4.86962C7.86225 5.04666 7.86225 5.20715 7.70248 5.32014C7.58738 5.38344 7.45637 5.41267 7.32537 5.4029Z" fill="#464648"/>
<path id="Vector_6" d="M9.9674 3.74275C9.88752 3.74275 9.80979 3.74851 9.7551 3.75067L9.58381 3.75499H9.02246V7.20945H9.68313C9.93561 7.21638 10.187 7.17358 10.423 7.08351C10.6129 7.00818 10.7811 6.88673 10.9123 6.73015C11.04 6.57214 11.1316 6.38818 11.1808 6.19111C11.2373 5.96791 11.2649 5.73837 11.2628 5.50813C11.2768 5.2362 11.2557 4.96361 11.2002 4.69705C11.1475 4.50084 11.0488 4.32 10.9123 4.16952C10.8052 4.04801 10.6742 3.95 10.5273 3.88165C10.4012 3.8233 10.2686 3.78029 10.1322 3.75355C10.078 3.74459 10.0231 3.7405 9.96812 3.74131M9.83714 6.5747H9.76517V4.36959H9.77453C9.9229 4.35252 10.073 4.37929 10.2063 4.4466C10.304 4.52456 10.3835 4.62278 10.4395 4.73447C10.4999 4.85202 10.5348 4.98104 10.5417 5.11302C10.5482 5.27135 10.5417 5.4009 10.5417 5.50813C10.5446 5.63165 10.5367 5.7552 10.518 5.87733C10.4958 6.00271 10.4548 6.12403 10.3963 6.23717C10.3302 6.34235 10.2408 6.43098 10.1351 6.49625C10.0463 6.55368 9.94115 6.58047 9.8357 6.57254" fill="#464648"/>
<path id="Vector_7" d="M13.493 3.75488H11.7441V7.20935H12.484V5.83908H13.4196V5.19712H12.484V4.39684H13.4915V3.75488" fill="#464648"/>
<path id="Vector_8" d="M16.6232 15.0664C16.6232 15.0664 18.9176 14.6504 18.9176 15.4341C18.9176 16.2179 17.4962 15.899 16.6232 15.0664ZM14.9269 15.1261C14.5624 15.2067 14.2072 15.3246 13.8668 15.478L14.1547 14.8303C14.4426 14.1826 14.7412 13.2996 14.7412 13.2996C15.0848 13.8777 15.4844 14.4206 15.9345 14.9203C15.5951 14.9709 15.2587 15.0401 14.9269 15.1275V15.1261ZM14.0187 10.4482C14.0187 9.7652 14.2396 9.57881 14.4116 9.57881C14.5836 9.57881 14.7772 9.66157 14.7837 10.2546C14.7277 10.8509 14.6028 11.4387 14.4116 12.0063C14.1498 11.5297 14.0142 10.9941 14.018 10.4503L14.0187 10.4482ZM10.6729 18.0163C9.96904 17.5953 12.149 16.2992 12.5441 16.2574C12.5419 16.2582 11.4098 18.4568 10.6729 18.0163ZM19.5876 15.527C19.5804 15.455 19.5156 14.6583 18.0978 14.6921C17.5069 14.6826 16.9162 14.7243 16.3325 14.8166C15.767 14.2469 15.28 13.6044 14.8845 12.9059C15.1337 12.1858 15.2845 11.4353 15.3328 10.6749C15.312 9.81126 15.1054 9.31612 14.4433 9.32332C13.7812 9.33052 13.6848 9.90986 13.7718 10.772C13.8571 11.3514 14.018 11.9171 14.2504 12.4547C14.2504 12.4547 13.9446 13.4068 13.5401 14.3539C13.1356 15.301 12.8593 15.7976 12.8593 15.7976C12.156 16.0265 11.4939 16.3667 10.8982 16.8051C10.3051 17.3571 10.064 17.781 10.3764 18.2049C10.6455 18.5705 11.5876 18.6533 12.4296 17.55C12.877 16.9802 13.2858 16.381 13.6531 15.7565C13.6531 15.7565 14.937 15.4046 15.3364 15.3082C15.7358 15.2117 16.2188 15.1355 16.2188 15.1355C16.2188 15.1355 17.3911 16.315 18.5217 16.2733C19.6523 16.2315 19.5977 15.5975 19.5905 15.5284" fill="#DD2025"/>
<path id="Vector_9" d="M18.1875 1.98438V6.21106H22.2415L18.1875 1.98438Z" fill="#909090"/>
<path id="Vector_10" d="M18.2432 1.92871V6.1554H22.2971L18.2432 1.92871Z" fill="#F4F4F4"/>
<path id="Vector_11" d="M7.40742 3.69727H7.38583H7.23686H6.4668V7.15173H7.20951V5.98729L7.37359 5.99665C7.53234 5.99391 7.68958 5.96548 7.83923 5.91244C7.97042 5.8673 8.09111 5.79606 8.19403 5.70302C8.29796 5.61413 8.37976 5.50226 8.43296 5.37628C8.50514 5.16649 8.53093 4.94354 8.50853 4.72281C8.50404 4.56513 8.47639 4.40897 8.42649 4.25934C8.38106 4.15132 8.31363 4.05394 8.22851 3.9734C8.14339 3.89286 8.04243 3.83093 7.93207 3.79154C7.8362 3.75666 7.73713 3.73135 7.63628 3.71598C7.5603 3.70425 7.48357 3.698 7.4067 3.69727M7.27068 5.34821H7.20663V4.28309H7.34625C7.40755 4.27867 7.46906 4.28808 7.52624 4.31062C7.58342 4.33317 7.63479 4.36828 7.67658 4.41335C7.76317 4.52923 7.80943 4.67028 7.80828 4.81493C7.80828 4.99197 7.80828 5.15246 7.64851 5.26545C7.53341 5.32876 7.4024 5.35726 7.2714 5.34749" fill="white"/>
<path id="Vector_12" d="M9.91251 3.68709C9.83262 3.68709 9.7549 3.69285 9.7002 3.695L9.53108 3.69932H8.96973V7.15379H9.63039C9.88288 7.16071 10.1343 7.11792 10.3702 7.02785C10.5602 6.95251 10.7283 6.83107 10.8596 6.67448C10.9873 6.51648 11.0789 6.33252 11.128 6.13544C11.1846 5.91225 11.2122 5.6827 11.2101 5.45247C11.2241 5.18054 11.203 4.90795 11.1475 4.64138C11.0948 4.44517 10.9961 4.26434 10.8596 4.11386C10.7525 3.99235 10.6214 3.89433 10.4746 3.82599C10.3485 3.76763 10.2158 3.72462 10.0795 3.69788C10.0253 3.68893 9.97034 3.68483 9.91539 3.68565M9.78441 6.51903H9.71244V4.31393H9.72179C9.87016 4.29686 10.0203 4.32363 10.1536 4.39094C10.2512 4.4689 10.3308 4.56711 10.3868 4.67881C10.4472 4.79636 10.482 4.92537 10.489 5.05736C10.4954 5.21569 10.489 5.34523 10.489 5.45247C10.4919 5.57599 10.484 5.69953 10.4652 5.82166C10.443 5.94705 10.402 6.06837 10.3436 6.1815C10.2775 6.28669 10.1881 6.37532 10.0824 6.44059C9.99356 6.49802 9.88841 6.52481 9.78297 6.51687" fill="white"/>
<path id="Vector_13" d="M13.4363 3.7002H11.6875V7.15466H12.4273V5.78439H13.3629V5.14244H12.4273V4.34215H13.4349V3.7002" fill="white"/>
</g>
</svg>
