<svg width="33" height="32" viewBox="0 0 33 32" fill="none" xmlns="http://www.w3.org/2000/svg">
<mask id="path-1-inside-1_3078_2473" fill="white">
<path fill-rule="evenodd" clip-rule="evenodd" d="M10.7224 8.88867H7.61133V21.5052H17.0737L18.7224 24.946L20.3712 21.5052H25.3891V8.88867H22.7224V11.5553H20.5002V8.88867H17.8336V11.5553H15.6113V8.88867H12.9447V11.5553H10.7224V8.88867Z"/>
</mask>
<path d="M7.61133 8.88867V7.88867H6.61133V8.88867H7.61133ZM10.7224 8.88867H11.7224V7.88867H10.7224V8.88867ZM7.61133 21.5052H6.61133V22.5052H7.61133V21.5052ZM17.0737 21.5052L17.9755 21.073L17.7034 20.5052H17.0737V21.5052ZM18.7224 24.946L17.8206 25.3781L18.7224 27.2602L19.6243 25.3781L18.7224 24.946ZM20.3712 21.5052V20.5052H19.7415L19.4694 21.073L20.3712 21.5052ZM25.3891 21.5052V22.5052H26.3891V21.5052H25.3891ZM25.3891 8.88867H26.3891V7.88867H25.3891V8.88867ZM22.7224 8.88867V7.88867H21.7224V8.88867H22.7224ZM22.7224 11.5553V12.5553H23.7224V11.5553H22.7224ZM20.5002 11.5553H19.5002V12.5553H20.5002V11.5553ZM20.5002 8.88867H21.5002V7.88867H20.5002V8.88867ZM17.8336 8.88867V7.88867H16.8336V8.88867H17.8336ZM17.8336 11.5553V12.5553H18.8336V11.5553H17.8336ZM15.6113 11.5553H14.6113V12.5553H15.6113V11.5553ZM15.6113 8.88867H16.6113V7.88867H15.6113V8.88867ZM12.9447 8.88867V7.88867H11.9447V8.88867H12.9447ZM12.9447 11.5553V12.5553H13.9447V11.5553H12.9447ZM10.7224 11.5553H9.72244V12.5553H10.7224V11.5553ZM7.61133 9.88867H10.7224V7.88867H7.61133V9.88867ZM8.61133 21.5052V8.88867H6.61133V21.5052H8.61133ZM17.0737 20.5052H7.61133V22.5052H17.0737V20.5052ZM19.6243 24.5139L17.9755 21.073L16.1719 21.9373L17.8206 25.3781L19.6243 24.5139ZM19.4694 21.073L17.8206 24.5139L19.6243 25.3781L21.273 21.9373L19.4694 21.073ZM25.3891 20.5052H20.3712V22.5052H25.3891V20.5052ZM24.3891 8.88867V21.5052H26.3891V8.88867H24.3891ZM22.7224 9.88867H25.3891V7.88867H22.7224V9.88867ZM21.7224 8.88867V11.5553H23.7224V8.88867H21.7224ZM22.7224 10.5553H20.5002V12.5553H22.7224V10.5553ZM21.5002 11.5553V8.88867H19.5002V11.5553H21.5002ZM17.8336 9.88867H20.5002V7.88867H17.8336V9.88867ZM18.8336 11.5553V8.88867H16.8336V11.5553H18.8336ZM15.6113 12.5553H17.8336V10.5553H15.6113V12.5553ZM14.6113 8.88867V11.5553H16.6113V8.88867H14.6113ZM12.9447 9.88867H15.6113V7.88867H12.9447V9.88867ZM13.9447 11.5553V8.88867H11.9447V11.5553H13.9447ZM10.7224 12.5553H12.9447V10.5553H10.7224V12.5553ZM9.72244 8.88867V11.5553H11.7224V8.88867H9.72244Z" fill="#002F56" mask="url(#path-1-inside-1_3078_2473)"/>
</svg>
