<svg width="16" height="20" viewBox="0 0 16 20" fill="none" xmlns="http://www.w3.org/2000/svg">
<path d="M15 6L15.6 6C15.6 5.84087 15.5368 5.68826 15.4243 5.57574L15 6ZM10 1L10.4243 0.575736C10.3117 0.463214 10.1591 0.4 10 0.4L10 1ZM10 6L9.4 6L9.4 6.6L10 6.6L10 6ZM8 10L8.42426 9.57574L8 9.15147L7.57574 9.57574L8 10ZM9 11L9 11.6L10.4485 11.6L9.42426 10.5757L9 11ZM7 11L6.57574 10.5757L5.55147 11.6L7 11.6L7 11ZM15 18L15.6 18L15 18ZM2 19.6L14 19.6L14 18.4L2 18.4L2 19.6ZM0.4 2L0.399999 18L1.6 18L1.6 2L0.4 2ZM15.6 18L15.6 6L14.4 6L14.4 18L15.6 18ZM10 0.4L2 0.399999L2 1.6L10 1.6L10 0.4ZM15.4243 5.57574L10.4243 0.575736L9.57574 1.42426L14.5757 6.42426L15.4243 5.57574ZM9.4 1L9.4 6L10.6 6L10.6 1L9.4 1ZM10 6.6L15 6.6L15 5.4L10 5.4L10 6.6ZM7.4 10L7.4 16L8.6 16L8.6 10L7.4 10ZM7.57574 10.4243L8.57574 11.4243L9.42426 10.5757L8.42426 9.57574L7.57574 10.4243ZM9 10.4L7 10.4L7 11.6L9 11.6L9 10.4ZM7.42426 11.4243L8.42426 10.4243L7.57574 9.57574L6.57574 10.5757L7.42426 11.4243ZM14 19.6C14.8837 19.6 15.6 18.8837 15.6 18L14.4 18C14.4 18.2209 14.2209 18.4 14 18.4L14 19.6ZM2 18.4C1.77909 18.4 1.6 18.2209 1.6 18L0.399999 18C0.399999 18.8837 1.11634 19.6 2 19.6L2 18.4ZM1.6 2C1.6 1.77909 1.77909 1.6 2 1.6L2 0.399999C1.11634 0.399999 0.4 1.11634 0.4 2L1.6 2Z" fill="#002F56"/>
</svg>
