<svg width="33" height="33" viewBox="0 0 33 33" fill="none" xmlns="http://www.w3.org/2000/svg">
<g id="Icons" clip-path="url(#clip0_2_57175)">
<path id="Icon" d="M21.6038 22.0332L16.2705 16.6998M16.2705 16.6998L10.9371 22.0332M16.2705 16.6998V28.6999M27.4571 25.2198C28.7576 24.5109 29.7849 23.389 30.377 22.0313C30.969 20.6737 31.0921 19.1575 30.7267 17.7221C30.3614 16.2867 29.5284 15.0139 28.3594 14.1044C27.1903 13.195 25.7516 12.7008 24.2705 12.6998H22.5905C22.1869 11.1388 21.4347 9.68963 20.3904 8.46117C19.3461 7.23272 18.0369 6.25698 16.5613 5.60732C15.0856 4.95767 13.4819 4.65099 11.8706 4.71036C10.2594 4.76972 8.68254 5.19358 7.25869 5.95007C5.83484 6.70656 4.601 7.77599 3.64995 9.07796C2.6989 10.3799 2.05537 11.8806 1.76776 13.467C1.48015 15.0535 1.55593 16.6846 1.98941 18.2375C2.42288 19.7905 3.20278 21.225 4.27046 22.4332" stroke="#0B2D48" stroke-width="2.5" stroke-linecap="round" stroke-linejoin="round"/>
</g>
<defs>
<clipPath id="clip0_2_57175">
<rect width="32" height="32" fill="white" transform="translate(0.269531 0.701172)"/>
</clipPath>
</defs>
</svg>
