<svg width="17" height="15" viewBox="0 0 17 15" fill="none" xmlns="http://www.w3.org/2000/svg">
<g id="Wallet">
<path id="Fill 1" fill-rule="evenodd" clip-rule="evenodd" d="M15.575 10.1908H12.539C11.1163 10.1908 9.95827 9.03355 9.95752 7.61155C9.95752 6.18805 11.1155 5.03005 12.539 5.0293H15.575C15.8855 5.0293 16.1375 5.2813 16.1375 5.5918C16.1375 5.9023 15.8855 6.1543 15.575 6.1543H12.539C11.7358 6.15505 11.0825 6.8083 11.0825 7.6108C11.0825 8.41255 11.7365 9.0658 12.539 9.0658H15.575C15.8855 9.0658 16.1375 9.3178 16.1375 9.6283C16.1375 9.9388 15.8855 10.1908 15.575 10.1908Z" fill="black"/>
<path id="Fill 3" fill-rule="evenodd" clip-rule="evenodd" d="M12.8819 8.12695H12.6479C12.3374 8.12695 12.0854 7.87495 12.0854 7.56445C12.0854 7.25395 12.3374 7.00195 12.6479 7.00195H12.8819C13.1924 7.00195 13.4444 7.25395 13.4444 7.56445C13.4444 7.87495 13.1924 8.12695 12.8819 8.12695Z" fill="black"/>
<g id="Group 7">
<mask id="mask0_84004_9666" style="mask-type:luminance" maskUnits="userSpaceOnUse" x="0" y="0" width="17" height="15">
<path id="Clip 6" fill-rule="evenodd" clip-rule="evenodd" d="M0.658203 0.519531H16.1372V14.8992H0.658203V0.519531Z" fill="white"/>
</mask>
<g mask="url(#mask0_84004_9666)">
<path id="Fill 5" fill-rule="evenodd" clip-rule="evenodd" d="M5.15634 1.64453C3.29634 1.64453 1.78284 3.15803 1.78284 5.01803V10.4008C1.78284 12.2608 3.29634 13.7743 5.15634 13.7743H11.6393C13.4993 13.7743 15.0121 12.2608 15.0121 10.4008V5.01803C15.0121 3.15803 13.4993 1.64453 11.6393 1.64453H5.15634ZM11.6392 14.8993H5.15621C2.67597 14.8993 0.657715 12.881 0.657715 10.4008V5.01803C0.657715 2.53703 2.67597 0.519531 5.15621 0.519531H11.6392C14.1195 0.519531 16.137 2.53703 16.137 5.01803V10.4008C16.137 12.881 14.1195 14.8993 11.6392 14.8993Z" fill="black"/>
</g>
</g>
<path id="Fill 8" fill-rule="evenodd" clip-rule="evenodd" d="M8.67181 5.04785H4.62256C4.31206 5.04785 4.06006 4.79585 4.06006 4.48535C4.06006 4.17485 4.31206 3.92285 4.62256 3.92285H8.67181C8.98231 3.92285 9.23431 4.17485 9.23431 4.48535C9.23431 4.79585 8.98231 5.04785 8.67181 5.04785Z" fill="black"/>
</g>
</svg>
