<?xml version="1.0" standalone="no"?>
<!DOCTYPE svg PUBLIC "-//W3C//DTD SVG 1.1//EN" "http://www.w3.org/Graphics/SVG/1.1/DTD/svg11.dtd" >
<svg xmlns="http://www.w3.org/2000/svg">
<metadata>Generated by IcoMoon</metadata>
<defs>
<font id="icomoon" horiz-adv-x="1024">
<font-face units-per-em="1024" ascent="960" descent="-64" />
<missing-glyph horiz-adv-x="1024" />
<glyph unicode="&#x20;" horiz-adv-x="512" d="" />
<glyph unicode="&#xe900;" glyph-name="notification" d="M386.856 653.668c33.273 32.282 78.296 50.332 125.144 50.332s91.87-18.051 125.146-50.332c33.289-32.298 52.083-76.209 52.083-122.105 0-86.187 19.008-140.147 36.881-171.934 8.964-15.953 17.762-26.53 24.013-32.93 3.132-3.204 5.636-5.376 7.219-6.656 0.789-0.64 1.353-1.058 1.647-1.271l0.226-0.162c7.189-4.757 10.428-13.628 7.97-21.879-2.479-8.316-10.159-14.020-18.88-14.020h-472.611c-8.72 0-16.401 5.705-18.88 14.020-2.459 8.252 0.782 17.122 7.969 21.879l0.226 0.162c0.296 0.213 0.858 0.631 1.65 1.271 1.583 1.28 4.087 3.452 7.217 6.656 6.25 6.4 15.048 16.977 24.015 32.93 17.873 31.787 36.879 85.747 36.879 171.934 0 45.896 18.796 89.807 52.085 122.105zM320.599 321.89h382.804c-3.831 5.478-7.761 11.661-11.665 18.607-21.513 38.263-41.894 98.94-41.894 191.066 0 35.181-14.396 69.023-40.196 94.052-25.813 25.046-60.932 39.201-97.647 39.201s-71.834-14.156-97.647-39.201c-25.798-25.030-40.198-58.871-40.198-94.052 0-92.126-20.378-152.802-41.89-191.066-3.907-6.946-7.837-13.129-11.665-18.607zM456.508 217.242c9.348 5.534 21.436 2.479 26.995-6.822 2.829-4.732 6.925-8.721 11.93-11.516 5.009-2.799 10.722-4.292 16.567-4.292s11.558 1.493 16.567 4.292c5.005 2.795 9.101 6.784 11.934 11.516 5.559 9.301 17.643 12.356 26.991 6.822 9.344-5.53 12.416-17.553 6.857-26.854-6.404-10.709-15.556-19.537-26.496-25.647-10.935-6.114-23.296-9.31-35.853-9.31s-24.917 3.196-35.853 9.31c-10.94 6.11-20.092 14.938-26.496 25.647-5.559 9.301-2.487 21.325 6.857 26.854z" />
<glyph unicode="&#xe901;" glyph-name="export-edit-icon" d="M649.839 616.423c4.053 4.056 9.557 6.335 15.292 6.335s11.238-2.279 15.292-6.335c4.058-4.056 6.336-9.557 6.336-15.293s-2.278-11.237-6.336-15.293l-179.452-179.458-40.781-10.193 10.193 40.781 179.456 179.457zM665.131 661.333c-15.966 0-31.279-6.343-42.569-17.633l-183.232-183.233c-2.475-2.475-4.228-5.568-5.073-8.96l-19.289-77.154c-1.643-6.571 0.283-13.525 5.073-18.317 4.791-4.787 11.745-6.716 18.316-5.073l77.15 19.29c3.392 0.849 6.49 2.603 8.96 5.073l183.232 183.234c11.29 11.29 17.634 26.603 17.634 42.57s-6.345 31.28-17.634 42.57c-11.29 11.29-26.603 17.633-42.569 17.633zM356.529 620.422c-15.346 0-30.064-6.096-40.915-16.948s-16.948-25.569-16.948-40.916v-270.028c0-15.347 6.096-30.067 16.948-40.917s25.569-16.947 40.915-16.947h270.026c15.347 0 30.063 6.097 40.913 16.947 10.854 10.85 16.951 25.57 16.951 40.917v135.014c0 10.65-8.636 19.285-19.29 19.285s-19.29-8.636-19.29-19.285v-135.014c0-5.116-2.031-10.022-5.649-13.641-3.614-3.618-8.521-5.649-13.636-5.649h-270.026c-5.115 0-10.022 2.031-13.638 5.649s-5.649 8.525-5.649 13.641v270.028c0 5.116 2.032 10.022 5.649 13.638s8.523 5.649 13.638 5.649h135.012c10.654 0 19.29 8.635 19.29 19.288s-8.636 19.287-19.29 19.287h-135.012z" />
<glyph unicode="&#xe902;" glyph-name="info-2" d="M511.923 661.333c-11.298 0-22.127-4.487-30.114-12.474s-12.476-18.819-12.476-30.114v-170.353c0-11.294 4.489-22.127 12.476-30.114s18.816-12.471 30.114-12.471c11.294 0 22.127 4.484 30.114 12.471s12.471 18.82 12.471 30.114v170.353c0 11.295-4.484 22.127-12.471 30.114s-18.82 12.474-30.114 12.474zM551.104 294.225c-0.934 2.714-2.223 5.291-3.836 7.667l-5.107 6.387c-5.99 5.909-13.594 9.911-21.858 11.503-8.26 1.591-16.811 0.704-24.563-2.56-5.163-2.155-9.916-5.18-14.054-8.943-3.947-3.981-7.070-8.7-9.19-13.888s-3.191-10.743-3.162-16.35c0.068-5.564 1.225-11.063 3.409-16.183 1.911-5.286 4.962-10.082 8.939-14.059 3.972-3.972 8.772-7.027 14.059-8.939 5.099-2.253 10.607-3.418 16.183-3.418 5.572 0 11.085 1.165 16.183 3.418 5.282 1.911 10.082 4.966 14.059 8.939 3.972 3.977 7.023 8.772 8.939 14.059 2.18 5.12 3.337 10.62 3.405 16.183 0.209 2.837 0.209 5.683 0 8.516-0.734 2.718-1.882 5.303-3.405 7.667z" />
<glyph unicode="&#xe903;" glyph-name="Release" d="M672.853 502.187c-20.070 19.951-47.219 31.151-75.52 31.147h-204.373l69.973 70.4c2.039 1.915 3.669 4.228 4.779 6.797 1.114 2.569 1.685 5.338 1.685 8.137s-0.572 5.568-1.685 8.136c-1.109 2.569-2.739 4.882-4.779 6.797-1.916 2.041-4.228 3.667-6.797 4.779s-5.338 1.686-8.137 1.686c-2.799 0-5.568-0.574-8.137-1.686s-4.881-2.738-6.797-4.779l-106.667-106.667c-1.812-2.005-3.256-4.318-4.267-6.827-2.134-5.193-2.134-11.021 0-16.213 0.917-2.432 2.376-4.621 4.267-6.4l106.667-106.667c3.959-3.959 9.331-6.187 14.933-6.187s10.974 2.227 14.933 6.187c3.959 3.959 6.187 9.331 6.187 14.933s-2.227 10.974-6.187 14.933l-69.973 69.973h204.373c16.973 0 33.254-6.741 45.257-18.743s18.743-28.284 18.743-45.257v-149.333c0-5.658 2.249-11.085 6.251-15.083 3.998-4.002 9.425-6.251 15.083-6.251s11.085 2.249 15.087 6.251c3.998 3.998 6.246 9.425 6.246 15.083v149.333c0.004 28.301-11.196 55.45-31.147 75.52z" />
<glyph unicode="&#xe904;" glyph-name="icon-download" d="M704 405.333c-5.658 0-11.085-2.249-15.087-6.246-3.998-4.002-6.246-9.429-6.246-15.087v-85.333c0-5.658-2.249-11.085-6.246-15.087-4.002-3.998-9.429-6.246-15.087-6.246h-298.667c-5.658 0-11.084 2.249-15.085 6.246-4.001 4.002-6.249 9.429-6.249 15.087v85.333c0 5.658-2.248 11.085-6.249 15.087-4 3.998-9.427 6.246-15.085 6.246s-11.084-2.249-15.085-6.246c-4.001-4.002-6.249-9.429-6.249-15.087v-85.333c0-16.973 6.743-33.254 18.745-45.257s28.281-18.743 45.255-18.743h298.667c16.973 0 33.254 6.741 45.257 18.743s18.743 28.284 18.743 45.257v85.333c0 5.658-2.249 11.085-6.246 15.087-4.002 3.998-9.429 6.246-15.087 6.246zM496.853 368.853c2.031-1.941 4.42-3.465 7.040-4.48 2.556-1.131 5.316-1.711 8.107-1.711s5.551 0.58 8.107 1.711c2.62 1.015 5.009 2.539 7.040 4.48l85.333 85.333c4.019 4.019 6.272 9.463 6.272 15.147s-2.253 11.127-6.272 15.147c-4.019 4.019-9.463 6.272-15.147 6.272s-11.127-2.253-15.147-6.272l-48.853-49.067v204.587c0 5.658-2.249 11.084-6.246 15.085-4.002 4.001-9.429 6.249-15.087 6.249s-11.085-2.248-15.087-6.249c-3.998-4-6.246-9.427-6.246-15.085v-204.587l-48.853 49.067c-1.988 1.988-4.352 3.567-6.95 4.642-2.598 1.079-5.385 1.63-8.196 1.63-2.813 0-5.598-0.55-8.197-1.63-2.599-1.075-4.96-2.654-6.95-4.642s-3.567-4.352-4.643-6.95c-1.076-2.598-1.631-5.385-1.631-8.196s0.554-5.598 1.631-8.196c1.076-2.598 2.654-4.962 4.643-6.95l85.333-85.333z" />
<glyph unicode="&#xe905;" glyph-name="no-internet" d="M385.564 609.529l-79.893 80.142c-2.321 2.321-5.076 4.161-8.108 5.417s-6.282 1.902-9.563 1.902c-3.282 0-6.532-0.646-9.564-1.902s-5.787-3.097-8.108-5.417c-4.687-4.687-7.319-11.043-7.319-17.671s2.633-12.984 7.319-17.671l56.498-56.996c-28.698-16.314-55.139-36.312-78.649-59.484-4.635-4.665-7.238-10.971-7.238-17.546s2.602-12.885 7.238-17.549c2.305-2.351 5.054-4.22 8.087-5.504 3.033-1.28 6.291-1.946 9.584-1.963 6.529 0.030 12.786 2.62 17.422 7.219 23.718 23.522 50.917 43.249 80.64 58.489l37.085-38.329c-30.844-13.483-58.875-32.649-82.631-56.499-2.588-2.249-4.684-5.009-6.154-8.107s-2.286-6.468-2.393-9.894c-0.108-3.43 0.495-6.844 1.768-10.027s3.192-6.071 5.635-8.478c2.442-2.406 5.356-4.284 8.558-5.513s6.623-1.783 10.049-1.626c3.426 0.154 6.783 1.015 9.859 2.53s5.808 3.652 8.021 6.272c24.131 24.021 53.532 42.091 85.867 52.762l40.32-40.068c-34.505-6.639-66.231-23.458-91.093-48.286-2.589-2.249-4.684-5.009-6.155-8.107-1.471-3.102-2.286-6.468-2.393-9.899-0.108-3.426 0.495-6.839 1.769-10.022s3.192-6.071 5.634-8.478c2.442-2.411 5.356-4.288 8.558-5.517 3.202-1.225 6.623-1.779 10.049-1.626 3.426 0.158 6.783 1.020 9.859 2.534s5.808 3.648 8.021 6.268c11.468 11.699 25.129 21.022 40.208 27.426 15.074 6.409 31.27 9.775 47.65 9.907 5.252-0.013 10.492-0.427 15.68-1.242l190.647-190.652c2.317-2.33 5.069-4.181 8.102-5.444 3.029-1.267 6.285-1.916 9.57-1.916s6.537 0.649 9.57 1.916c3.034 1.263 5.786 3.115 8.102 5.444 2.33 2.317 4.181 5.069 5.449 8.102 1.263 3.034 1.911 6.285 1.911 9.57s-0.649 6.541-1.911 9.57c-1.267 3.034-3.119 5.786-5.449 8.102l-368.108 367.857zM512 348.446c-14.767 0-29.205-4.382-41.485-12.587-12.275-8.201-21.845-19.866-27.499-33.506-5.649-13.645-7.13-28.659-4.25-43.14 2.88-14.485 9.993-27.789 20.437-38.234 10.441-10.441 23.744-17.553 38.229-20.433s29.495-1.404 43.14 4.25c13.645 5.649 25.306 15.219 33.51 27.499s12.582 26.718 12.582 41.485c0 19.802-7.868 38.793-21.871 52.796s-32.994 21.871-52.796 21.871zM512 248.887c-4.924 0-9.737 1.459-13.828 4.194s-7.283 6.622-9.165 11.17c-1.886 4.548-2.377 9.553-1.417 14.383 0.96 4.826 3.328 9.263 6.81 12.745 3.482 3.477 7.915 5.85 12.745 6.81 4.826 0.96 9.83 0.469 14.379-1.417s8.435-5.073 11.17-9.165c2.735-4.096 4.194-8.909 4.194-13.828 0-6.601-2.62-12.932-7.287-17.6s-10.999-7.292-17.6-7.292zM776.073 537.849c-39.774 39.737-88.009 69.978-141.103 88.466s-109.679 24.746-165.53 18.307c-3.268-0.36-6.434-1.359-9.318-2.942-2.88-1.583-5.423-3.718-7.479-6.284-4.156-5.181-6.080-11.8-5.355-18.401s4.045-12.643 9.229-16.797c5.18-4.154 11.797-6.080 18.398-5.354 48.435 5.527 97.489 0.099 143.543-15.884s87.923-42.111 122.522-76.454c4.685-4.655 11.029-7.253 17.634-7.232 6.605 0.026 12.928 2.671 17.583 7.356 4.655 4.689 7.253 11.029 7.232 17.634-0.026 6.605-2.671 12.932-7.356 17.585zM670.293 432.32c4.732-4.113 10.842-6.289 17.109-6.093s12.228 2.752 16.691 7.155c4.467 4.399 7.104 10.325 7.39 16.589s-1.801 12.403-5.85 17.195c-33.246 33.63-74.812 57.847-120.461 70.185-3.251 1.256-6.733 1.815-10.214 1.641s-6.891-1.079-10.001-2.655c-3.11-1.575-5.854-3.789-8.055-6.49-2.202-2.705-3.81-5.841-4.719-9.207-0.913-3.366-1.105-6.886-0.572-10.33 0.538-3.443 1.788-6.741 3.678-9.668 1.89-2.931 4.378-5.431 7.296-7.339s6.204-3.183 9.647-3.738c37.086-10.283 70.874-30.003 98.061-57.246z" />
<glyph unicode="&#xe906;" glyph-name="List-View" d="M341.333 682.667c-35.346 0-64-28.654-64-64v-74.669c0-35.347 28.654-64.002 64-64.002h341.333c35.345 0 64 28.655 64 64.002v74.669c0 35.346-28.655 64-64 64h-341.333zM320 618.667c0 11.782 9.551 21.333 21.333 21.333h341.333c11.78 0 21.333-9.551 21.333-21.333v-74.669c0-11.782-9.553-21.335-21.333-21.335h-341.333c-11.782 0-21.333 9.553-21.333 21.335v74.669zM341.333 416.004c-35.346 0-64-28.655-64-64v-74.671c0-35.345 28.654-64 64-64h341.333c35.345 0 64 28.655 64 64v74.671c0 35.345-28.655 64-64 64h-341.333zM320 352.004c0 11.78 9.551 21.333 21.333 21.333h341.333c11.78 0 21.333-9.553 21.333-21.333v-74.671c0-11.78-9.553-21.333-21.333-21.333h-341.333c-11.782 0-21.333 9.553-21.333 21.333v74.671z" />
<glyph unicode="&#xe907;" glyph-name="planned-outage" d="M378.88 499.413c5.658-0.734 11.377 0.806 15.897 4.288s7.474 8.614 8.209 14.272c0.736 5.658-0.806 11.375-4.287 15.897s-8.615 7.474-14.273 8.209l-37.547 9.387c-2.737 0.839-5.615 1.119-8.463 0.822s-5.606-1.164-8.112-2.549c-2.506-1.385-4.707-3.261-6.472-5.515s-3.059-4.84-3.804-7.605c-0.745-2.764-0.925-5.65-0.532-8.488 0.394-2.833 1.355-5.564 2.826-8.017 1.47-2.458 3.42-4.595 5.733-6.281 2.313-1.69 4.943-2.893 7.731-3.541l37.547-10.027c1.787-0.597 3.663-0.883 5.547-0.853zM461.227 618.667c1.25-4.654 4.041-8.748 7.915-11.615 3.87-2.866 8.602-4.337 13.419-4.172 1.839-0.295 3.708-0.295 5.547 0 5.414 1.498 10.018 5.071 12.817 9.944 2.795 4.873 3.554 10.652 2.116 16.083l-10.027 37.547c-0.649 2.788-1.856 5.417-3.541 7.731s-3.823 4.263-6.281 5.733c-2.453 1.471-5.184 2.432-8.017 2.826-2.837 0.394-5.722 0.213-8.486-0.532s-5.355-2.039-7.607-3.804c-2.253-1.765-4.13-3.966-5.513-6.472-1.387-2.505-2.253-5.264-2.551-8.112-0.294-2.848-0.017-5.726 0.823-8.463l9.387-36.693zM564.267 405.333c-1.993 2.099-4.39 3.767-7.053 4.911-2.658 1.139-5.521 1.728-8.414 1.728s-5.756-0.589-8.418-1.728c-2.658-1.143-5.056-2.812-7.049-4.911l-74.667-75.947c-8.781-8.422-20.476-13.124-32.64-13.124-12.166 0-23.861 4.702-32.64 13.124-4.321 4.267-7.753 9.348-10.095 14.95-2.342 5.606-3.548 11.618-3.548 17.69s1.206 12.083 3.548 17.69c2.342 5.602 5.773 10.684 10.095 14.95l75.947 74.667c2.231 1.911 4.045 4.267 5.329 6.912 1.28 2.645 1.997 5.53 2.112 8.469 0.115 2.935-0.384 5.867-1.455 8.606-1.071 2.735-2.701 5.222-4.779 7.3s-4.565 3.708-7.3 4.779c-2.739 1.075-5.67 1.57-8.606 1.455-2.94-0.115-5.824-0.832-8.469-2.112-2.645-1.284-5.001-3.098-6.912-5.329l-76.587-74.453c-8.292-8.294-14.871-18.138-19.358-28.971-4.488-10.837-6.798-22.447-6.798-34.176s2.31-23.339 6.798-34.176c4.488-10.833 11.066-20.676 19.358-28.971s18.137-14.869 28.972-19.358c10.835-4.489 22.447-6.797 34.175-6.797s23.339 2.308 34.176 6.797c10.833 4.489 20.676 11.063 28.971 19.358l75.307 75.307c2.163 1.997 3.891 4.42 5.077 7.121 1.182 2.697 1.792 5.611 1.792 8.559 0 2.944-0.61 5.862-1.792 8.559-1.186 2.697-2.914 5.124-5.077 7.121zM387.84 584.747c3.974-3.942 9.337-6.163 14.933-6.187 2.808-0.016 5.591 0.522 8.19 1.583s4.963 2.626 6.956 4.603c3.974 3.997 6.204 9.404 6.204 15.040s-2.23 11.043-6.204 15.040l-27.52 27.52c-4.081 3.495-9.331 5.321-14.7 5.114s-10.462-2.433-14.262-6.232c-3.799-3.799-6.025-8.893-6.232-14.262s1.619-10.618 5.114-14.7l27.52-27.52zM730.88 428.373l-37.547 10.027c-2.782 0.96-5.734 1.335-8.67 1.101s-5.79-1.071-8.384-2.462c-2.594-1.391-4.873-3.307-6.69-5.619-1.818-2.317-3.14-4.983-3.878-7.834s-0.879-5.82-0.41-8.725c0.465-2.91 1.527-5.687 3.119-8.162 1.591-2.479 3.682-4.599 6.131-6.229 2.453-1.63 5.214-2.731 8.115-3.243l37.547-10.027h5.547c5.658-0.734 11.375 0.806 15.898 4.288 4.518 3.482 7.475 8.614 8.209 14.272s-0.806 11.375-4.288 15.898c-3.482 4.518-8.614 7.475-14.272 8.209l-0.427-1.493zM605.44 320c-0.742 2.705-2.005 5.235-3.729 7.45-1.719 2.214-3.857 4.070-6.293 5.457-2.441 1.387-5.124 2.278-7.906 2.628-2.786 0.346-5.606 0.141-8.311-0.602-5.414-1.498-10.018-5.073-12.817-9.946-2.795-4.873-3.554-10.65-2.116-16.081l10.027-37.547c1.25-4.655 4.041-8.747 7.915-11.614 3.87-2.867 8.602-4.339 13.419-4.173 1.843-0.209 3.703-0.209 5.547 0 2.722 0.717 5.278 1.967 7.518 3.678 2.236 1.711 4.113 3.849 5.521 6.285 1.408 2.441 2.321 5.137 2.684 7.927 0.358 2.795 0.166 5.632-0.576 8.35l-10.88 38.187zM678.827 353.493c-4.083 3.494-9.331 5.321-14.699 5.116-5.372-0.209-10.462-2.436-14.263-6.234-3.797-3.802-6.025-8.892-6.234-14.263-0.205-5.367 1.621-10.62 5.116-14.699l27.52-27.52c3.998-3.972 9.404-6.204 15.040-6.204s11.042 2.231 15.040 6.204c3.972 3.998 6.204 9.404 6.204 15.040s-2.231 11.042-6.204 15.040l-27.52 27.52zM729.6 576c0.333 17.74-4.663 35.172-14.336 50.046-9.677 14.874-23.586 26.506-39.936 33.396s-34.394 8.719-51.793 5.254c-17.399-3.465-33.365-12.067-45.828-24.695l-75.307-75.947c-2.018-2.031-3.614-4.44-4.702-7.088-1.084-2.648-1.638-5.485-1.63-8.347s0.585-5.695 1.69-8.336c1.105-2.641 2.718-5.039 4.749-7.055 2.031-2.018 4.437-3.614 7.087-4.702 2.65-1.084 5.487-1.638 8.35-1.63s5.692 0.585 8.333 1.69c2.641 1.105 5.039 2.718 7.057 4.749l74.667 75.947c8.781 8.422 20.476 13.126 32.64 13.126s23.859-4.703 32.64-13.126c4.322-4.267 7.753-9.349 10.095-14.952s3.546-11.615 3.546-17.688c0-6.073-1.203-12.085-3.546-17.688s-5.773-10.685-10.095-14.952l-75.947-74.667c-3.972-3.998-6.204-9.404-6.204-15.040s2.231-11.042 6.204-15.040c3.998-3.972 9.404-6.204 15.040-6.204s11.042 2.231 15.040 6.204l76.587 74.453c16.329 16.631 25.515 38.985 25.6 62.293z" />
<glyph unicode="&#xe908;" glyph-name="log-out" d="M535.582 680.73c0 12.852-10.509 23.27-23.467 23.27-12.962 0-23.467-10.418-23.467-23.27v-232.696c0-12.851 10.505-23.266 23.467-23.266 12.958 0 23.467 10.415 23.467 23.266v232.696zM379.231 556.305c9.163 9.089 9.161 23.822-0.005 32.908s-24.024 9.084-33.187-0.005c-32.811-32.546-55.153-74.008-64.202-119.145s-4.397-91.921 13.367-134.434c17.763-42.513 47.841-78.852 86.43-104.418s83.957-39.211 130.366-39.211c46.409 0 91.776 13.645 130.364 39.211 38.592 25.566 68.668 61.905 86.434 104.418 17.762 42.513 22.413 89.297 13.363 134.434-9.045 45.137-31.39 86.599-64.201 119.145-9.161 9.089-24.021 9.091-33.186 0.005s-9.169-23.819-0.004-32.908c26.249-26.036 44.122-59.205 51.362-95.318 7.236-36.109 3.516-73.532-10.697-107.546-14.208-34.014-38.272-63.083-69.141-83.533-30.874-20.454-67.166-31.369-104.294-31.369s-73.421 10.914-104.293 31.369c-30.871 20.45-54.933 49.519-69.144 83.533s-17.932 71.437-10.694 107.546c7.239 36.113 25.113 69.282 51.361 95.318zM379.226 589.213v0zM379.231 556.305v0zM346.039 589.208v0zM281.837 470.063v0zM295.204 335.629v0zM381.634 231.211v0zM642.364 231.211v0zM728.798 335.629v0zM742.161 470.063v0zM677.961 589.208v0zM644.774 589.213v0zM644.77 556.305v0zM696.132 460.988v0zM685.436 353.442v0zM616.294 269.909v0zM407.707 269.909v0zM338.563 353.442v0zM327.869 460.988v0zM512.115 693.333c7.155 0 12.8-5.727 12.8-12.603h21.333c0 18.827-15.369 33.936-34.133 33.936v-21.333zM499.315 680.73c0 6.876 5.645 12.603 12.8 12.603v21.333c-18.769 0-34.133-15.109-34.133-33.936h21.333zM499.315 448.034v232.696h-21.333v-232.696h21.333zM512.115 435.435c-7.155 0-12.8 5.726-12.8 12.599h-21.333c0-18.825 15.364-33.933 34.133-33.933v21.333zM524.915 448.034c0-6.874-5.645-12.599-12.8-12.599v-21.333c18.765 0 34.133 15.108 34.133 33.933h-21.333zM524.915 680.73v-232.696h21.333v232.696h-21.333zM371.716 581.638c4.957-4.913 4.958-12.844 0.003-17.76l15.024-15.146c13.37 13.262 13.367 34.799-0.008 48.056l-15.019-15.151zM353.551 581.635c5.005 4.965 13.159 4.966 18.166 0.003l15.019 15.151c-13.325 13.208-34.888 13.205-48.208-0.008l15.024-15.146zM292.296 467.968c8.63 43.051 29.942 82.607 61.255 113.667l-15.024 15.146c-34.309-34.032-57.682-77.4-67.148-124.619l20.917-4.194zM305.046 339.742c-16.945 40.555-21.38 85.175-12.75 128.226l-20.917 4.194c-9.467-47.223-4.599-96.171 13.983-140.646l19.684 8.226zM387.526 240.102c-36.837 24.405-65.535 59.085-82.48 99.639l-19.684-8.226c18.582-44.471 50.040-82.47 90.382-109.197l11.782 17.783zM512 202.667c-44.318 0-87.637 13.030-124.474 37.436l-11.782-17.783c40.34-26.726 87.758-40.986 136.257-40.986v21.333zM636.476 240.102c-36.838-24.405-80.158-37.436-124.476-37.436v-21.333c48.499 0 95.915 14.259 136.256 40.986l-11.78 17.783zM718.955 339.742c-16.947-40.555-45.645-75.234-82.479-99.639l11.78-17.783c40.341 26.726 71.799 64.725 90.381 109.197l-19.682 8.226zM731.703 467.968c8.631-43.051 4.194-87.671-12.749-128.226l19.682-8.226c18.586 44.476 23.45 93.423 13.986 140.646l-20.919-4.194zM670.451 581.635c31.313-31.060 52.625-70.617 61.252-113.667l20.919 4.194c-9.468 47.219-32.841 90.587-67.149 124.619l-15.023-15.146zM652.284 581.638c5.009 4.963 13.163 4.962 18.167-0.003l15.023 15.146c-13.321 13.213-34.884 13.216-48.209 0.008l15.019-15.151zM652.279 563.878c-4.954 4.916-4.954 12.846 0.004 17.76l-15.019 15.151c-13.376-13.258-13.376-34.794-0.009-48.056l15.023 15.146zM706.59 463.087c-7.659 38.195-26.56 73.269-54.31 100.791l-15.023-15.146c24.751-24.551 41.596-55.817 48.414-89.84l20.919 4.194zM695.279 349.329c15.031 35.972 18.965 75.563 11.311 113.758l-20.919-4.194c6.822-34.022 3.315-69.286-10.074-101.338l19.682-8.226zM622.182 261.013c32.627 21.615 58.069 52.343 73.097 88.316l-19.682 8.226c-13.393-32.055-36.075-59.465-65.195-78.754l11.78-17.788zM512 227.874c39.215 0 77.559 11.529 110.182 33.139l-11.78 17.788c-29.12-19.294-63.364-29.594-98.402-29.594v-21.333zM401.816 261.013c32.624-21.611 70.964-33.139 110.184-33.139v21.333c-35.038 0-69.282 10.3-98.402 29.594l-11.782-17.788zM328.721 349.329c15.030-35.972 40.471-66.701 73.096-88.316l11.782 17.788c-29.119 19.29-51.801 46.699-65.194 78.754l-19.684-8.226zM317.411 463.087c-7.657-38.195-3.72-77.786 11.31-113.758l19.684 8.226c-13.392 32.051-16.897 67.315-10.077 101.338l-20.917 4.194zM371.719 563.878c-27.747-27.523-46.651-62.596-54.308-100.791l20.917-4.194c6.821 34.022 23.664 65.289 48.415 89.84l-15.024 15.146z" />
<glyph unicode="&#xe909;" glyph-name="Provider-State" d="M710.827 612.764l-128 47.378h-1.493c-0.994 0.111-1.993 0.111-2.987 0h-9.173l-121.173-46.193-121.173 46.193c-3.208 1.175-6.622 1.487-9.96 0.91s-6.505-2.025-9.24-4.227c-2.757-2.18-5.008-5.056-6.566-8.393s-2.379-7.037-2.394-10.795v-331.649c-0.012-4.966 1.383-9.809 3.986-13.85 2.603-4.036 6.284-7.066 10.521-8.653l128-47.377c4.297-1.557 8.93-1.557 13.227 0l121.6 45.009 121.173-46.195c2.266-0.341 4.561-0.341 6.827 0 4.459-0.068 8.815 1.515 12.373 4.501 2.756 2.18 5.009 5.056 6.566 8.393s2.377 7.036 2.394 10.795v331.648c0.013 4.966-1.382 9.811-3.985 13.85s-6.285 7.066-10.522 8.655zM426.667 291.541l-85.333 31.505v281.663l85.333-31.506v-281.661zM554.667 323.046l-85.333-31.505v281.661l85.333 31.506v-281.663zM682.667 291.541l-85.333 31.505v281.663l85.333-31.506v-281.661z" />
<glyph unicode="&#xe90a;" glyph-name="Claim-Number" d="M405.333 277.333h-64v2.133c0 10.667 8.533 19.2 19.2 19.2 29.867 0 55.467 19.2 64 46.933 8.533 34.133-10.667 70.4-44.8 78.933-27.733 8.533-57.6-4.267-72.533-29.867-6.4-10.667-2.133-23.467 8.533-29.867s23.467-2.133 29.867 8.533c6.4 10.667 19.2 12.8 29.867 6.4 2.133-2.133 4.267-2.133 4.267-4.267 4.267-6.4 4.267-12.8 4.267-19.2-4.267-8.533-12.8-14.933-21.333-14.933-36.267 0-64-27.733-64-61.867v-23.467c0-12.8 8.533-21.333 21.333-21.333h85.333c12.8 0 21.333 8.533 21.333 21.333s-8.533 21.333-21.333 21.333zM405.333 512h-21.333v128c0 12.8-8.533 21.333-21.333 21.333s-21.333-8.533-21.333-21.333v-21.333h-21.333c-12.8 0-21.333-8.533-21.333-21.333s8.533-21.333 21.333-21.333h21.333v-64h-21.333c-12.8 0-21.333-8.533-21.333-21.333s8.533-21.333 21.333-21.333h85.333c12.8 0 21.333 8.533 21.333 21.333s-8.533 21.333-21.333 21.333zM490.667 576h213.333c12.8 0 21.333 8.533 21.333 21.333s-8.533 21.333-21.333 21.333h-213.333c-12.8 0-21.333-8.533-21.333-21.333s8.533-21.333 21.333-21.333zM704 277.333h-213.333c-12.8 0-21.333-8.533-21.333-21.333s8.533-21.333 21.333-21.333h213.333c12.8 0 21.333 8.533 21.333 21.333s-8.533 21.333-21.333 21.333zM704 512h-213.333c-12.8 0-21.333-8.533-21.333-21.333s8.533-21.333 21.333-21.333h213.333c12.8 0 21.333 8.533 21.333 21.333s-8.533 21.333-21.333 21.333zM704 384h-213.333c-12.8 0-21.333-8.533-21.333-21.333s8.533-21.333 21.333-21.333h213.333c12.8 0 21.333 8.533 21.333 21.333s-8.533 21.333-21.333 21.333z" />
<glyph unicode="&#xe90b;" glyph-name="URL-not-found1" d="M512 362.667c-4.22 0-8.346-1.25-11.853-3.597-3.507-2.342-6.242-5.675-7.855-9.574-1.617-3.895-2.039-8.188-1.216-12.322 0.823-4.139 2.854-7.94 5.837-10.927 2.987-2.982 6.788-5.013 10.927-5.837 4.134-0.823 8.427-0.401 12.322 1.216 3.9 1.613 7.232 4.348 9.574 7.855 2.347 3.507 3.597 7.633 3.597 11.853 0 5.658-2.249 11.085-6.246 15.087-4.002 3.998-9.429 6.246-15.087 6.246zM739.627 331.307l-171.733 298.667c-5.551 9.952-13.658 18.241-23.484 24.012s-21.013 8.813-32.41 8.813c-11.396 0-22.583-3.043-32.41-8.813s-17.933-14.060-23.484-24.012l-170.667-298.667c-5.743-9.685-8.829-20.715-8.946-31.974s2.738-22.353 8.278-32.154c5.54-9.805 13.568-17.971 23.275-23.68s20.747-8.755 32.007-8.832h343.893c11.349-0.111 22.528 2.799 32.384 8.427 9.852 5.632 18.035 13.786 23.701 23.62s8.614 21.001 8.546 32.35c-0.073 11.354-3.162 22.481-8.951 32.243zM702.72 288.64c-1.869-3.328-4.599-6.093-7.902-8.004-3.302-1.916-7.057-2.906-10.871-2.876h-343.893c-3.817-0.030-7.571 0.96-10.873 2.876-3.302 1.911-6.030 4.676-7.9 8.004-1.873 3.243-2.858 6.921-2.858 10.667s0.986 7.424 2.858 10.667l170.667 298.667c1.792 3.494 4.51 6.427 7.859 8.475s7.202 3.131 11.127 3.131c3.925 0 7.778-1.083 11.127-3.131s6.067-4.98 7.859-8.475l171.733-298.667c2.116-3.196 3.332-6.903 3.52-10.735 0.188-3.827-0.661-7.637-2.453-11.025v0.427zM512 533.333c-5.658 0-11.085-2.249-15.087-6.246-3.998-4.002-6.246-9.429-6.246-15.087v-85.333c0-5.658 2.249-11.085 6.246-15.087 4.002-3.998 9.429-6.246 15.087-6.246s11.085 2.249 15.087 6.246c3.998 4.002 6.246 9.429 6.246 15.087v85.333c0 5.658-2.249 11.085-6.246 15.087-4.002 3.998-9.429 6.246-15.087 6.246z" />
<glyph unicode="&#xe90c;" glyph-name="icon-minus-round" d="M512 704c-50.633 0-100.127-15.014-142.226-43.144s-74.911-68.111-94.287-114.889c-19.376-46.78-24.446-98.253-14.568-147.908 9.878-49.66 34.26-95.275 70.062-131.076 35.802-35.806 81.417-60.186 131.078-70.063 49.655-9.877 101.129-4.809 147.908 14.566 46.78 19.379 86.758 52.19 114.889 94.289s43.145 91.593 43.145 142.225c0 33.617-6.622 66.906-19.486 97.967s-31.723 59.281-55.497 83.052c-23.77 23.772-51.989 42.629-83.051 55.494s-64.35 19.487-97.967 19.487v0zM512 243.2c-40.503 0-80.102 12.011-113.781 34.513-33.679 22.507-59.929 54.49-75.43 91.913s-19.557 78.601-11.654 118.327c7.902 39.727 27.408 76.221 56.049 104.862s65.135 48.147 104.862 56.049c39.727 7.902 80.905 3.846 118.327-11.654s69.406-41.751 91.913-75.43c22.502-33.679 34.513-73.273 34.513-113.781 0-54.315-21.577-106.406-59.985-144.815s-90.5-59.985-144.815-59.985v0zM614.4 473.6h-204.8c-6.79 0-13.301-2.697-18.102-7.497-4.801-4.804-7.498-11.315-7.498-18.103s2.697-13.299 7.498-18.103c4.801-4.8 11.312-7.497 18.102-7.497h204.8c6.788 0 13.299 2.697 18.103 7.497 4.8 4.804 7.497 11.315 7.497 18.103s-2.697 13.299-7.497 18.103c-4.804 4.8-11.315 7.497-18.103 7.497z" />
<glyph unicode="&#xe90d;" glyph-name="icon-plus-round" d="M512 704c-50.633 0-100.127-15.014-142.226-43.144s-74.911-68.111-94.287-114.889c-19.376-46.78-24.446-98.253-14.568-147.908 9.878-49.66 34.26-95.275 70.062-131.076 35.802-35.806 81.417-60.186 131.078-70.063 49.655-9.877 101.129-4.809 147.908 14.566 46.78 19.379 86.758 52.19 114.889 94.289s43.145 91.593 43.145 142.225c0 33.617-6.622 66.906-19.486 97.967-12.868 31.060-31.723 59.281-55.497 83.052-23.77 23.772-51.989 42.629-83.051 55.494s-64.35 19.487-97.967 19.487zM512 243.2c-40.503 0-80.102 12.011-113.781 34.513-33.679 22.507-59.929 54.49-75.43 91.913s-19.557 78.601-11.654 118.327c7.902 39.727 27.408 76.221 56.049 104.862s65.135 48.147 104.862 56.049c39.727 7.902 80.905 3.846 118.327-11.654s69.406-41.751 91.913-75.43c22.502-33.679 34.513-73.273 34.513-113.781 0-54.315-21.577-106.406-59.985-144.815s-90.5-59.985-144.815-59.985zM614.4 473.6h-204.8c-6.79 0-13.301-2.697-18.102-7.497-4.801-4.804-7.498-11.315-7.498-18.103s2.697-13.299 7.498-18.103c4.801-4.8 11.312-7.497 18.102-7.497h204.8c6.788 0 13.299 2.697 18.103 7.497 4.8 4.804 7.497 11.315 7.497 18.103s-2.697 13.299-7.497 18.103c-4.804 4.8-11.315 7.497-18.103 7.497zM768 448c0 50.633-15.014 100.127-43.145 142.226s-68.109 74.911-114.889 94.287c-46.78 19.376-98.253 24.446-147.908 14.568-49.661-9.878-95.276-34.26-131.078-70.062s-60.184-81.417-70.062-131.078c-9.878-49.655-4.808-101.129 14.568-147.908s52.189-86.758 94.287-114.889c42.099-28.13 91.593-43.145 142.226-43.145 33.617 0 66.906 6.622 97.967 19.486 31.061 12.868 59.281 31.723 83.051 55.497 23.774 23.77 42.628 51.989 55.497 83.051 12.864 31.061 19.486 64.35 19.486 97.967zM307.2 448c0 40.503 12.012 80.102 34.515 113.781s54.489 59.929 91.91 75.43c37.423 15.501 78.601 19.557 118.327 11.654s76.22-27.408 104.862-56.049c28.642-28.642 48.149-65.135 56.051-104.862s3.844-80.905-11.657-118.327c-15.501-37.423-41.749-69.406-75.43-91.913-33.677-22.502-73.271-34.513-113.779-34.513-54.315 0-106.408 21.577-144.815 59.985s-59.985 90.5-59.985 144.815zM537.6 345.6v204.8c0 6.79-2.697 13.301-7.497 18.102-4.804 4.801-11.315 7.498-18.103 7.498s-13.299-2.697-18.103-7.498c-4.8-4.801-7.497-11.312-7.497-18.102v-204.8c0-6.788 2.697-13.299 7.497-18.103 4.804-4.8 11.315-7.497 18.103-7.497s13.299 2.697 18.103 7.497c4.8 4.804 7.497 11.315 7.497 18.103z" />
<glyph unicode="&#xe90e;" glyph-name="Tile-View" d="M437.333 672h-99.555c-13.202 0-25.863-5.245-35.198-14.58s-14.58-21.996-14.58-35.198v-99.555c0-13.201 5.245-25.865 14.58-35.2 9.335-9.331 21.996-14.579 35.198-14.579h99.555c13.201 0 25.865 5.248 35.2 14.579 9.331 9.335 14.579 21.999 14.579 35.2v99.555c0 13.202-5.248 25.863-14.579 35.198-9.335 9.335-21.999 14.58-35.2 14.58zM337.778 522.667v99.555h99.555v-99.555h-99.555zM686.221 672h-99.554c-13.201 0-25.865-5.245-35.2-14.58-9.331-9.335-14.579-21.996-14.579-35.198v-99.555c0-13.201 5.248-25.865 14.579-35.2 9.335-9.331 21.999-14.579 35.2-14.579h99.554c13.205 0 25.865 5.248 35.2 14.579 9.335 9.335 14.579 21.999 14.579 35.2v99.555c0 13.202-5.244 25.863-14.579 35.198s-21.995 14.58-35.2 14.58zM586.667 522.667v99.555h99.554v-99.555h-99.554zM437.333 423.113h-99.555c-13.202 0-25.863-5.244-35.198-14.579s-14.58-21.999-14.58-35.2v-99.554c0-13.201 5.245-25.865 14.58-35.2s21.996-14.579 35.198-14.579h99.555c13.201 0 25.865 5.244 35.2 14.579 9.331 9.335 14.579 21.999 14.579 35.2v99.554c0 13.201-5.248 25.865-14.579 35.2-9.335 9.335-21.999 14.579-35.2 14.579zM337.778 273.779v99.554h99.555v-99.554h-99.555zM686.221 423.113h-99.554c-13.201 0-25.865-5.244-35.2-14.579-9.331-9.335-14.579-21.999-14.579-35.2v-99.554c0-13.201 5.248-25.865 14.579-35.2 9.335-9.335 21.999-14.579 35.2-14.579h99.554c13.205 0 25.865 5.244 35.2 14.579s14.579 21.999 14.579 35.2v99.554c0 13.201-5.244 25.865-14.579 35.2s-21.995 14.579-35.2 14.579zM586.667 273.779v99.554h99.554v-99.554h-99.554z" />
<glyph unicode="&#xe90f;" glyph-name="Delete" d="M440.909 670.737c4.945 4.854 11.746 7.663 18.94 7.663h104.294c7.194 0 13.995-2.809 18.94-7.663 4.928-4.839 7.612-11.3 7.612-17.937v-25.6h-157.393v25.6c0 6.636 2.679 13.098 7.607 17.937zM382.1 627.2h-104.767c-14.138 0-25.6-11.462-25.6-25.6s11.462-25.6 25.6-25.6h26.545v-332.8c0-20.523 8.308-40.107 22.939-54.473 14.615-14.349 34.339-22.327 54.809-22.327h260.742c20.467 0 40.192 7.979 54.81 22.327 14.63 14.366 22.938 33.95 22.938 54.473v332.8h26.551c14.14 0 25.6 11.462 25.6 25.6s-11.46 25.6-25.6 25.6h-104.772v25.6c0 20.522-8.311 40.106-22.942 54.471-14.613 14.35-34.338 22.329-54.81 22.329h-104.294c-20.471 0-40.195-7.98-54.81-22.329-14.631-14.365-22.939-33.949-22.939-54.471v-25.6zM355.078 243.2v332.8h313.838v-332.8c0-6.635-2.679-13.099-7.607-17.937-4.945-4.855-11.75-7.663-18.94-7.663h-260.742c-7.191 0-13.995 2.807-18.939 7.663-4.928 4.838-7.609 11.302-7.609 17.937zM459.853 499.268c-14.135 0-25.6-11.46-25.6-25.6v-153.6c0-14.14 11.465-25.6 25.6-25.6 14.14 0 25.6 11.46 25.6 25.6v153.6c0 14.14-11.46 25.6-25.6 25.6zM589.747 473.668v-153.6c0-14.14-11.465-25.6-25.6-25.6-14.14 0-25.6 11.46-25.6 25.6v153.6c0 14.14 11.46 25.6 25.6 25.6 14.135 0 25.6-11.46 25.6-25.6z" />
<glyph unicode="&#xe910;" glyph-name="Edit-Iocn" d="M760.892 566.471c0.017 3.276-0.61 6.522-1.847 9.555s-3.063 5.791-5.372 8.116l-105.527 105.529c-2.325 2.307-5.086 4.131-8.115 5.37-3.034 1.239-6.281 1.867-9.557 1.847-3.277 0.019-6.524-0.609-9.553-1.847-3.034-1.239-5.79-3.063-8.119-5.37l-342.469-342.471c-2.307-2.325-4.132-5.082-5.37-8.115s-1.866-6.281-1.847-9.557v-105.527c0-6.601 2.622-12.932 7.29-17.6s10.998-7.287 17.599-7.287h105.529c3.482-0.192 6.966 0.354 10.225 1.596 3.259 1.246 6.22 3.157 8.691 5.619l270.54 272.038 70.686 69.19c2.274 2.412 4.122 5.189 5.474 8.213 0.243 1.984 0.243 3.99 0 5.973 0.119 1.159 0.119 2.326 0 3.485l1.745 1.245zM383.326 248.887h-70.435v70.438l247.148 247.145 70.434-70.437-247.146-247.147zM665.566 531.127l-70.434 70.437 35.341 35.093 70.187-70.187-35.093-35.344z" />
<glyph unicode="&#xe911;" glyph-name="sort-icon" d="M680.658 381.655l-219.648-220.16-219.648 220.16c-9.641 9.641-22.717 15.058-36.352 15.058s-26.711-5.417-36.352-15.058c-9.641-9.641-15.058-22.717-15.058-36.352s5.416-26.711 15.058-36.352l256-256c4.76-4.798 10.422-8.608 16.662-11.208s12.931-3.937 19.69-3.937c6.758 0 13.45 1.338 19.689 3.937s11.902 6.409 16.663 11.208l256 256c4.773 4.774 8.561 10.441 11.144 16.679s3.913 12.922 3.913 19.673-1.329 13.436-3.913 19.674c-2.584 6.237-6.371 11.904-11.144 16.678s-10.442 8.561-16.679 11.144-12.922 3.914-19.673 3.914c-6.751 0-13.437-1.33-19.674-3.914s-11.904-6.37-16.678-11.144zM241.362 616.151l219.648 220.16 219.648-220.16c4.76-4.798 10.422-8.608 16.662-11.207s12.931-3.938 19.69-3.938c6.758 0 13.45 1.338 19.689 3.938s11.902 6.408 16.663 11.207c4.798 4.76 8.608 10.422 11.207 16.662s3.937 12.931 3.937 19.69-1.337 13.451-3.937 19.69c-2.599 6.239-6.408 11.902-11.207 16.662l-256 256c-4.761 4.799-10.423 8.608-16.663 11.207s-12.931 3.938-19.689 3.938c-6.759 0-13.451-1.338-19.69-3.938s-11.902-6.408-16.662-11.207l-256-256c-9.641-9.641-15.058-22.717-15.058-36.352s5.416-26.711 15.058-36.352c9.641-9.641 22.717-15.057 36.352-15.057s26.711 5.416 36.352 15.057z" />
<glyph unicode="&#xe912;" glyph-name="Edit" d="M46.929-64c-0.084-0.001-0.183-0.001-0.282-0.001-12.656 0-24.142 5.010-32.583 13.154l0.014-0.013c-9.554 8.467-15.545 20.769-15.545 34.47 0 4.094 0.535 8.063 1.539 11.841l-0.073-0.321 72.271 258.112c2.343 8.13 6.572 15.092 12.197 20.644l633.552 633.552c16.038 16.698 35.417 30.055 57.077 39.012l1.115 0.409c20.269 8.465 43.819 13.383 68.517 13.383s48.248-4.917 69.724-13.827l-1.207 0.444c22.775-9.366 42.154-22.722 58.138-39.364l0.054-0.057c16.26-16.312 29.54-35.606 38.948-56.989l0.472-1.204c8.322-19.479 13.16-42.142 13.16-65.935 0-0.908-0.007-1.814-0.021-2.718l0.002 0.137c0.014-0.824 0.022-1.796 0.022-2.769 0-24.051-4.838-46.972-13.593-67.843l0.431 1.157c-9.88-22.586-23.161-41.88-39.426-58.198l0.005 0.005-633.547-631.67c-5.638-5.499-12.568-9.701-20.29-12.105l-0.359-0.096-258.112-72.271zM159.56 217.577l-45.991-168.007 168.007 45.052 624.161 625.1c7.338 7.967 13.352 17.293 17.604 27.536l0.229 0.622c4.165 9.107 6.593 19.754 6.593 30.969 0 0.662-0.008 1.321-0.025 1.979l0.002-0.097c0.007 0.392 0.011 0.853 0.011 1.316 0 11.407-2.422 22.247-6.781 32.036l0.199-0.502c-4.128 10.65-10.189 19.726-17.821 27.207l-0.013 0.012c-7.938 7.693-17.263 14.012-27.556 18.536l-0.602 0.236c-9.725 4.014-21.015 6.344-32.851 6.344s-23.126-2.33-33.439-6.557l0.588 0.213c-10.894-4.76-20.22-11.079-28.182-18.795l0.024 0.024zM750.871 874.588v0z" />
<glyph unicode="&#xe913;" glyph-name="Provider-TIN" d="M583.936 440.832c16.205 17.404 25.331 40.222 25.6 64 0 25.664-10.193 50.278-28.343 68.425-18.146 18.147-42.761 28.343-68.425 28.343s-50.278-10.195-68.425-28.343c-18.148-18.147-28.343-42.761-28.343-68.425 0.267-23.778 9.396-46.596 25.6-64-22.563-11.234-41.978-27.904-56.501-48.503s-23.697-44.489-26.699-69.513c-0.747-6.788 1.234-13.598 5.507-18.927s10.487-8.742 17.277-9.489c6.79-0.747 13.598 1.233 18.927 5.508 5.329 4.271 8.742 10.487 9.489 17.276 3.055 24.802 15.075 47.633 33.796 64.188 18.718 16.555 42.846 25.694 67.836 25.694s49.118-9.139 67.836-25.694c18.722-16.555 30.741-39.386 33.796-64.188 0.713-6.562 3.934-12.599 8.99-16.845s11.558-6.374 18.146-5.939h2.816c6.711 0.772 12.843 4.164 17.062 9.438 4.22 5.278 6.187 12.006 5.466 18.722-2.778 24.896-11.665 48.717-25.865 69.35-14.204 20.634-33.284 37.436-55.543 48.922zM512 459.264c-9.011 0-17.822 2.671-25.314 7.68-7.497 5.005-13.338 12.122-16.785 20.45-3.447 8.324-4.352 17.489-2.594 26.33 1.758 8.836 6.097 16.956 12.471 23.33s14.494 10.713 23.33 12.471c8.841 1.758 18.005 0.856 26.33-2.593 8.329-3.449 15.445-9.289 20.45-16.785 5.009-7.492 7.68-16.303 7.68-25.314 0-12.087-4.8-23.676-13.346-32.222s-20.134-13.346-32.222-13.346zM691.2 704h-358.4c-20.369 0-39.903-8.091-54.306-22.494s-22.494-33.937-22.494-54.306v-358.4c0-20.369 8.091-39.902 22.494-54.306s33.937-22.494 54.306-22.494h358.4c20.369 0 39.902 8.090 54.306 22.494s22.494 33.937 22.494 54.306v358.4c0 20.369-8.090 39.903-22.494 54.306s-33.937 22.494-54.306 22.494zM716.8 268.8c0-6.788-2.697-13.299-7.497-18.103-4.804-4.8-11.315-7.497-18.103-7.497h-358.4c-6.79 0-13.301 2.697-18.102 7.497-4.801 4.804-7.498 11.315-7.498 18.103v358.4c0 6.79 2.697 13.301 7.498 18.102s11.312 7.498 18.102 7.498h358.4c6.788 0 13.299-2.697 18.103-7.498 4.8-4.801 7.497-11.312 7.497-18.102v-358.4z" />
<glyph unicode="&#xe914;" glyph-name="Model-Score" d="M720.567 533.369l-30.613-46.043c14.767-29.449 21.995-62.097 21.039-95.019-0.956-32.926-10.065-65.101-26.513-93.641h-344.96c-21.376 37.082-30.233 80.064-25.259 122.577 4.974 42.509 23.514 82.287 52.872 113.434s67.973 52.002 110.115 59.478c42.146 7.475 85.577 1.171 123.853-17.978l46.046 30.613c-46.878 30.060-102.485 43.531-157.922 38.256-55.441-5.274-107.507-28.989-147.875-67.351s-66.705-89.154-74.798-144.249c-8.093-55.1 2.527-111.317 30.16-159.667 4.343-7.526 10.58-13.781 18.090-18.146 7.51-4.369 16.032-6.69 24.719-6.746h344.713c8.768-0.034 17.395 2.249 24.998 6.622 7.607 4.369 13.922 10.671 18.308 18.27 22.929 39.723 34.441 85.013 33.254 130.867-1.186 45.85-15.023 90.483-39.974 128.971l-0.252-0.249zM476.907 363.127c4.625-4.625 10.112-8.299 16.158-10.803 6.042-2.505 12.518-3.793 19.059-3.793s13.018 1.289 19.063 3.793c6.042 2.505 11.533 6.178 16.154 10.803l140.873 211.308-211.307-140.87c-4.629-4.625-8.299-10.116-10.803-16.158s-3.797-12.518-3.797-19.063c0-6.541 1.293-13.018 3.797-19.059s6.174-11.533 10.803-16.158z" />
<glyph unicode="&#xe915;" glyph-name="POS" d="M768 590.222c0.269 1.982 0.269 3.991 0 5.973-0.247 1.67-0.73 3.298-1.425 4.836-0.751 1.39-1.609 2.721-2.56 3.982-1.079 1.799-2.423 3.428-3.981 4.835l-3.413 1.991c-1.643 1.225-3.465 2.184-5.406 2.845h-5.687c-1.732 1.678-3.759 3.028-5.973 3.982h-142.221c-7.548 0-14.78-2.997-20.117-8.331-5.333-5.335-8.329-12.57-8.329-20.113s2.995-14.779 8.329-20.113c5.338-5.335 12.57-8.331 20.117-8.331h80.495l-113.775-133.972-122.88 73.101c-5.824 3.46-12.685 4.732-19.36 3.588-6.674-1.148-12.72-4.638-17.050-9.847l-142.222-170.667c-2.395-2.871-4.2-6.191-5.31-9.762-1.111-3.575-1.506-7.33-1.162-11.055 0.344-3.729 1.419-7.347 3.164-10.658s4.126-6.242 7.006-8.631c5.117-4.241 11.558-6.554 18.205-6.541 4.179-0.009 8.308 0.909 12.093 2.675 3.785 1.771 7.134 4.352 9.809 7.565l126.577 151.893 121.459-72.819c5.76-3.418 12.544-4.689 19.149-3.597 6.609 1.092 12.621 4.48 16.977 9.57l120.602 140.8v-65.421c0-7.543 2.999-14.78 8.333-20.113s12.57-8.333 20.113-8.333c7.543 0 14.78 2.999 20.113 8.333s8.333 12.57 8.333 20.113v142.222z" />
<glyph unicode="&#xe916;" glyph-name="Bill-Type" d="M462.933 426.62h-46.933c-6.224 0-12.192-2.47-16.593-6.874-4.401-4.399-6.873-10.364-6.873-16.589 0-6.221 2.473-12.19 6.873-16.589s10.37-6.874 16.593-6.874h46.933c6.225 0 12.194 2.475 16.593 6.874 4.403 4.399 6.874 10.368 6.874 16.589 0 6.225-2.47 12.19-6.874 16.589-4.399 4.403-10.368 6.874-16.593 6.874zM439.467 473.545h93.867c6.225 0 12.194 2.47 16.593 6.869 4.403 4.403 6.874 10.368 6.874 16.593 0 6.221-2.47 12.19-6.874 16.589-4.399 4.399-10.368 6.874-16.593 6.874h-93.867c-6.225 0-12.194-2.475-16.593-6.874-4.401-4.399-6.873-10.368-6.873-16.589 0-6.225 2.473-12.19 6.873-16.593 4.399-4.399 10.368-6.869 16.593-6.869zM462.933 332.77h-46.933c-6.224 0-12.192-2.47-16.593-6.869s-6.873-10.368-6.873-16.589c0-6.225 2.473-12.194 6.873-16.593s10.37-6.869 16.593-6.869h46.933c6.225 0 12.194 2.47 16.593 6.869 4.403 4.399 6.874 10.368 6.874 16.593 0 6.221-2.47 12.19-6.874 16.589-4.399 4.399-10.368 6.869-16.593 6.869zM744.533 426.62h-70.4v211.158c0.017 4.134-1.058 8.2-3.119 11.784s-5.035 6.561-8.614 8.628c-3.567 2.059-7.616 3.143-11.733 3.143s-8.166-1.084-11.733-3.143l-70.4-40.355-70.4 40.355c-3.567 2.059-7.616 3.143-11.733 3.143s-8.166-1.084-11.733-3.143l-70.4-40.355-70.4 40.355c-3.567 2.059-7.614 3.143-11.733 3.143s-8.166-1.084-11.733-3.143c-3.581-2.067-6.552-5.044-8.613-8.628s-3.137-7.65-3.121-11.784v-375.391c0-18.667 7.417-36.57 20.62-49.771s31.109-20.617 49.78-20.617h328.533c18.671 0 36.578 7.415 49.779 20.617 13.205 13.201 20.621 31.104 20.621 49.771v140.77c0 6.225-2.47 12.19-6.874 16.589-4.399 4.403-10.368 6.874-16.593 6.874zM369.067 238.925c-6.224 0-12.192 2.47-16.593 6.869-4.401 4.403-6.874 10.368-6.874 16.593v334.801l46.933-26.746c3.622-1.891 7.648-2.879 11.733-2.879s8.112 0.988 11.733 2.879l70.4 40.355 70.4-40.355c3.622-1.891 7.646-2.879 11.733-2.879s8.111 0.988 11.733 2.879l46.933 26.746v-334.801c0.064-8.004 1.493-15.94 4.224-23.462h-262.357zM721.067 262.387c0-6.225-2.47-12.19-6.874-16.593-4.399-4.399-10.368-6.869-16.593-6.869s-12.194 2.47-16.593 6.869c-4.403 4.403-6.874 10.368-6.874 16.593v117.308h46.933v-117.308zM569.941 328.785c-1.31 0.887-2.726 1.596-4.224 2.112-1.395 0.713-2.906 1.186-4.459 1.404-3.772 0.755-7.667 0.572-11.349-0.529-3.682-1.105-7.040-3.098-9.771-5.803-4.288-4.497-6.72-10.449-6.805-16.657-0.038-3.051 0.521-6.080 1.643-8.917 1.276-2.85 3.021-5.47 5.163-7.744 2.283-2.069 4.902-3.738 7.744-4.924 2.807-1.242 5.845-1.886 8.917-1.886s6.11 0.644 8.917 1.886c2.846 1.186 5.461 2.854 7.744 4.924 2.176 2.193 3.895 4.791 5.065 7.65 1.165 2.859 1.758 5.922 1.741 9.011-0.085 6.208-2.517 12.16-6.805 16.657-1.114 1.007-2.291 1.95-3.52 2.816zM573.227 419.814c-2.739 2.671-6.093 4.629-9.762 5.705-3.669 1.079-7.548 1.242-11.294 0.478s-7.253-2.432-10.21-4.855c-2.953-2.428-5.274-5.542-6.75-9.067-1.459-3.554-2.027-7.415-1.647-11.238 0.384-3.823 1.694-7.497 3.827-10.692 2.133-3.2 5.018-5.824 8.401-7.646s7.164-2.782 11.008-2.803c6.225 0 12.194 2.475 16.593 6.874 4.403 4.399 6.874 10.368 6.874 16.589-0.038 3.068-0.674 6.097-1.877 8.917-1.131 2.927-2.893 5.572-5.163 7.74z" />
<glyph unicode="&#xe917;" glyph-name="Claim-Date" d="M336.242 290.88c13.576 0 24.582 11.337 24.582 25.323 0 13.982-11.005 25.323-24.582 25.323s-24.582-11.341-24.582-25.323c0-13.986 11.006-25.323 24.582-25.323zM336.242 392.166c13.576 0 24.582 11.337 24.582 25.323 0 13.982-11.005 25.318-24.582 25.318s-24.582-11.337-24.582-25.318c0-13.986 11.006-25.323 24.582-25.323zM459.149 290.88c13.577 0 24.58 11.337 24.58 25.323 0 13.982-11.004 25.323-24.58 25.323s-24.58-11.341-24.58-25.323c0-13.986 11.004-25.323 24.58-25.323zM459.149 392.166c13.577 0 24.58 11.337 24.58 25.323 0 13.982-11.004 25.318-24.58 25.318s-24.58-11.337-24.58-25.318c0-13.986 11.004-25.323 24.58-25.323zM704.964 459.776v160.283c0 20.147-7.77 39.469-21.598 53.716s-32.589 22.249-52.147 22.249h-24.58v25.321c0 6.716-2.59 13.157-7.198 17.905-4.612 4.748-10.863 7.416-17.382 7.416s-12.774-2.668-17.382-7.416c-4.608-4.749-7.202-11.19-7.202-17.905v-25.321h-196.651v25.321c0 6.716-2.589 13.157-7.2 17.905s-10.863 7.416-17.382 7.416c-6.519 0-12.771-2.668-17.382-7.416s-7.2-11.19-7.2-17.905v-25.321h-24.582c-19.558 0-38.316-8.003-52.145-22.249s-21.6-33.568-21.6-53.716v-354.502c0-20.147 7.77-39.467 21.6-53.713s32.587-22.251 52.145-22.251h266.219c17.152-15.676 37.474-27.226 59.49-33.813 22.020-6.592 45.188-8.051 67.823-4.279s44.173 12.681 63.053 26.086c18.88 13.402 34.628 30.963 46.106 51.413 11.482 20.446 18.398 43.268 20.258 66.807 1.86 23.543-1.382 47.215-9.502 69.308-8.119 22.089-20.902 42.044-37.431 58.415-16.525 16.371-36.382 28.753-58.129 36.245zM262.496 620.059c0 6.716 2.59 13.157 7.2 17.905s10.862 7.416 17.382 7.416h24.582v-25.321c0-6.716 2.59-13.156 7.2-17.905s10.862-7.417 17.382-7.417c6.519 0 12.772 2.668 17.382 7.417s7.2 11.189 7.2 17.905v25.321h196.651v-25.321c0-6.716 2.594-13.156 7.202-17.905s10.863-7.417 17.382-7.417c6.519 0 12.77 2.668 17.382 7.417 4.608 4.749 7.198 11.189 7.198 17.905v25.321h24.58c6.519 0 12.774-2.667 17.382-7.416 4.612-4.749 7.202-11.19 7.202-17.905v-75.964h-393.307v75.964zM516.425 240.239h-229.346c-6.519 0-12.772 2.667-17.382 7.415s-7.2 11.187-7.2 17.903v227.895h393.307v-25.323c-20.305 0-40.414-4.117-59.17-12.122-18.761-8.004-35.806-19.738-50.163-34.526-14.357-14.793-25.745-32.35-33.515-51.674-7.774-19.324-11.772-40.034-11.772-60.949-0.060-23.774 5.15-47.245 15.241-68.621zM655.804 199.974c-20.907 0-41.344 6.387-58.726 18.351s-30.929 28.971-38.929 48.866c-8 19.895-10.095 41.788-6.016 62.908 4.079 21.124 14.144 40.525 28.928 55.753s33.617 25.596 54.123 29.798c20.501 4.198 41.754 2.044 61.069-6.199 19.315-8.239 35.823-22.195 47.437-40.098 11.614-17.907 17.813-38.959 17.813-60.493 0-14.298-2.731-28.459-8.043-41.668s-13.099-25.212-22.916-35.324c-9.813-10.112-21.466-18.129-34.291-23.603-12.826-5.47-26.569-8.29-40.448-8.29zM680.384 298.731c5.717 4.484 10.449 10.163 13.879 16.666s5.487 13.683 6.033 21.065c0 20.002-13.769 34.436-39.578 34.436-5.5 0.627-11.072 0.017-16.324-1.783-5.252-1.796-10.065-4.749-14.106-8.644-4.041-3.9-7.211-8.653-9.301-13.935-2.086-5.278-3.042-10.961-2.795-16.661h27.533c1.229 12.915 6.144 17.472 13.517 17.472 1.562 0.124 3.127-0.107 4.587-0.683s2.778-1.476 3.857-2.637c1.084-1.165 1.903-2.56 2.398-4.087s0.653-3.149 0.469-4.745c0-9.118-6.886-18.231-17.455-29.879l-36.873-40.26v-4.053h84.809v23.296h-35.401l14.75 14.434z" />
<glyph unicode="&#xe918;" glyph-name="Member-State" d="M512 704c-56.58 0-110.842-23.375-150.849-64.983s-62.484-98.041-62.484-156.884c0-149.76 187.998-318.933 196.002-326.144 4.83-4.297 10.974-6.656 17.331-6.656s12.501 2.359 17.331 6.656c9.335 7.211 196.002 176.384 196.002 326.144 0 58.843-22.477 115.276-62.485 156.884-40.004 41.608-94.268 64.983-150.848 64.983zM512 214.507c-56.802 55.467-160 174.997-160 267.627 0 44.13 16.857 86.456 46.863 117.663s70.701 48.737 113.137 48.737c42.436 0 83.132-17.531 113.139-48.737 30.003-31.206 46.861-73.533 46.861-117.663 0-92.629-103.198-212.437-160-267.627zM570.931 463.552c8.823 11.511 14.345 25.378 15.932 40.004 1.583 14.63-0.836 29.423-6.98 42.687-6.14 13.263-15.757 24.453-27.742 32.284s-25.852 11.986-40.009 11.986c-14.153 0-28.019-4.154-40.004-11.986s-21.602-19.022-27.746-32.284c-6.144-13.264-8.559-28.057-6.976-42.687 1.583-14.626 7.104-28.493 15.927-40.004-20.446-13.022-36.41-32.435-45.6-55.467-1.261-2.825-1.975-5.875-2.1-8.986s0.337-6.212 1.365-9.135c2.075-5.905 6.321-10.709 11.802-13.359 5.481-2.645 11.75-2.923 17.425-0.764 5.679 2.159 10.295 6.575 12.843 12.275 0.115 0.546 0.115 1.118 0 1.664 5.218 12.907 13.961 23.936 25.148 31.727 11.187 7.787 24.324 11.994 37.786 12.092 13.35 0.021 26.411-4.041 37.555-11.686 11.14-7.642 19.874-18.53 25.109-31.3 1.715-4.326 4.642-8.017 8.397-10.586 3.759-2.573 8.175-3.908 12.672-3.836 3.004 0.034 5.978 0.597 8.798 1.664 5.521 2.5 9.877 7.164 12.122 12.975s2.202 12.309-0.119 18.086c-9.331 22.724-25.28 41.83-45.602 54.635zM542.4 512.917c-0.051-6.242-1.882-12.326-5.252-17.489-3.375-5.163-8.141-9.173-13.7-11.52-5.555-2.351-11.661-2.94-17.54-1.69-5.879 1.254-11.273 4.284-15.497 8.717s-7.095 10.069-8.243 16.192c-1.152 6.127-0.538 12.467 1.771 18.227 2.308 5.764 6.208 10.685 11.2 14.147s10.859 5.309 16.862 5.309c4.015 0 7.987-0.827 11.695-2.433s7.070-3.96 9.894-6.925c2.829-2.964 5.060-6.484 6.575-10.35 1.51-3.87 2.27-8.009 2.236-12.186z" />
<glyph unicode="&#xe919;" glyph-name="Pillar" d="M717.333 746.667h-410.667c-24.753 0-48.493-9.833-65.996-27.337s-27.337-41.243-27.337-65.997c0-24.753 9.833-48.493 27.337-65.996s41.243-27.337 65.996-27.337c15.313-0.051 30.394 3.736 43.866 11.014 6.692-12.253 17.654-21.62 30.8-26.32v-264.694c-0.092-1.118-0.092-2.24 0-3.358-10.893-3.853-20.328-10.978-27.012-20.403s-10.289-20.685-10.321-32.239v-74.667h336v74.667c-0.034 11.554-3.639 22.814-10.321 32.239-6.686 9.425-16.119 16.55-27.012 20.403 0.094 1.118 0.094 2.24 0 3.358v264.694c13.193 4.622 24.179 14.010 30.801 26.32 13.47-7.278 28.553-11.065 43.866-11.014 24.755 0 48.495 9.833 65.997 27.337s27.337 41.243 27.337 65.996c0 24.753-9.835 48.494-27.337 65.997s-41.242 27.337-65.997 27.337zM642.667 224v-37.333h-261.333v37.333c0 4.949 1.967 9.698 5.467 13.201 3.501 3.499 8.249 5.466 13.199 5.466h224c4.949 0 9.698-1.967 13.201-5.466 3.499-3.503 5.466-8.252 5.466-13.201zM418.667 280v261.333h37.333v-261.333h-37.333zM493.333 280v261.333h37.333v-261.333h-37.333zM568 280v261.333h37.333v-261.333h-37.333zM624 578.667h-224c-4.951 0-9.699 1.967-13.199 5.468s-5.467 8.248-5.467 13.199c8.251 11.073 13.985 23.814 16.8 37.333h227.731c2.722-13.55 8.465-26.311 16.802-37.333 0-4.919-1.941-9.638-5.402-13.134s-8.162-5.484-13.077-5.533h-0.188zM717.333 597.333c-12.911-0.003-25.425 4.455-35.426 12.619s-16.87 19.532-19.456 32.181l-6.157 29.866h-288.774l-5.973-29.866c-2.119-10.381-7.14-19.949-14.479-27.591s-16.696-13.044-26.984-15.581c-10.287-2.536-21.083-2.102-31.134 1.252s-18.944 9.491-25.646 17.698c-6.702 8.207-10.938 18.146-12.217 28.664s0.453 21.183 4.994 30.756c4.541 9.573 11.704 17.662 20.658 23.326s19.332 8.673 29.927 8.675h410.667c14.852 0 29.094-5.9 39.599-16.401 10.5-10.502 16.401-24.746 16.401-39.599s-5.901-29.096-16.401-39.598c-10.505-10.502-24.747-16.402-39.599-16.402z" />
<glyph unicode="&#xe91a;" glyph-name="URL-not-found" d="M408.595 676.418c4 4.001 9.427 6.249 15.085 6.249h176.64c5.658 0 11.085-2.248 15.087-6.249l125.013-125.013c3.998-4 6.246-9.427 6.246-15.085v-176.64c0-5.658-2.249-11.085-6.246-15.087l-125.013-125.013c-4.002-3.998-9.429-6.246-15.087-6.246h-176.64c-5.658 0-11.084 2.249-15.085 6.246l-125.013 125.013c-4.001 4.002-6.249 9.429-6.249 15.087v176.64c0 5.658 2.248 11.084 6.249 15.085l125.013 125.013zM432.516 640l-112.516-112.516v-158.967l112.516-112.516h158.967l112.516 112.516v158.967l-112.516 112.516h-158.967zM512 554.667c11.78 0 21.333-9.551 21.333-21.333v-85.333c0-11.78-9.553-21.333-21.333-21.333s-21.333 9.553-21.333 21.333v85.333c0 11.782 9.553 21.333 21.333 21.333zM490.667 362.667c0 11.78 9.553 21.333 21.333 21.333h0.213c11.78 0 21.333-9.553 21.333-21.333s-9.553-21.333-21.333-21.333h-0.213c-11.78 0-21.333 9.553-21.333 21.333z" />
<glyph unicode="&#xe91b;" glyph-name="System-Administrator" d="M341.333 618.667c-5.658 0-11.084-2.248-15.085-6.249s-6.249-9.427-6.249-15.085v-213.333c0-5.658 2.248-11.085 6.249-15.087 4-3.998 9.427-6.246 15.085-6.246h21.333c11.782 0 21.333-9.553 21.333-21.333s-9.551-21.333-21.333-21.333h-21.333c-16.974 0-33.253 6.741-45.255 18.743s-18.745 28.284-18.745 45.257v213.333c0 16.974 6.743 33.253 18.745 45.255s28.281 18.745 45.255 18.745h341.333c16.973 0 33.254-6.743 45.257-18.745s18.743-28.281 18.743-45.255v-213.333c0-16.973-6.741-33.254-18.743-45.257s-28.284-18.743-45.257-18.743h-21.333c-11.78 0-21.333 9.553-21.333 21.333s9.553 21.333 21.333 21.333h21.333c5.658 0 11.085 2.249 15.087 6.246 3.998 4.002 6.246 9.429 6.246 15.087v213.333c0 5.658-2.249 11.084-6.246 15.085-4.002 4.001-9.429 6.249-15.087 6.249h-341.333zM512 405.333c6.332 0 12.335-2.812 16.388-7.676l106.667-128c5.299-6.357 6.443-15.211 2.931-22.707s-11.042-12.284-19.319-12.284h-213.333c-8.278 0-15.808 4.787-19.319 12.284s-2.369 16.35 2.93 22.707l106.667 128c4.053 4.864 10.057 7.676 16.388 7.676zM450.88 277.333h122.24l-61.12 73.344-61.12-73.344z" />
<glyph unicode="&#xe91c;" glyph-name="System-is-unavailable" d="M341.333 618.667h341.333c11.78 0 21.333-9.551 21.333-21.333v-213.333c0-11.78-9.553-21.333-21.333-21.333h-341.333c-11.782 0-21.333 9.553-21.333 21.333v213.333c0 11.782 9.551 21.333 21.333 21.333zM533.333 320h149.333c35.345 0 64 28.655 64 64v213.333c0 35.346-28.655 64-64 64h-341.333c-35.346 0-64-28.654-64-64v-213.333c0-35.345 28.654-64 64-64h149.333v-42.667h-64c-11.782 0-21.333-9.553-21.333-21.333s9.551-21.333 21.333-21.333h170.667c11.78 0 21.333 9.553 21.333 21.333s-9.553 21.333-21.333 21.333h-64v42.667z" />
<glyph unicode="&#xe91d;" glyph-name="Provider-NPI-2" d="M590.507 396.459h-29.184v29.184c0 7.74-3.076 15.164-8.546 20.638-5.474 5.47-12.898 8.546-20.638 8.546s-15.164-3.076-20.638-8.546c-5.47-5.474-8.546-12.898-8.546-20.638v-29.184h-29.184c-7.74 0-15.164-3.076-20.638-8.546-5.47-5.474-8.546-12.898-8.546-20.638s3.076-15.164 8.546-20.638c5.474-5.47 12.898-8.546 20.638-8.546h29.184v-29.184c0-7.74 3.076-15.164 8.546-20.638 5.474-5.47 12.898-8.546 20.638-8.546s15.164 3.076 20.638 8.546c5.47 5.474 8.546 12.898 8.546 20.638v29.184h29.184c7.74 0 15.164 3.076 20.638 8.546 5.47 5.474 8.546 12.898 8.546 20.638s-3.076 15.164-8.546 20.638c-5.474 5.47-12.898 8.546-20.638 8.546zM765.611 544.13c-0.303 2.681-0.892 5.322-1.749 7.88v2.627c-1.404 3.001-3.277 5.759-5.547 8.172v0l-175.104 175.104c-2.411 2.27-5.171 4.142-8.171 5.545h-2.628c-2.965 1.7-6.238 2.792-9.63 3.21h-176.563c-23.22 0-45.489-9.224-61.908-25.644s-25.644-38.688-25.644-61.908v-408.576c0-23.219 9.224-45.491 25.644-61.909s38.688-25.643 61.908-25.643h291.84c23.219 0 45.491 9.225 61.909 25.643s25.643 38.69 25.643 61.909v291.84c0 0 0 0 0 1.751v0zM590.507 647.149l75.588-75.587h-46.404c-7.74 0-15.164 3.075-20.638 8.548-5.47 5.473-8.546 12.896-8.546 20.636v46.403zM707.243 250.539c0-7.74-3.076-15.164-8.546-20.638-5.474-5.47-12.898-8.546-20.638-8.546h-291.84c-7.74 0-15.163 3.076-20.636 8.546-5.473 5.474-8.548 12.898-8.548 20.638v408.576c0 7.74 3.075 15.163 8.548 20.636s12.896 8.548 20.636 8.548h145.92v-87.552c0-23.22 9.225-45.489 25.643-61.908s38.69-25.644 61.909-25.644h87.552v-262.656z" />
<glyph unicode="&#xe91e;" glyph-name="Provider-NPI-single" d="M597.333 414.477c-27.332 0-40.478-15.241-85.333-15.241s-57.903 15.241-85.333 15.241c-70.667 0-128-57.335-128-128v-24.38c0-25.242 20.476-45.717 45.714-45.717h335.239c25.237 0 45.713 20.476 45.713 45.717v24.38c0 70.665-57.335 128-128 128zM679.62 262.097h-335.239v24.38c0 45.333 36.952 82.287 82.286 82.287 13.905 0 36.476-15.241 85.333-15.241 49.237 0 71.334 15.241 85.333 15.241 45.333 0 82.287-36.954 82.287-82.287v-24.38zM512 429.713c75.716 0 137.143 61.431 137.143 137.144 0 75.715-61.427 137.143-137.143 137.143s-137.143-61.428-137.143-137.143c0-75.712 61.427-137.144 137.143-137.144zM512 658.286c50.381 0 91.43-41.047 91.43-91.429s-41.050-91.427-91.43-91.427c-50.381 0-91.429 41.045-91.429 91.427s41.048 91.429 91.429 91.429z" />
<glyph unicode="&#xe91f;" glyph-name="Diagnosis-Hx" d="M767.829 457.079h-114.987c-2.031 0.277-4.092 0.277-6.127 0h-4.962c-1.523-0.87-2.987-1.847-4.378-2.918-1.626-1.071-3.183-2.244-4.668-3.503-0.977-1.19-1.852-2.462-2.628-3.793-1.335-1.839-2.509-3.793-3.503-5.837l-46.694-128.7-121.694 329.777c-2.048 5.634-5.777 10.502-10.684 13.942-4.911 3.44-10.756 5.286-16.751 5.286-5.993 0-11.842-1.845-16.75-5.286s-8.638-8.308-10.683-13.942l-67.415-185.027h-93.389c-7.74 0-15.163-3.076-20.636-8.546-5.473-5.474-8.548-12.898-8.548-20.638s3.075-15.164 8.548-20.638c5.473-5.47 12.896-8.546 20.636-8.546h125.491c1.659 0.798 3.225 1.779 4.669 2.918 1.625 1.075 3.184 2.244 4.669 3.503l2.627 3.793c1.391 1.801 2.566 3.763 3.502 5.837l47.278 132.204 121.404-333.283c2.039-5.641 5.769-10.513 10.675-13.961 4.911-3.447 10.761-5.295 16.759-5.299 5.999 0.004 11.849 1.852 16.759 5.299 4.907 3.447 8.636 8.32 10.675 13.961l67.123 185.028h93.679c7.74 0 15.164 3.076 20.638 8.546 5.47 5.474 8.546 12.898 8.546 20.638s-3.076 15.164-8.546 20.638c-5.474 5.47-12.898 8.546-20.638 8.546z" />
<glyph unicode="&#xe920;" glyph-name="claim-line" d="M682.667 307.2h-21.333v23.467c0 6.225-2.249 12.194-6.246 16.593-4.002 4.403-9.429 6.874-15.087 6.874s-11.085-2.47-15.087-6.874c-3.998-4.399-6.246-10.368-6.246-16.593v-23.467h-21.333c-5.658 0-11.085-2.47-15.087-6.874-3.998-4.399-6.246-10.368-6.246-16.593s2.249-12.194 6.246-16.593c4.002-4.403 9.429-6.874 15.087-6.874h21.333v-23.467c0-6.225 2.249-12.194 6.246-16.593 4.002-4.403 9.429-6.874 15.087-6.874s11.085 2.47 15.087 6.874c3.998 4.399 6.246 10.368 6.246 16.593v23.467h21.333c5.658 0 11.085 2.47 15.087 6.874 3.998 4.399 6.246 10.368 6.246 16.593s-2.249 12.194-6.246 16.593c-4.002 4.403-9.429 6.874-15.087 6.874zM533.333 260.267h-149.333c-5.658 0-11.084 2.47-15.085 6.874-4.001 4.399-6.249 10.368-6.249 16.593v328.533c0 6.224 2.248 12.192 6.249 16.593s9.427 6.873 15.085 6.873h106.667v-70.4c0-18.671 6.741-36.578 18.743-49.779 12.002-13.205 28.284-20.621 45.257-20.621h64v-70.4c0-6.225 2.249-12.194 6.246-16.593 4.002-4.403 9.429-6.874 15.087-6.874s11.085 2.47 15.087 6.874c3.998 4.399 6.246 10.368 6.246 16.593v93.867c0 0 0 0 0 1.408-0.222 2.155-0.653 4.279-1.28 6.336v2.112c-1.024 2.415-2.394 4.629-4.053 6.571l-128 140.8c-1.762 1.825-3.78 3.331-5.973 4.459-0.704 0.136-1.429 0.136-2.133 0-2.074 1.22-4.305 2.090-6.613 2.581h-129.28c-16.974 0-33.253-7.417-45.255-20.62s-18.745-31.109-18.745-49.78v-328.533c0-18.671 6.743-36.578 18.745-49.779 12.002-13.205 28.281-20.621 45.255-20.621h149.333c5.658 0 11.085 2.47 15.087 6.874 3.998 4.399 6.246 10.368 6.246 16.593s-2.249 12.194-6.246 16.593c-4.002 4.403-9.429 6.874-15.087 6.874zM533.333 602.645l55.253-60.779h-33.92c-5.658 0-11.085 2.473-15.087 6.873-3.998 4.401-6.246 10.37-6.246 16.593v37.312zM426.667 541.867c-5.658 0-11.084-2.473-15.085-6.873s-6.249-10.368-6.249-16.593 2.248-12.194 6.249-16.593c4-4.403 9.427-6.874 15.085-6.874h21.333c5.658 0 11.085 2.47 15.087 6.874 3.998 4.399 6.246 10.368 6.246 16.593s-2.249 12.194-6.246 16.593c-4.002 4.401-9.429 6.873-15.087 6.873h-21.333zM533.333 354.133h-106.667c-5.658 0-11.084-2.47-15.085-6.874-4.001-4.399-6.249-10.368-6.249-16.593s2.248-12.194 6.249-16.593c4-4.403 9.427-6.874 15.085-6.874h106.667c5.658 0 11.085 2.47 15.087 6.874 3.998 4.399 6.246 10.368 6.246 16.593s-2.249 12.194-6.246 16.593c-4.002 4.403-9.429 6.874-15.087 6.874zM554.667 448h-128c-5.658 0-11.084-2.47-15.085-6.874-4.001-4.399-6.249-10.368-6.249-16.593s2.248-12.194 6.249-16.593c4-4.403 9.427-6.874 15.085-6.874h128c5.658 0 11.085 2.47 15.087 6.874 3.998 4.399 6.246 10.368 6.246 16.593s-2.249 12.194-6.246 16.593c-4.002 4.403-9.429 6.874-15.087 6.874z" />
<glyph unicode="&#xe921;" glyph-name="attach" d="M454.432 245.312c-17.632 0.096-35.072 3.68-51.296 10.56s-30.912 16.928-43.232 29.536c-12.224 11.584-22.016 25.44-28.864 40.832s-10.592 31.936-11.040 48.768c-0.448 16.832 2.464 33.568 8.48 49.28s15.136 30.080 26.72 42.272l157.024 158.496c8.384 8.384 18.368 14.944 29.376 19.36s22.784 6.528 34.624 6.24c12.704-0.032 25.248-2.624 36.928-7.552s22.272-12.16 31.136-21.248c17.632-16.992 27.872-40.256 28.48-64.736s-8.48-48.224-25.28-66.048l-157.856-158.496c-5.056-5.088-11.072-9.12-17.696-11.872s-13.728-4.16-20.896-4.128c-7.744 0-15.424 1.536-22.56 4.544s-13.6 7.424-19.040 12.96c-10.816 10.464-17.056 24.8-17.376 39.872s5.312 29.632 15.68 40.576l145.696 146.336c4.16 2.752 9.12 3.968 14.080 3.456s9.568-2.784 13.024-6.336c3.456-3.584 5.568-8.256 5.984-13.216s-0.96-9.92-3.84-13.984l-145.696-146.336c-2.432-2.912-3.616-6.688-3.296-10.496s2.112-7.296 4.992-9.792c3.008-3.008 7.040-4.768 11.296-4.896 1.568-0.032 3.136 0.256 4.608 0.864s2.784 1.44 3.936 2.56l157.664 158.496c8.864 9.824 13.472 22.752 12.864 35.968s-6.368 25.664-16.064 34.656c-9.024 9.344-21.28 14.912-34.24 15.488s-25.696-3.808-35.52-12.288l-157.664-157.664c-7.68-8.224-13.632-17.888-17.536-28.448s-5.696-21.76-5.28-32.992c0.448-11.232 3.104-22.272 7.808-32.512s11.424-19.392 19.68-27.008c8.32-8.608 18.24-15.488 29.216-20.192s22.816-7.2 34.784-7.328c10.304-0.096 20.544 1.888 30.112 5.76s18.24 9.6 25.568 16.864l157.664 158.496c1.984 1.984 4.32 3.584 6.912 4.64s5.344 1.632 8.16 1.664 5.568-0.544 8.16-1.6c2.592-1.056 4.96-2.624 6.944-4.608s3.584-4.32 4.64-6.912c1.088-2.592 1.632-5.344 1.664-8.16s-0.544-5.568-1.6-8.16c-1.056-2.592-2.624-4.96-4.608-6.944l-157.664-158.496c-11.2-11.392-24.544-20.448-39.264-26.624s-30.528-9.376-46.496-9.408v0z" />
<glyph unicode="&#xe922;" glyph-name="more" d="M512 590.208c11.008 0 21.76 3.328 30.912 9.6s16.288 15.136 20.512 25.536c4.224 10.4 5.312 21.824 3.168 32.864s-7.456 21.184-15.232 29.12c-7.776 7.968-17.696 13.376-28.48 15.584s-21.984 1.056-32.16-3.232c-10.176-4.32-18.848-11.584-24.96-20.96s-9.376-20.352-9.376-31.616c0-15.104 5.856-29.568 16.288-40.224s24.608-16.672 39.36-16.672zM512 305.792c-11.008 0-21.76-3.328-30.912-9.6s-16.288-15.136-20.512-25.536c-4.224-10.4-5.312-21.824-3.168-32.864s7.456-21.184 15.232-29.12c7.776-7.968 17.696-13.376 28.48-15.584s21.984-1.056 32.16 3.232c10.176 4.32 18.848 11.584 24.96 20.96s9.376 20.352 9.376 31.616c0 15.104-5.856 29.568-16.288 40.224s-24.608 16.672-39.36 16.672zM512 504.896c-11.008 0-21.76-3.328-30.912-9.6s-16.288-15.136-20.512-25.536c-4.224-10.4-5.312-21.824-3.168-32.864s7.456-21.184 15.232-29.12 17.696-13.376 28.48-15.584c10.784-2.208 21.984-1.056 32.16 3.232s18.848 11.584 24.96 20.96c6.112 9.344 9.376 20.352 9.376 31.616 0 15.072-5.856 29.568-16.288 40.224s-24.608 16.672-39.36 16.672z" />
<glyph unicode="&#xe923;" glyph-name="reply" d="M268.512 446.24l156.448-159.456c26.848-27.392 72.832-7.872 72.832 30.752v70.944c130.304-7.744 140.928-45.504 119.264-115.904-12.128-39.488 31.168-71.488 64.16-49.344 52.992 35.552 86.784 90.816 86.784 157.632 0 154.4-147.584 178.656-270.208 182.432v73.152c0 38.72-46.048 58.080-72.832 30.752l-156.448-159.456c-16.672-16.992-16.672-44.544 0-61.504zM298.656 476.992l156.448 159.488v-116.032c127.264-0.576 270.208-10.688 270.208-139.584 0-60.672-35.552-99.648-67.584-121.12 43.968 143.008-56.416 172.032-202.656 173.664v-115.936l-156.448 159.488z" />
<glyph unicode="&#xe924;" glyph-name="Star-Filled" d="M1022.272 562.272c-3.232 8.992-9.088 16.864-16.896 22.688s-17.216 9.376-27.072 10.176l-290.944 40.736-130.368 253.76c-4.192 8.288-10.72 15.296-18.848 20.192s-17.536 7.488-27.168 7.488c-9.6 0-19.008-2.592-27.168-7.488s-14.688-11.904-18.848-20.192l-130.368-253.28-290.944-41.216c-9.472-1.28-18.368-5.088-25.664-11.008s-12.768-13.664-15.744-22.368c-2.72-8.512-2.944-17.6-0.704-26.24s6.912-16.544 13.472-22.848l211.168-196.32-51.136-278.784c-1.824-9.216-0.864-18.72 2.752-27.424s9.76-16.224 17.696-21.664c7.744-5.312 16.864-8.448 26.336-9.056s18.944 1.344 27.36 5.6l261.792 131.040 260.768-131.552c7.168-3.872 15.296-5.92 23.52-5.888 10.816-0.032 21.408 3.232 30.176 9.312 7.936 5.44 14.080 12.96 17.696 21.664s4.576 18.208 2.752 27.424l-51.136 278.784 211.168 196.32c7.392 6.016 12.832 13.888 15.744 22.752s3.104 18.336 0.608 27.296z" />
<glyph unicode="&#xe925;" glyph-name="Star-Outline" d="M1022.272 567.456c-3.232 9.376-9.088 17.632-16.896 23.744s-17.216 9.792-27.072 10.656l-290.944 42.592-130.368 265.28c-4.192 8.672-10.72 16-18.848 21.12s-17.536 7.84-27.168 7.84c-9.6 0-19.008-2.72-27.168-7.84s-14.688-12.448-18.848-21.12l-130.368-264.768-290.944-43.104c-9.472-1.344-18.368-5.344-25.664-11.488s-12.768-14.272-15.744-23.392c-2.72-8.896-2.944-18.4-0.704-27.424s6.912-17.28 13.472-23.872l211.168-205.248-51.136-291.456c-1.824-9.632-0.864-19.552 2.752-28.64s9.76-16.96 17.696-22.656c7.744-5.536 16.864-8.832 26.336-9.44s18.944 1.408 27.36 5.856l261.792 136.992 260.768-137.536c7.168-4.064 15.296-6.176 23.52-6.144 10.816-0.032 21.408 3.36 30.176 9.76 7.936 5.696 14.080 13.568 17.696 22.656s4.576 19.040 2.752 28.64l-51.136 291.456 211.168 205.248c7.392 6.272 12.832 14.528 15.744 23.808s3.104 19.168 0.64 28.544zM707.84 362.208c-5.984-5.824-10.496-13.024-13.056-20.992s-3.2-16.448-1.76-24.672l36.832-215.008-192.256 102.624c-7.392 3.968-15.648 6.016-24.032 6.016s-16.64-2.080-24.032-6.016l-192.256-102.624 36.8 215.008c1.44 8.256 0.832 16.736-1.76 24.672s-7.072 15.168-13.056 20.992l-153.376 153.952 215.264 31.296c8.288 1.152 16.16 4.32 22.944 9.248s12.256 11.424 15.936 18.976l91.008 195.52 96.128-196.032c3.68-7.52 9.152-14.048 15.936-18.976s14.656-8.096 22.944-9.248l215.264-31.296-153.376-153.44z" />
<glyph unicode="&#xe926;" glyph-name="check" d="M715.424 594.080c-2.816 2.848-6.176 5.088-9.888 6.656s-7.648 2.336-11.68 2.336-7.968-0.8-11.68-2.336c-3.68-1.536-7.040-3.808-9.888-6.656l-226.048-226.336-94.976 95.264c-2.912 2.816-6.4 5.056-10.176 6.56s-7.84 2.208-11.904 2.144c-4.064-0.064-8.096-0.928-11.808-2.56s-7.104-3.968-9.952-6.88c-2.816-2.944-5.056-6.4-6.56-10.176s-2.24-7.84-2.144-11.904c0.064-4.064 0.928-8.096 2.56-11.808s3.968-7.104 6.88-9.952l116.512-116.512c2.816-2.848 6.176-5.088 9.888-6.656s7.648-2.336 11.68-2.336c4 0 7.968 0.8 11.68 2.336s7.040 3.808 9.888 6.656l247.584 247.584c3.072 2.848 5.536 6.304 7.232 10.112s2.56 7.968 2.56 12.16c0 4.192-0.864 8.32-2.56 12.16s-4.128 7.296-7.232 10.112v0z" />
<glyph unicode="&#xe927;" glyph-name="Search" d="M719.136 271.136l-79.136 78.496c30.72 38.304 45.6 86.944 41.568 135.872s-26.656 94.464-63.2 127.232c-36.576 32.768-84.32 50.272-133.376 48.928s-95.808-21.44-130.528-56.16-54.816-81.44-56.16-130.528c-1.344-49.088 16.16-96.832 48.928-133.376s78.304-59.2 127.232-63.232c48.928-4.032 97.568 10.848 135.872 41.568l78.496-78.496c1.984-1.984 4.352-3.584 6.944-4.672s5.376-1.632 8.192-1.632c2.816 0 5.6 0.544 8.192 1.632s4.96 2.656 6.944 4.672c3.84 3.968 5.984 9.312 5.984 14.816s-2.144 10.848-5.984 14.816v0zM490.656 320c-29.536 0-58.4 8.768-82.976 25.184s-43.712 39.744-55.008 67.008c-11.296 27.296-14.272 57.312-8.512 86.272s20 55.584 40.864 76.448 47.488 35.104 76.448 40.864c28.96 5.76 59.008 2.816 86.272-8.512s50.624-30.432 67.008-55.008c16.416-24.544 25.184-53.44 25.184-82.976 0-39.616-15.744-77.6-43.744-105.6s-65.984-43.744-105.6-43.744v0z" />
<glyph unicode="&#xe928;" glyph-name="right-tick" d="M991.516 820.488c-6.711 6.768-14.698 12.139-23.497 15.805s-18.235 5.553-27.766 5.553c-9.531 0-18.976-1.887-27.774-5.553s-16.786-9.037-23.497-15.805l-537.926-538.65-226.002 226.724c-6.97 6.732-15.197 12.026-24.212 15.579s-18.642 5.295-28.33 5.127c-9.689-0.167-19.249-2.242-28.136-6.104s-16.926-9.438-23.658-16.408c-6.732-6.969-12.026-15.196-15.579-24.211s-5.295-18.642-5.128-28.33c0.168-9.689 2.242-19.25 6.104-28.136s9.438-16.926 16.407-23.658l277.268-277.268c6.712-6.768 14.698-12.139 23.497-15.805s18.237-5.553 27.769-5.553c9.532 0 18.97 1.887 27.769 5.553s16.785 9.037 23.498 15.805l589.194 589.194c7.326 6.762 13.178 14.968 17.18 24.102s6.065 18.998 6.065 28.969c0 9.972-2.064 19.835-6.065 28.969s-9.854 17.34-17.18 24.102z" />
<glyph unicode="&#xe929;" glyph-name="star" d="M1022.283 590.117c-3.23 9.352-9.102 17.567-16.907 23.648s-17.207 9.766-27.065 10.61l-290.932 42.438-130.383 264.344c-4.187 8.645-10.723 15.935-18.862 21.036s-17.55 7.807-27.155 7.807c-9.605 0-19.016-2.706-27.154-7.807s-14.676-12.392-18.863-21.036l-130.382-263.832-290.932-42.95c-9.463-1.346-18.36-5.316-25.68-11.462s-12.772-14.22-15.735-23.307c-2.713-8.88-2.956-18.332-0.704-27.339s6.914-17.233 13.487-23.792l211.169-204.521-51.13-290.421c-1.826-9.587-0.869-19.494 2.755-28.554s9.765-16.894 17.698-22.576c7.731-5.528 16.851-8.791 26.334-9.423 9.483-0.633 18.955 1.391 27.352 5.843l261.788 136.519 260.766-137.030c7.176-4.049 15.28-6.162 23.519-6.136 10.831-0.038 21.394 3.363 30.167 9.715 7.933 5.683 14.074 13.517 17.698 22.577s4.58 18.968 2.755 28.553l-51.13 290.421 211.168 204.521c7.383 6.255 12.839 14.475 15.735 23.707 2.898 9.232 3.113 19.097 0.628 28.447zM707.831 385.595c-5.997-5.8-10.483-12.979-13.067-20.911s-3.19-16.376-1.761-24.595l36.814-214.236-192.25 102.261c-7.397 3.939-15.65 6-24.031 6s-16.634-2.060-24.031-6l-192.251-102.261 36.814 214.236c1.428 8.22 0.824 16.664-1.76 24.595s-7.071 15.111-13.067 20.911l-153.391 153.391 215.259 31.19c8.283 1.152 16.157 4.318 22.931 9.221s12.244 11.392 15.927 18.9l91.012 194.807 96.126-195.318c3.683-7.508 9.151-13.998 15.926-18.901s14.649-8.069 22.932-9.221l215.259-31.189-153.391-152.88z" />
<glyph unicode="&#xe92a;" glyph-name="angle-left" d="M451.482 447.984l302.080 302.080c15.893 15.988 24.814 37.616 24.814 60.16s-8.921 44.171-24.814 60.16c-7.933 7.998-17.371 14.346-27.77 18.679s-21.552 6.563-32.817 6.563c-11.265 0-22.419-2.23-32.817-6.563s-19.837-10.681-27.769-18.679l-361.813-361.813c-7.998-7.933-14.346-17.371-18.679-27.77s-6.563-21.552-6.563-32.817c0-11.265 2.23-22.419 6.563-32.817s10.681-19.837 18.679-27.769l361.813-366.081c7.974-7.91 17.429-14.165 27.826-18.415 10.397-4.241 21.53-6.4 32.76-6.332 11.23-0.068 22.363 2.091 32.759 6.332 10.397 4.25 19.854 10.505 27.827 18.415 15.893 15.991 24.814 37.615 24.814 60.16s-8.921 44.172-24.814 60.161l-302.080 306.347z" />
<glyph unicode="&#xe92b;" glyph-name="add-icon" d="M711.113 497.779h-170.667v170.667c0 7.544-2.999 14.779-8.333 20.113s-12.57 8.331-20.113 8.331c-7.543 0-14.78-2.996-20.113-8.331s-8.333-12.569-8.333-20.113v-170.667h-170.665c-7.544 0-14.779-2.995-20.113-8.333-5.334-5.333-8.331-12.565-8.331-20.113 0-7.543 2.997-14.775 8.331-20.113 5.335-5.333 12.57-8.329 20.113-8.329h170.665v-170.667c0-7.543 2.999-14.78 8.333-20.113 5.333-5.338 12.57-8.333 20.113-8.333s14.78 2.995 20.113 8.333c5.333 5.333 8.333 12.57 8.333 20.113v170.667h170.667c7.543 0 14.78 2.995 20.113 8.329 5.333 5.338 8.329 12.57 8.329 20.113 0 7.548-2.995 14.78-8.329 20.113-5.333 5.338-12.57 8.333-20.113 8.333z" />
<glyph unicode="&#xe92c;" glyph-name="Amount" d="M602.116 704c65.34 0 116.625-12.334 151.97-30.617 34.701-17.948 56.58-43.194 56.58-69.911v-216.55c0-29.709-24.674-53.726-57.954-70.191-31.842-15.753-74.645-26.321-122.274-29.359v-8.725c0-31.441-27.529-56.538-64.102-73.182-37.5-17.067-88.58-27.345-144.451-27.345s-106.951 10.278-144.451 27.345c-36.576 16.644-64.101 41.741-64.101 73.182v216.55c0 31.565 26.623 55.504 60.603 71.428 32.407 15.186 74.958 24.89 119.627 27.776v9.070c0 25.126 17.687 43.646 32.708 55.017 7.768 5.883 15.512 10.38 21.336 13.427 2.927 1.531 5.402 2.712 7.202 3.533 1.476 0.676 2.978 1.318 2.918 1.287 37.525 16.939 88.55 27.263 144.388 27.263zM572.966 277.67c0.516 0.747 0.738 1.22 0.828 1.429v38.315c-38.144-19.311-92.403-31.019-151.909-31.019-59.507 0-113.763 11.708-151.908 31.019v-38.315c0.087-0.209 0.31-0.683 0.827-1.429 1.075-1.557 2.985-3.674 5.997-6.182 6.004-4.996 15.463-10.795 28.494-16.303 25.979-10.978 65.147-20.378 116.59-20.378s90.61 9.399 116.59 20.378c13.030 5.508 22.49 11.307 28.493 16.303 3.012 2.509 4.924 4.625 5.999 6.182zM572.966 385.946c0.516 0.747 0.738 1.22 0.828 1.429v38.315c-38.144-19.311-92.403-31.019-151.909-31.019-59.507 0-113.763 11.708-151.908 31.019v-38.315c0.087-0.209 0.31-0.683 0.827-1.429 1.075-1.557 2.985-3.674 5.997-6.182 6.004-4.996 15.463-10.795 28.494-16.303 25.979-10.978 65.147-20.378 116.59-20.378s90.61 9.399 116.59 20.378c13.030 5.508 22.49 11.307 28.493 16.303 3.012 2.509 4.924 4.625 5.999 6.182zM421.885 451.358c44.837 0 85.016 5.973 113.633 15.351 14.366 4.706 25.246 10.086 32.32 15.565 7.215 5.585 8.998 10.039 8.998 12.924s-1.783 7.339-8.998 12.924c-7.074 5.478-17.954 10.859-32.32 15.565-28.617 9.378-68.796 15.349-113.633 15.349s-85.015-5.971-113.633-15.349c-14.365-4.706-25.245-10.086-32.32-15.565-7.213-5.585-8.996-10.039-8.996-12.924s1.783-7.339 8.996-12.924c7.075-5.478 17.956-10.859 32.32-15.565 28.618-9.378 68.797-15.351 113.633-15.351zM753.382 386.257c0.375 0.567 0.559 0.943 0.64 1.131v38.345c-32.081-16.107-75.558-26.586-123.584-29.632v-51.61c40.35 2.923 71.441 11.635 92.625 21.171 11.55 5.205 19.887 10.53 25.143 15.070 2.637 2.278 4.271 4.164 5.175 5.525zM753.387 494.558c0.371 0.555 0.555 0.926 0.636 1.114v38.28c-32.265-16.328-75.977-27.033-124.471-30.028 0.559-2.803 0.887-5.713 0.887-8.725v-42.304c40.303 2.961 71.398 11.648 92.595 21.15 11.567 5.184 19.913 10.487 25.178 15.014 2.641 2.27 4.275 4.147 5.175 5.5zM630.438 442.564c-3.375-0.239-6.81-0.444-10.3-0.602 3.49 0.158 6.925 0.363 10.3 0.602zM583.309 560.384c6.37-0.387 12.348-0.75 18.807-0.75 44.834 0 85.043 5.973 113.69 15.35 14.383 4.707 25.276 10.088 32.363 15.568 7.228 5.588 9.007 10.044 9.007 12.921 0 2.884-1.783 7.34-8.994 12.925-7.074 5.478-17.954 10.859-32.32 15.565-28.617 9.376-68.8 15.348-113.634 15.348s-85.013-5.972-113.634-15.348c-14.362-4.706-25.246-10.086-32.32-15.565-7.211-5.585-8.994-10.041-8.994-12.925 0-2.019 1.097-5.103 5.308-9.234 34.445-2.31 87.108-9.864 129.033-33.752l1.69-0.102z" />
<glyph unicode="&#xe92d;" glyph-name="Audit-date" d="M512 273.809c4.924 0 9.737 1.459 13.828 4.194s7.283 6.622 9.165 11.17c1.886 4.548 2.377 9.549 1.417 14.379s-3.328 9.263-6.81 12.745c-3.482 3.482-7.915 5.85-12.745 6.81-4.826 0.96-9.83 0.469-14.379-1.417-4.548-1.882-8.435-5.073-11.17-9.165-2.735-4.096-4.194-8.905-4.194-13.828 0-6.601 2.62-12.932 7.287-17.6s10.999-7.287 17.6-7.287zM636.446 273.809c4.924 0 9.732 1.459 13.828 4.194 4.092 2.735 7.283 6.622 9.165 11.17 1.886 4.548 2.377 9.549 1.417 14.379s-3.332 9.263-6.81 12.745c-3.482 3.482-7.919 5.85-12.745 6.81-4.83 0.96-9.835 0.469-14.383-1.417-4.544-1.882-8.431-5.073-11.166-9.165-2.735-4.096-4.198-8.905-4.198-13.828 0-6.601 2.624-12.932 7.292-17.6s10.999-7.287 17.6-7.287zM636.446 373.363c4.924 0 9.732 1.459 13.828 4.194 4.092 2.735 7.283 6.622 9.165 11.17 1.886 4.548 2.377 9.553 1.417 14.379-0.96 4.83-3.332 9.263-6.81 12.745-3.482 3.482-7.919 5.85-12.745 6.814-4.83 0.96-9.835 0.465-14.383-1.417-4.544-1.886-8.431-5.077-11.166-9.169s-4.198-8.905-4.198-13.828c0-6.601 2.624-12.932 7.292-17.6 4.668-4.663 10.999-7.287 17.6-7.287zM512 373.363c4.924 0 9.737 1.459 13.828 4.194s7.283 6.622 9.165 11.17c1.886 4.548 2.377 9.553 1.417 14.379-0.96 4.83-3.328 9.263-6.81 12.745s-7.915 5.85-12.745 6.814c-4.826 0.96-9.83 0.465-14.379-1.417-4.548-1.886-8.435-5.077-11.17-9.169s-4.194-8.905-4.194-13.828c0-6.601 2.62-12.932 7.287-17.6 4.668-4.663 10.999-7.287 17.6-7.287zM686.221 672.029h-24.887v24.889c0 6.601-2.62 12.931-7.287 17.599s-10.999 7.29-17.6 7.29c-6.601 0-12.932-2.622-17.6-7.29s-7.292-10.998-7.292-17.599v-24.889h-199.109v24.889c0 6.601-2.622 12.931-7.29 17.599s-10.998 7.29-17.599 7.29c-6.601 0-12.932-2.622-17.599-7.29s-7.29-10.998-7.29-17.599v-24.889h-24.889c-19.803 0-38.795-7.866-52.797-21.869s-21.869-32.995-21.869-52.797v-348.445c0-19.802 7.866-38.793 21.869-52.796s32.995-21.871 52.797-21.871h348.442c19.806 0 38.797 7.868 52.8 21.871s21.867 32.994 21.867 52.796v348.445c0 19.803-7.863 38.795-21.867 52.797s-32.994 21.869-52.8 21.869zM711.113 248.917c0-6.601-2.624-12.932-7.292-17.6s-10.995-7.287-17.6-7.287h-348.442c-6.601 0-12.931 2.62-17.599 7.287s-7.29 10.999-7.29 17.6v224h398.223v-224zM711.113 522.697h-398.223v74.666c0 6.601 2.622 12.931 7.29 17.599s10.998 7.29 17.599 7.29h24.889v-24.889c0-6.601 2.622-12.931 7.29-17.599s10.998-7.29 17.599-7.29c6.601 0 12.931 2.622 17.599 7.29s7.29 10.998 7.29 17.599v24.889h199.109v-24.889c0-6.601 2.624-12.931 7.292-17.599s10.999-7.29 17.6-7.29c6.601 0 12.932 2.622 17.6 7.29s7.287 10.998 7.287 17.599v24.889h24.887c6.605 0 12.932-2.622 17.6-7.29s7.292-10.998 7.292-17.599v-74.666zM387.556 373.363c4.922 0 9.734 1.459 13.827 4.194s7.283 6.622 9.167 11.17c1.884 4.548 2.377 9.553 1.416 14.379-0.96 4.83-3.331 9.263-6.812 12.745s-7.916 5.85-12.743 6.814c-4.828 0.96-9.833 0.465-14.38-1.417-4.548-1.886-8.435-5.077-11.17-9.169s-4.195-8.905-4.195-13.828c0-6.601 2.622-12.932 7.29-17.6 4.667-4.663 10.998-7.287 17.599-7.287zM387.556 273.809c4.922 0 9.734 1.459 13.827 4.194s7.283 6.622 9.167 11.17c1.884 4.548 2.377 9.549 1.416 14.379s-3.331 9.263-6.812 12.745c-3.481 3.482-7.916 5.85-12.743 6.81s-9.833 0.469-14.38-1.417c-4.548-1.882-8.435-5.073-11.17-9.165-2.735-4.096-4.195-8.905-4.195-13.828 0-6.601 2.622-12.932 7.29-17.6s10.998-7.287 17.599-7.287z" />
<glyph unicode="&#xe92e;" glyph-name="Audit" d="M512 220.442h-199.111c-7.544 0-14.779 2.999-20.113 8.333s-8.331 12.57-8.331 20.113v398.222c0 7.544 2.997 14.779 8.331 20.113s12.569 8.331 20.113 8.331h142.223v-85.333c0-22.632 8.99-44.337 24.994-60.339 16-16.004 37.705-24.994 60.339-24.994h85.333v-28.446c0-7.543 2.995-14.78 8.329-20.113 5.338-5.333 12.57-8.329 20.113-8.329s14.78 2.995 20.113 8.329c5.338 5.333 8.333 12.57 8.333 20.113v56.892c0 0 0 0 0 1.705-0.294 2.613-0.866 5.187-1.707 7.68v2.56c-1.37 2.925-3.191 5.613-5.406 7.965v0l-170.667 170.667c-2.351 2.212-5.039 4.037-7.962 5.404-0.849 0.121-1.711 0.121-2.56 0-2.893 1.657-6.080 2.721-9.387 3.129h-172.090c-22.632 0-44.337-8.991-60.34-24.994s-24.993-37.708-24.993-60.34v-398.222c0-22.63 8.99-44.335 24.993-60.339s37.708-24.994 60.34-24.994h199.111c7.543 0 14.78 2.995 20.113 8.333 5.333 5.333 8.333 12.565 8.333 20.113 0 7.543-2.999 14.775-8.333 20.113-5.333 5.333-12.57 8.329-20.113 8.329zM512 635.447l73.673-73.671h-45.227c-7.543 0-14.78 2.996-20.113 8.331-5.338 5.334-8.333 12.569-8.333 20.113v45.227zM369.778 561.776c-7.544 0-14.779-2.997-20.113-8.332s-8.331-12.569-8.331-20.111c0-7.548 2.997-14.78 8.331-20.113 5.335-5.338 12.57-8.333 20.113-8.333h28.445c7.544 0 14.779 2.995 20.113 8.333 5.334 5.333 8.331 12.565 8.331 20.113 0 7.542-2.997 14.777-8.331 20.111s-12.569 8.332-20.113 8.332h-28.445zM788.194 212.194l-33.28 32.994c10.637 18.569 14.895 40.111 12.122 61.329s-12.429 40.939-27.482 56.149v0c-13.85 14.345-31.701 24.183-51.226 28.241-19.524 4.053-39.817 2.133-58.236-5.508-18.419-7.646-34.108-20.659-45.026-37.346-10.914-16.687-16.555-36.275-16.179-56.213-0.098-17.161 4.292-34.044 12.732-48.981 8.444-14.938 20.642-27.409 35.392-36.177 14.746-8.768 31.531-13.53 48.687-13.811 17.152-0.277 34.086 3.93 49.109 12.211l32.998-33.28c2.641-2.667 5.79-4.783 9.254-6.225 3.469-1.442 7.185-2.189 10.94-2.189s7.471 0.747 10.94 2.189c3.465 1.442 6.613 3.558 9.254 6.225 2.667 2.645 4.783 5.79 6.229 9.259 1.442 3.465 2.185 7.185 2.185 10.94s-0.742 7.471-2.185 10.935c-1.446 3.469-3.563 6.613-6.229 9.259v0zM698.027 261.973c-8.124-7.642-18.854-11.895-30.007-11.895s-21.888 4.254-30.012 11.895c-7.829 7.97-12.22 18.692-12.228 29.867-0.060 5.611 1.020 11.174 3.17 16.354 2.15 5.184 5.329 9.877 9.344 13.794 7.582 7.543 17.754 11.917 28.446 12.233 5.751 0.354 11.511-0.486 16.922-2.466 5.41-1.975 10.355-5.052 14.524-9.033 4.164-3.977 7.462-8.777 9.69-14.093 2.223-5.312 3.328-11.029 3.238-16.789-0.235-11.298-4.941-22.037-13.086-29.867v0zM540.446 448h-170.668c-7.544 0-14.779-2.999-20.113-8.333s-8.331-12.57-8.331-20.113c0-7.543 2.997-14.78 8.331-20.113s12.57-8.333 20.113-8.333h170.668c7.543 0 14.775 2.999 20.113 8.333 5.333 5.333 8.329 12.57 8.329 20.113s-2.995 14.78-8.329 20.113c-5.338 5.333-12.57 8.333-20.113 8.333zM483.554 277.333c7.543 0 14.78 2.995 20.113 8.329 5.338 5.333 8.333 12.57 8.333 20.113s-2.995 14.78-8.333 20.113c-5.333 5.338-12.57 8.333-20.113 8.333h-113.776c-7.544 0-14.779-2.995-20.113-8.333-5.334-5.333-8.331-12.57-8.331-20.113s2.997-14.78 8.331-20.113c5.335-5.333 12.57-8.329 20.113-8.329h113.776z" />
<glyph unicode="&#xe92f;" glyph-name="checkbox-empty" d="M682.667 650.667c17.673 0 32-14.327 32-32v-341.333c0-17.673-14.327-32-32-32h-341.333c-17.673 0-32 14.327-32 32v341.333c0 17.673 14.327 32 32 32h341.333zM341.333 704c-47.128 0-85.333-38.205-85.333-85.333v-341.333c0-47.13 38.205-85.333 85.333-85.333h341.333c47.13 0 85.333 38.204 85.333 85.333v341.333c0 47.128-38.204 85.333-85.333 85.333h-341.333z" />
<glyph unicode="&#xe930;" glyph-name="checkbox-empty-1" d="M589.367 539.305l-122.027-122.311-46.932 46.933c-2.55 2.978-5.688 5.397-9.217 7.104s-7.373 2.667-11.29 2.816c-3.918 0.154-7.824-0.508-11.474-1.937s-6.965-3.601-9.737-6.37c-2.772-2.773-4.941-6.089-6.371-9.741-1.43-3.648-2.090-7.556-1.939-11.473s1.111-7.761 2.818-11.29c1.708-3.529 4.126-6.665 7.104-9.216l66.844-67.127c2.658-2.637 5.811-4.723 9.276-6.14s7.177-2.133 10.918-2.112c7.462 0.034 14.613 2.995 19.913 8.252l142.221 142.221c2.667 2.645 4.783 5.79 6.229 9.254 1.442 3.469 2.185 7.185 2.185 10.94s-0.742 7.475-2.185 10.94c-1.446 3.467-3.563 6.612-6.229 9.257-5.329 5.298-12.535 8.271-20.053 8.271-7.514 0-14.724-2.973-20.053-8.271zM512 732.443c-56.256 0-111.252-16.683-158.029-47.938s-83.235-75.679-104.763-127.655c-21.529-51.976-27.162-109.166-16.187-164.343s38.066-105.86 77.847-145.643c39.78-39.778 90.463-66.871 145.64-77.845s112.371-5.342 164.343 16.188c51.977 21.525 96.401 57.984 127.654 104.764 31.258 46.775 47.94 101.769 47.94 158.029 0 37.35-7.36 74.338-21.653 108.85s-35.247 65.868-61.662 92.28c-26.411 26.413-57.766 47.365-92.279 61.66-34.509 14.295-71.497 21.652-108.851 21.652v0zM512 220.442c-45.005 0-89.002 13.346-126.423 38.353-37.421 25.003-66.588 60.54-83.811 102.123-17.223 41.579-21.73 87.334-12.949 131.473 8.78 44.143 30.453 84.69 62.277 116.514s72.371 53.497 116.511 62.277c44.143 8.78 89.894 4.274 131.477-12.949 41.579-17.223 77.12-46.39 102.123-83.811s38.349-81.417 38.349-126.421c0-60.352-23.974-118.234-66.65-160.909s-100.553-66.65-160.905-66.65v0z" />
<glyph unicode="&#xe931;" glyph-name="checkbox-enable" d="M341.333 704c-47.128 0-85.333-38.205-85.333-85.333v-341.333c0-47.13 38.205-85.333 85.333-85.333h341.333c47.13 0 85.333 38.204 85.333 85.333v341.333c0 47.128-38.204 85.333-85.333 85.333h-341.333zM648.213 554.86c2.598-1.083 4.958-2.671 6.942-4.67 2.167-1.998 3.895-4.422 5.077-7.121s1.792-5.613 1.792-8.559c0-2.947-0.61-5.861-1.792-8.558-1.182-2.701-2.91-5.124-5.077-7.121l-174.080-174.080c-1.984-2.001-4.343-3.588-6.942-4.672s-5.389-1.638-8.205-1.638c-2.816 0-5.602 0.555-8.205 1.638-2.598 1.084-4.958 2.671-6.942 4.672l-81.919 81.92c-2.059 1.988-3.706 4.365-4.847 6.989s-1.754 5.449-1.804 8.311c-0.049 2.863 0.465 5.709 1.515 8.371s2.614 5.094 4.603 7.155c1.989 2.057 4.364 3.703 6.99 4.847 2.626 1.139 5.45 1.754 8.313 1.805 2.863 0.047 5.707-0.469 8.37-1.519s5.094-2.611 7.153-4.599l66.772-66.987 158.933 159.145c1.984 1.999 4.343 3.587 6.942 4.67 2.603 1.083 5.389 1.641 8.205 1.641s5.606-0.558 8.205-1.641z" />
<glyph unicode="&#xe932;" glyph-name="Claim-Form-Type" d="M512 391.108c-7.543 0-14.78-2.995-20.113-8.329-5.333-5.338-8.333-12.57-8.333-20.113v-56.892c0-7.543 2.999-14.78 8.333-20.113s12.57-8.329 20.113-8.329c7.543 0 14.78 2.995 20.113 8.329s8.333 12.57 8.333 20.113v56.892c0 7.543-2.999 14.775-8.333 20.113-5.333 5.333-12.57 8.329-20.113 8.329zM522.807 474.167c-5.146 2.385-10.893 3.179-16.495 2.274l-5.12-1.707-5.12-2.56-4.267-3.413c-2.705-2.722-4.834-5.969-6.251-9.536-1.417-3.571-2.099-7.39-2.001-11.226-0.021-3.746 0.695-7.458 2.112-10.923s3.503-6.618 6.14-9.276c2.705-2.59 5.892-4.617 9.387-5.973 3.375-1.591 7.078-2.372 10.807-2.274 3.742-0.021 7.454 0.695 10.918 2.112 3.469 1.417 6.618 3.499 9.276 6.135 2.637 2.658 4.723 5.811 6.14 9.276s2.133 7.177 2.112 10.923c0.021 3.742-0.695 7.454-2.112 10.918s-3.503 6.618-6.14 9.276c-2.765 2.513-5.939 4.531-9.387 5.973zM739.554 535.038c-0.294 2.613-0.866 5.187-1.707 7.68v2.56c-1.365 2.925-3.191 5.613-5.402 7.965v0l-170.667 170.667c-2.351 2.212-5.039 4.037-7.966 5.404h-2.846c-2.765 1.479-5.739 2.534-8.815 3.129h-172.375c-22.632 0-44.337-8.991-60.34-24.994s-24.994-37.708-24.994-60.34v-398.222c0-22.63 8.991-44.335 24.994-60.339s37.708-24.994 60.34-24.994h284.443c22.635 0 44.339 8.99 60.343 24.994 16 16.004 24.99 37.709 24.99 60.339v284.446c0 0 0 0 0 1.705zM568.887 635.447l73.673-73.671h-45.227c-7.543 0-14.78 2.996-20.113 8.331s-8.333 12.569-8.333 20.113v45.227zM682.667 248.887c0-7.543-2.995-14.78-8.333-20.113-5.333-5.333-12.57-8.333-20.113-8.333h-284.443c-7.544 0-14.779 2.999-20.113 8.333s-8.331 12.57-8.331 20.113v398.222c0 7.544 2.996 14.779 8.331 20.113s12.569 8.331 20.113 8.331h142.222v-85.333c0-22.632 8.99-44.337 24.994-60.339 16.004-16.004 37.709-24.994 60.339-24.994h85.333v-256z" />
<glyph unicode="&#xe933;" glyph-name="Claim" d="M275.556 526.153l223.998-129.421c3.785-2.185 8.077-3.337 12.446-3.337s8.661 1.152 12.446 3.337l224 129.421c3.759 2.172 6.886 5.291 9.071 9.046s3.345 8.016 3.371 12.359c0.017 4.386-1.122 8.698-3.307 12.5s-5.338 6.96-9.135 9.153l-224 129.173c-3.785 2.185-8.077 3.334-12.446 3.334s-8.661-1.15-12.446-3.334l-223.998-129.173c-3.798-2.193-6.95-5.35-9.135-9.153s-3.327-8.115-3.31-12.5c0.026-4.343 1.189-8.604 3.372-12.359s5.311-6.874 9.073-9.046v0zM512 647.113l174.221-99.555-174.221-99.558-174.222 99.558 174.222 99.555zM723.554 468.659l-211.554-120.213-211.555 121.207c-2.84 1.647-5.978 2.714-9.233 3.145-3.255 0.427-6.563 0.205-9.732-0.649-3.169-0.858-6.138-2.334-8.735-4.339-2.597-2.010-4.771-4.51-6.397-7.364-3.245-5.713-4.098-12.48-2.373-18.82 1.725-6.345 5.888-11.746 11.581-15.027l223.998-129.425c3.785-2.185 8.077-3.332 12.446-3.332s8.661 1.148 12.446 3.332l224 129.425c5.692 3.281 9.856 8.683 11.58 15.027 1.724 6.34 0.875 13.107-2.372 18.82-1.626 2.854-3.802 5.355-6.396 7.364-2.598 2.005-5.568 3.482-8.738 4.339-3.166 0.853-6.477 1.075-9.728 0.649-3.255-0.431-6.396-1.498-9.237-3.145v-0.994zM723.554 369.105l-211.554-120.213-211.555 121.207c-2.84 1.647-5.978 2.714-9.233 3.14s-6.563 0.209-9.732-0.649c-3.169-0.853-6.138-2.33-8.735-4.339-2.597-2.005-4.771-4.51-6.397-7.36-3.245-5.717-4.098-12.48-2.373-18.825 1.725-6.34 5.888-11.742 11.581-15.027l223.998-129.421c3.785-2.185 8.077-3.332 12.446-3.332s8.661 1.148 12.446 3.332l224 129.421c5.692 3.285 9.856 8.687 11.58 15.027 1.724 6.345 0.875 13.107-2.372 18.825-1.626 2.85-3.802 5.355-6.396 7.36-2.598 2.010-5.568 3.486-8.738 4.339-3.166 0.858-6.477 1.075-9.728 0.649-3.255-0.427-6.396-1.493-9.237-3.14v-0.994z" />
<glyph unicode="&#xe934;" glyph-name="Code" d="M444.8 584.382h-14.933c-4.107 0-7.467-3.364-7.467-7.476v-224.283c0-4.113 3.36-7.475 7.467-7.475h14.933c4.105 0 7.467 3.362 7.467 7.475v224.283c0 4.112-3.362 7.476-7.467 7.476zM385.067 584.382h-44.8c-4.107 0-7.467-3.364-7.467-7.476v-224.283c0-4.113 3.36-7.475 7.467-7.475h44.8c4.107 0 7.467 3.362 7.467 7.475v224.283c0 4.112-3.36 7.476-7.467 7.476zM347.733 270.387h-89.6v89.711c0 8.226-6.72 14.955-14.933 14.955h-14.933c-8.213 0-14.933-6.729-14.933-14.955v-119.616c0-8.226 6.72-14.955 14.933-14.955h119.467c8.213 0 14.933 6.729 14.933 14.955v14.95c0 8.226-6.72 14.955-14.933 14.955zM228.267 554.478h14.933c8.213 0 14.933 6.729 14.933 14.952v89.713h89.6c8.213 0 14.933 6.729 14.933 14.952v14.953c0 8.224-6.72 14.952-14.933 14.952h-119.467c-8.213 0-14.933-6.729-14.933-14.952v-119.618c0-8.224 6.72-14.952 14.933-14.952zM691.2 352.623v224.283c0 4.112-3.362 7.476-7.467 7.476h-44.8c-4.109 0-7.467-3.364-7.467-7.476v-224.283c0-4.113 3.358-7.475 7.467-7.475h44.8c4.105 0 7.467 3.362 7.467 7.475zM504.533 584.382h-14.933c-4.109 0-7.467-3.364-7.467-7.476v-224.283c0-4.113 3.358-7.475 7.467-7.475h14.933c4.105 0 7.467 3.362 7.467 7.475v224.283c0 4.112-3.362 7.476-7.467 7.476zM795.733 375.053h-14.933c-8.213 0-14.933-6.729-14.933-14.955v-89.711h-89.6c-8.213 0-14.933-6.729-14.933-14.955v-14.95c0-8.226 6.72-14.955 14.933-14.955h119.467c8.213 0 14.933 6.729 14.933 14.955v119.616c0 8.226-6.72 14.955-14.933 14.955zM795.733 704h-119.467c-8.213 0-14.933-6.729-14.933-14.952v-14.953c0-8.224 6.72-14.952 14.933-14.952h89.6v-89.713c0-8.224 6.72-14.952 14.933-14.952h14.933c8.213 0 14.933 6.729 14.933 14.952v119.618c0 8.224-6.72 14.952-14.933 14.952zM594.133 584.382h-44.8c-4.109 0-7.467-3.364-7.467-7.476v-224.283c0-4.113 3.358-7.475 7.467-7.475h44.8c4.105 0 7.467 3.362 7.467 7.475v224.283c0 4.112-3.362 7.476-7.467 7.476z" />
<glyph unicode="&#xe935;" glyph-name="comments" d="M661.333 554.669h-298.667c-7.921 0-15.518-3.147-21.119-8.748s-8.748-13.198-8.748-21.117c0-7.923 3.147-15.518 8.748-21.12s13.198-8.747 21.119-8.747h298.667c7.923 0 15.518 3.145 21.12 8.747s8.747 13.197 8.747 21.12c0 7.919-3.145 15.516-8.747 21.117s-13.197 8.748-21.12 8.748zM661.333 435.204h-298.667c-7.921 0-15.518-3.149-21.119-8.747-5.601-5.602-8.748-13.201-8.748-21.12 0-7.923 3.147-15.518 8.748-21.12 5.601-5.598 13.198-8.747 21.119-8.747h298.667c7.923 0 15.518 3.149 21.12 8.747 5.602 5.602 8.747 13.197 8.747 21.12 0 7.919-3.145 15.518-8.747 21.12-5.602 5.598-13.197 8.747-21.12 8.747zM721.067 704h-418.133c-23.763 0-46.554-9.44-63.357-26.243s-26.243-39.593-26.243-63.356v-298.664c0-23.761 9.44-46.554 26.243-63.356s39.593-26.24 63.357-26.24h346.155l110.507-110.805c2.79-2.769 6.101-4.958 9.741-6.443 3.639-1.489 7.535-2.24 11.465-2.219 3.917-0.102 7.804 0.717 11.349 2.389 5.453 2.24 10.125 6.046 13.419 10.935s5.069 10.645 5.099 16.542v477.859c0 23.763-9.438 46.553-26.244 63.356-16.802 16.803-39.59 26.243-63.356 26.243zM750.933 208.521l-68.395 68.689c-2.79 2.769-6.101 4.958-9.741 6.447-3.639 1.485-7.535 2.24-11.465 2.214h-358.4c-7.921 0-15.518 3.149-21.119 8.751-5.601 5.598-8.748 13.197-8.748 21.116v298.664c0 7.921 3.147 15.517 8.748 21.119s13.198 8.748 21.119 8.748h418.133c7.923 0 15.518-3.147 21.12-8.748s8.747-13.198 8.747-21.119v-405.881z" />
<glyph unicode="&#xe936;" glyph-name="documents" d="M625.779 220.442h-227.557c-22.632 0-44.337 8.99-60.34 24.994s-24.994 37.709-24.994 60.339v284.445c0 7.544-2.996 14.779-8.331 20.113s-12.569 8.331-20.113 8.331c-7.544 0-14.779-2.997-20.113-8.331s-8.331-12.57-8.331-20.113v-284.445c0-37.717 14.984-73.894 41.656-100.565s62.847-41.655 100.566-41.655h227.557c7.543 0 14.775 2.995 20.113 8.333 5.333 5.333 8.329 12.565 8.329 20.113 0 7.543-2.995 14.775-8.329 20.113-5.338 5.333-12.57 8.329-20.113 8.329zM455.113 419.554c0-7.543 2.995-14.78 8.329-20.113 5.338-5.333 12.57-8.333 20.113-8.333h142.225c7.543 0 14.775 2.999 20.113 8.333 5.333 5.333 8.329 12.57 8.329 20.113s-2.995 14.78-8.329 20.113c-5.338 5.333-12.57 8.333-20.113 8.333h-142.225c-7.543 0-14.775-2.999-20.113-8.333-5.333-5.333-8.329-12.57-8.329-20.113zM768 535.038c-0.294 2.613-0.87 5.187-1.707 7.68v2.56c-1.37 2.925-3.191 5.613-5.406 7.965v0l-170.667 170.667c-2.351 2.212-5.039 4.037-7.962 5.404-0.849 0.121-1.711 0.121-2.56 0-2.893 1.657-6.084 2.721-9.387 3.129h-115.2c-22.635 0-44.338-8.991-60.341-24.994s-24.993-37.708-24.993-60.34v-284.443c0-22.635 8.99-44.339 24.993-60.343 16.003-16 37.707-24.99 60.341-24.99h227.554c22.63 0 44.335 8.99 60.339 24.99 16.004 16.004 24.994 37.709 24.994 60.343v170.667c0 0 0 0 0 1.705zM597.333 635.447l73.673-73.671h-45.227c-7.543 0-14.78 2.996-20.113 8.331-5.338 5.334-8.333 12.569-8.333 20.113v45.227zM711.113 362.667c0-7.548-2.999-14.78-8.333-20.113-5.333-5.338-12.57-8.333-20.113-8.333h-227.554c-7.543 0-14.78 2.995-20.113 8.333-5.338 5.333-8.333 12.565-8.333 20.113v284.443c0 7.544 2.995 14.779 8.333 20.113 5.333 5.334 12.57 8.331 20.113 8.331h85.333v-85.333c0.077-9.704 1.809-19.323 5.12-28.444h-62.012c-7.543 0-14.775-2.997-20.113-8.332-5.333-5.334-8.329-12.569-8.329-20.111 0-7.548 2.995-14.78 8.329-20.113 5.338-5.338 12.57-8.333 20.113-8.333h227.558v-142.221z" />
<glyph unicode="&#xe937;" glyph-name="downloads" d="M550.528 417.079l-8.661-8.759v75.61c0 7.744-3.149 15.168-8.747 20.642-5.602 5.474-13.197 8.55-21.12 8.55s-15.518-3.076-21.12-8.55c-5.602-5.474-8.747-12.898-8.747-20.642v-75.61l-8.661 8.759c-5.623 5.495-13.252 8.585-21.205 8.585s-15.582-3.089-21.205-8.585c-5.624-5.5-8.783-12.954-8.783-20.727s3.159-15.232 8.783-20.727l59.733-58.385c2.842-2.658 6.191-4.745 9.856-6.131 3.575-1.545 7.441-2.342 11.349-2.342s7.774 0.798 11.349 2.342c3.665 1.387 7.014 3.473 9.856 6.131l59.733 58.385c5.623 5.495 8.785 12.954 8.785 20.727s-3.162 15.228-8.785 20.727c-5.623 5.495-13.252 8.585-21.205 8.585s-15.582-3.089-21.205-8.585v0zM721.067 659.087h-187.563l-9.557 29.193c-6.195 17.129-17.69 31.951-32.887 42.412s-33.344 16.044-51.934 15.973h-136.192c-23.763 0-46.554-9.227-63.357-25.651s-26.243-38.7-26.243-61.927v-379.51c0-23.228 9.44-45.504 26.243-61.926s39.593-25.651 63.357-25.651h418.133c23.765 0 46.554 9.229 63.356 25.651 16.806 16.422 26.244 38.699 26.244 61.926v291.931c0 23.227-9.438 45.503-26.244 61.927-16.802 16.425-39.59 25.652-63.356 25.652zM750.933 279.578c0-7.74-3.145-15.168-8.747-20.642s-13.197-8.55-21.12-8.55h-418.133c-7.921 0-15.518 3.076-21.119 8.55s-8.748 12.902-8.748 20.642v379.51c0 7.742 3.147 15.168 8.748 20.642s13.198 8.551 21.119 8.551h136.192c6.263 0.016 12.369-1.892 17.459-5.455 5.094-3.562 8.909-8.599 10.914-14.397l16.128-47.876c2.005-5.798 5.82-10.835 10.914-14.397 5.090-3.562 11.196-5.47 17.459-5.455h209.067c7.923 0 15.518-3.076 21.12-8.55s8.747-12.9 8.747-20.643v-291.931z" />
<glyph unicode="&#xe938;" glyph-name="export" d="M427.776 557.915l58.624 58.895v-245.567c0-6.788 2.697-13.303 7.497-18.103 4.804-4.804 11.315-7.501 18.103-7.501s13.299 2.697 18.103 7.501c4.8 4.8 7.497 11.315 7.497 18.103v245.567l58.624-58.895c2.381-2.4 5.21-4.305 8.333-5.605 3.119-1.3 6.464-1.969 9.843-1.969s6.724 0.669 9.843 1.969c3.123 1.3 5.952 3.205 8.333 5.605 2.398 2.38 4.305 5.213 5.602 8.333 1.301 3.12 1.971 6.467 1.971 9.847s-0.67 6.727-1.971 9.848c-1.297 3.12-3.204 5.952-5.602 8.333l-102.4 102.426c-2.436 2.331-5.303 4.159-8.448 5.377-6.234 2.561-13.222 2.561-19.456 0-3.145-1.219-6.012-3.046-8.448-5.377l-102.4-102.426c-2.387-2.388-4.28-5.222-5.572-8.341s-1.956-6.463-1.956-9.839c0-3.376 0.665-6.72 1.956-9.839s3.185-5.954 5.572-8.341c2.387-2.388 5.221-4.282 8.339-5.574s6.461-1.957 9.837-1.957c3.376 0 6.718 0.665 9.837 1.957s5.952 3.186 8.339 5.574zM742.4 448.064c-6.788 0-13.299-2.697-18.103-7.501-4.8-4.8-7.497-11.315-7.497-18.108v-153.638c0-6.788-2.697-13.303-7.497-18.103-4.804-4.804-11.315-7.501-18.103-7.501h-358.4c-6.79 0-13.301 2.697-18.102 7.501-4.801 4.8-7.498 11.315-7.498 18.103v153.638c0 6.793-2.697 13.308-7.498 18.108-4.801 4.804-11.312 7.501-18.102 7.501s-13.301-2.697-18.102-7.501c-4.801-4.8-7.498-11.315-7.498-18.108v-153.638c0-20.373 8.091-39.91 22.494-54.319 14.403-14.404 33.937-22.498 54.306-22.498h358.4c20.369 0 39.902 8.094 54.306 22.498 14.404 14.409 22.494 33.946 22.494 54.319v153.638c0 6.793-2.697 13.308-7.497 18.108-4.804 4.804-11.315 7.501-18.103 7.501z" />
<glyph unicode="&#xe939;" glyph-name="filter-icon" d="M691.2 704h-358.4c-20.369 0-39.903-8.102-54.306-22.523s-22.494-33.98-22.494-54.374v-29.99c-0.004-10.585 2.175-21.056 6.4-30.759v-1.538c3.617-8.227 8.74-15.704 15.104-22.044l157.696-156.869v-168.917c-0.009-4.356 1.092-8.644 3.196-12.454 2.108-3.814 5.146-7.027 8.836-9.335 4.075-2.526 8.777-3.861 13.568-3.844 4.006 0.026 7.953 0.99 11.52 2.82l102.4 51.264c4.22 2.129 7.774 5.389 10.257 9.417 2.487 4.028 3.81 8.661 3.823 13.397v117.653l156.672 156.869c6.366 6.34 11.486 13.817 15.104 22.044v1.538c4.578 9.627 7.104 20.102 7.424 30.759v29.99c0 20.395-8.090 39.953-22.494 54.374s-33.937 22.523-54.306 22.523zM545.024 414.609c-2.372-2.394-4.25-5.235-5.525-8.358-1.271-3.123-1.92-6.468-1.899-9.839v-112.269l-51.2-25.634v137.903c0.021 3.371-0.627 6.716-1.899 9.839-1.276 3.123-3.153 5.965-5.525 8.358l-135.68 135.596h337.408l-135.68-135.596zM716.8 601.47h-409.6v25.632c0 6.798 2.697 13.318 7.498 18.125s11.312 7.508 18.102 7.508h358.4c6.788 0 13.299-2.7 18.103-7.508 4.8-4.807 7.497-11.327 7.497-18.125v-25.632z" />
<glyph unicode="&#xe93a;" glyph-name="grid-position" d="M633.954 382.903l-121.946-122.231-121.95 122.231c-5.353 5.355-12.613 8.363-20.183 8.363s-14.83-3.008-20.183-8.363c-5.353-5.35-8.36-12.612-8.36-20.181s3.007-14.831 8.36-20.181l142.13-142.131c2.645-2.667 5.786-4.779 9.25-6.225 3.465-1.442 7.181-2.185 10.935-2.185 3.75 0 7.467 0.742 10.931 2.185 3.465 1.446 6.605 3.558 9.25 6.225l142.131 142.131c2.65 2.65 4.753 5.794 6.187 9.259 1.434 3.46 2.172 7.172 2.172 10.923 0 3.746-0.738 7.458-2.172 10.923s-3.537 6.609-6.187 9.259c-2.654 2.65-5.798 4.753-9.263 6.187-3.46 1.434-7.172 2.176-10.923 2.176-3.746 0-7.458-0.742-10.923-2.176-3.46-1.434-6.609-3.537-9.259-6.187v0zM390.058 513.097l121.95 122.231 121.946-122.231c2.641-2.667 5.786-4.779 9.25-6.221 3.465-1.446 7.181-2.189 10.931-2.189 3.755 0 7.471 0.742 10.935 2.189 3.46 1.442 6.605 3.554 9.25 6.221 2.662 2.641 4.779 5.786 6.221 9.25s2.185 7.181 2.185 10.931c0 3.753-0.742 7.468-2.185 10.932s-3.558 6.608-6.221 9.251l-142.131 142.131c-2.645 2.664-5.786 4.779-9.25 6.222s-7.181 2.186-10.931 2.186c-3.755 0-7.471-0.743-10.935-2.186s-6.605-3.558-9.25-6.222l-142.13-142.131c-5.353-5.353-8.36-12.613-8.36-20.183s3.007-14.831 8.36-20.181c5.353-5.355 12.613-8.363 20.183-8.363s14.83 3.008 20.183 8.363z" />
<glyph unicode="&#xe93b;" glyph-name="grid" d="M768 732.443h-512c-7.544 0-14.779-2.997-20.113-8.332s-8.332-12.569-8.332-20.113v-511.998c0-7.548 2.997-14.78 8.332-20.113 5.334-5.338 12.569-8.333 20.113-8.333h512c7.543 0 14.78 2.995 20.113 8.333 5.333 5.333 8.333 12.565 8.333 20.113v511.998c0 7.544-2.999 14.779-8.333 20.113s-12.57 8.332-20.113 8.332v0zM398.222 220.442h-113.777v455.112h113.777v-455.112zM568.887 220.442h-113.775v455.112h113.775v-455.112zM739.554 220.442h-113.775v455.112h113.775v-455.112z" />
<glyph unicode="&#xe93c;" glyph-name="info" d="M512 476.442c-7.543 0-14.78-2.995-20.113-8.329-5.333-5.338-8.333-12.57-8.333-20.113v-113.779c0-7.543 2.999-14.78 8.333-20.113s12.57-8.333 20.113-8.333c7.543 0 14.78 2.999 20.113 8.333s8.329 12.57 8.329 20.113v113.779c0 7.543-2.995 14.775-8.329 20.113-5.333 5.333-12.57 8.329-20.113 8.329zM522.807 587.945c-6.925 2.845-14.69 2.845-21.619 0-3.49-1.354-6.677-3.384-9.387-5.973-2.509-2.765-4.531-5.94-5.973-9.387-1.591-3.376-2.368-7.078-2.274-10.809-0.021-3.744 0.695-7.455 2.112-10.92s3.503-6.618 6.135-9.276c2.765-2.512 5.943-4.533 9.387-5.973 4.309-1.77 8.99-2.457 13.623-1.994 4.638 0.461 9.088 2.054 12.966 4.638 3.874 2.584 7.057 6.081 9.267 10.183 2.206 4.102 3.375 8.684 3.396 13.343-0.102 7.531-3.051 14.744-8.247 20.195-2.705 2.589-5.897 4.62-9.387 5.973zM512 732.443c-56.26 0-111.253-16.683-158.030-47.938s-83.235-75.679-104.763-127.655c-21.529-51.976-27.162-109.166-16.187-164.343s38.066-105.86 77.847-145.643c39.78-39.778 90.463-66.871 145.641-77.845s112.367-5.342 164.343 16.188c51.977 21.525 96.401 57.984 127.654 104.764 31.258 46.775 47.936 101.769 47.936 158.029 0 37.35-7.356 74.338-21.649 108.85-14.298 34.511-35.247 65.868-61.662 92.28-26.411 26.413-57.771 47.365-92.279 61.66s-71.497 21.652-108.851 21.652v0zM512 220.442c-45.009 0-89.003 13.346-126.424 38.353-37.421 25.003-66.588 60.54-83.811 102.123-17.223 41.579-21.73 87.334-12.949 131.473 8.78 44.143 30.453 84.69 62.277 116.514s72.371 53.497 116.512 62.277c44.143 8.78 89.894 4.274 131.477-12.949 41.579-17.223 77.12-46.39 102.123-83.811s38.349-81.417 38.349-126.421c0-60.352-23.974-118.234-66.65-160.909s-100.553-66.65-160.905-66.65v0z" />
<glyph unicode="&#xe93d;" glyph-name="lob" d="M686.221 584.683h-74.667v24.92c0 19.828-7.868 38.844-21.867 52.864-14.003 14.021-32.994 21.897-52.8 21.897h-49.775c-19.806 0-38.797-7.876-52.8-21.897-14.002-14.020-21.868-33.036-21.868-52.864v-24.92h-74.667c-19.803 0-38.795-7.877-52.797-21.897s-21.869-33.037-21.869-52.864v-224.286c0-19.827 7.866-38.844 21.869-52.864s32.995-21.897 52.797-21.897h348.443c19.806 0 38.797 7.876 52.8 21.897 13.999 14.020 21.867 33.037 21.867 52.864v224.286c0 19.827-7.868 38.843-21.867 52.864-14.003 14.020-32.994 21.897-52.8 21.897zM462.221 609.603c0 6.609 2.624 12.948 7.292 17.621s10.995 7.299 17.6 7.299h49.775c6.601 0 12.932-2.625 17.6-7.299s7.292-11.012 7.292-17.621v-24.92h-99.558v24.92zM711.113 285.636c0-6.609-2.624-12.945-7.292-17.621-4.668-4.672-10.999-7.296-17.6-7.296h-348.443c-6.601 0-12.932 2.624-17.599 7.296-4.668 4.676-7.29 11.012-7.29 17.621v125.85h74.667v-26.167c0-6.609 2.622-12.945 7.29-17.621 4.667-4.672 10.998-7.296 17.599-7.296s12.931 2.624 17.597 7.296c4.668 4.676 7.292 11.012 7.292 17.621v26.167h149.333v-26.167c0-6.609 2.62-12.945 7.287-17.621 4.668-4.672 10.999-7.296 17.6-7.296s12.932 2.624 17.6 7.296c4.668 4.676 7.292 11.012 7.292 17.621v26.167h74.667v-125.85zM711.113 460.079h-398.224v49.843c0 6.609 2.622 12.949 7.29 17.621s10.998 7.299 17.599 7.299h348.443c6.601 0 12.932-2.627 17.6-7.299s7.292-11.012 7.292-17.621v-49.843z" />
<glyph unicode="&#xe93e;" glyph-name="playlists" d="M765.5 519.398l-50.598 151.802c-6.502 19.6-24.802 32.8-45.5 32.8h-314.801c-20.7 0-39-13.2-45.5-32.8l-50.6-151.802c-1.6-4.898-2.5-9.997-2.5-15.198v-264.201c0-26.5 21.5-48 48-48h416c26.5 0 48 21.5 48 48v264.201c0 5.201-0.798 10.3-2.5 15.198v0zM717.402 512h-181.402v144h133.402l48-144zM354.6 656h133.4v-144h-181.4l48 144zM304 240v224h416v-224h-416z" />
<glyph unicode="&#xe93f;" glyph-name="profile" d="M512 622.335c-60.787 0-110.108-49.319-110.108-110.109 0-60.787 49.321-110.106 110.108-110.106s110.106 49.318 110.106 110.106c0 60.79-49.318 110.109-110.106 110.109zM512 457.173c-30.396 0-55.053 24.661-55.053 55.053 0 30.396 24.657 55.055 55.053 55.055s55.053-24.66 55.053-55.055c0-30.391-24.657-55.053-55.053-55.053zM512 732.443c-157.133 0-284.445-127.312-284.445-284.443 0-157.133 127.312-284.446 284.445-284.446s284.446 127.313 284.446 284.446c0 157.131-127.313 284.443-284.446 284.443zM512 218.607c-57.003 0-109.076 20.992-149.219 55.514 17.090 26.381 46.337 44.271 79.83 45.303 23.855-7.339 46.562-11.008 69.389-11.008 22.822 0 45.534 3.554 69.389 11.008 33.493-1.148 62.741-18.923 79.829-45.303-40.145-34.522-92.215-55.514-149.218-55.514v0zM698.611 315.068c-27.989 36.015-71.228 59.524-120.546 59.524-11.699 0-29.82-11.008-66.065-11.008-36.13 0-54.366 11.008-66.065 11.008-49.204 0-92.444-23.509-120.544-59.524-26.839 37.504-42.781 83.383-42.781 132.932 0 126.507 102.882 229.389 229.391 229.389 126.507 0 229.389-102.882 229.389-229.389 0-49.549-15.94-95.428-42.778-132.932z" />
<glyph unicode="&#xe940;" glyph-name="Provider-Name" d="M512 410.667c90.859 0 164.57 75.251 164.57 168s-73.711 168-164.57 168c-90.857 0-164.571-75.25-164.571-168s73.714-168 164.571-168zM512 690.667c60.459 0 109.713-50.284 109.713-112s-49.254-112-109.713-112c-60.459 0-109.714 50.283-109.714 112s49.256 112 109.714 112zM614.4 392c-12.57 0-24.913-3.034-36.8-7.232-20.57-7.351-42.628-11.435-65.6-11.435s-45.030 4.083-65.6 11.435c-11.887 4.198-24.229 7.232-36.8 7.232-84.8 0-153.6-70.234-153.6-156.8v-57.869c0-15.514 12.229-27.998 27.429-27.998s27.428 12.484 27.428 27.998v57.869c0 53.082 40.457 96.132 91.429 100.1v-58.334c-26.4-8.051-45.714-32.785-45.714-62.302 0-36.049 28.686-65.331 64-65.331s63.998 29.282 63.998 65.331c0 29.517-19.311 54.251-45.713 62.302v52.151c23.774-7.351 48.346-11.785 73.143-11.785 24.913 0 49.37 4.433 73.143 11.785v-42.351c-32.23-8.751-54.857-40.252-54.857-75.366v-34.069c0-4.898 1.941-9.681 5.372-13.18l11.772-12.019c3.541-3.614 9.37-3.614 12.911 0l12.915 13.184c3.546 3.618 3.546 9.566 0 13.184l-6.515 6.652v29.513c0 22.635 19.887 40.602 42.743 36.868 17.946-3.034 30.4-20.301 30.4-38.848v-27.533l-6.515-6.652c-3.541-3.618-3.541-9.566 0-13.184l12.915-13.184c3.546-3.614 9.374-3.614 12.915 0l11.772 12.019c3.43 3.499 5.372 8.282 5.372 13.18v37.333c0 34.654-23.428 63.586-54.857 71.868v48.653c50.97-3.853 91.426-47.019 91.426-100.1v-57.754c0-15.514 12.228-27.998 27.43-27.998 15.198 0 27.426 12.484 27.426 27.998v57.869c0.23 86.566-68.57 156.8-153.37 156.8v0zM448 214.665c0-15.514-12.228-27.998-27.429-27.998s-27.428 12.484-27.428 27.998c0 15.518 12.228 28.002 27.428 28.002s27.429-12.484 27.429-28.002z" />
</font>
</defs>
</svg>
