<?xml version="1.0" standalone="no"?>
<!DOCTYPE svg PUBLIC "-//W3C//DTD SVG 20010904//EN" "http://www.w3.org/TR/2001/REC-SVG-20010904/DTD/svg10.dtd">
<svg xmlns="http://www.w3.org/2000/svg" version="1.0" width="560.000000pt" height="560.000000pt" viewBox="0 0 560.000000 560.000000" preserveAspectRatio="xMidYMid meet">
<metadata>
Created by potrace 1.16, written by Peter Selinger 2001-2019
<meta name="Producer" content="Online-Convert"/></metadata>
<g transform="translate(0.000000,560.000000) scale(0.100000,-0.100000)" fill="#000000" stroke="none">
<path d="M1798 5419 c-16 -9 -16 -13 9 -51 32 -47 43 -143 23 -203 -23 -70 -96 -132 -177 -149 -40 -9 -107 8 -155 40 -41 26 -98 115 -98 152 0 20 -3 21 -20 12 -26 -14 -25 -40 4 -99 28 -54 83 -106 133 -128 39 -16 39 14 -2 -263 -13 -85 -29 -202 -35 -260 -14 -130 -22 -150 -55 -150 -63 0 -147 -59 -176 -125 -27 -59 -25 -140 6 -201 l25 -49 -45 -45 -45 -45 -282 282 c-249 250 -280 284 -273 305 13 41 17 106 7 123 -8 15 -19 5 -69 -61 -121 -160 -119 -157 -126 -274 -8 -119 -64 -882 -73 -977 l-5 -61 -51 -13 c-68 -16 -141 -85 -158 -149 -15 -57 -9 -134 15 -184 42 -88 172 -137 267 -101 9 4 22 -10 37 -37 34 -61 286 -510 403 -717 l99 -175 -17 -47 c-17 -45 -19 -47 -50 -42 -86 14 -197 -48 -235 -131 -34 -74 -20 -166 33 -231 84 -102 232 -106 325 -9 23 24 47 61 54 84 11 37 15 40 48 40 35 0 37 -2 78 -83 47 -91 166 -311 279 -515 l74 -134 -35 -41 c-124 -144 -22 -370 166 -371 85 -1 144 39 186 124 29 59 35 65 60 62 291 -25 1111 -100 1339 -122 166 -17 304 -30 308 -30 3 0 6 -12 6 -26 0 -51 24 -107 66 -152 l41 -46 89 33 c49 18 124 49 167 69 l77 35 0 54 c0 67 -20 117 -67 165 l-37 38 77 162 c42 90 168 359 280 599 112 241 210 447 218 459 l15 22 37 -25 c82 -56 191 -43 264 29 24 24 48 44 53 44 5 0 70 -29 145 -64 l135 -65 -6 -54 c-7 -62 8 -100 56 -141 53 -44 61 -38 123 92 72 151 74 161 22 181 -22 8 -41 15 -42 16 -8 4 -113 1138 -113 1227 0 10 14 21 37 29 20 6 58 33 84 59 102 102 105 274 7 372 -72 72 -181 102 -270 75 -35 -11 -50 -12 -56 -3 -5 6 -65 112 -133 236 -68 124 -125 218 -127 208 -4 -18 67 -164 169 -345 l69 -123 -34 -31 c-19 -16 -45 -53 -57 -80 -19 -41 -27 -49 -44 -45 -53 13 -409 76 -430 76 -26 0 -27 3 -40 83 -4 24 -20 53 -41 77 l-35 39 117 176 c75 114 113 180 107 186 -6 6 -48 -49 -119 -157 -60 -92 -112 -171 -115 -176 -3 -5 -25 0 -50 11 -104 48 -238 13 -308 -79 -19 -25 -39 -44 -45 -43 -6 0 -84 18 -173 39 l-163 38 0 41 c-1 152 -178 252 -320 180 l-49 -25 -155 146 c-86 80 -156 147 -156 149 0 2 35 25 78 53 71 45 533 345 787 510 60 40 103 72 95 72 -9 1 -5 7 10 15 14 8 21 14 16 15 -4 0 -63 -35 -130 -77 -324 -204 -436 -275 -611 -388 -104 -67 -209 -134 -231 -148 l-42 -26 -150 140 c-150 139 -150 140 -137 167 8 14 17 46 21 69 5 32 11 43 24 43 40 0 1239 302 1269 320 27 16 -39 12 -97 -5 -79 -24 -1173 -285 -1192 -285 -5 0 -13 15 -19 33 -13 38 -70 97 -121 123 -50 26 -137 24 -184 -5 -21 -13 -41 -19 -48 -15 -7 5 -93 80 -190 167 l-176 158 24 52 c22 48 26 52 56 50 138 -10 1488 -128 1701 -149 147 -15 271 -23 275 -20 14 14 -23 24 -116 30 -54 4 -230 20 -392 36 -162 17 -538 53 -835 80 -297 27 -568 53 -602 56 -63 7 -63 7 -63 39 0 46 -26 126 -52 157 -18 22 -27 25 -40 17z m227 -559 c88 -79 161 -144 163 -146 2 -1 -9 -19 -23 -40 -24 -35 -26 -46 -23 -109 3 -38 7 -76 9 -83 3 -9 -72 -50 -224 -124 -125 -61 -229 -109 -231 -107 -2 2 -9 119 -15 259 -6 140 -14 300 -18 356 l-6 101 46 12 c25 7 60 26 79 41 l33 28 25 -22 c14 -13 97 -87 185 -166z m-401 48 c12 -129 37 -680 32 -686 -4 -3 -21 11 -40 31 -19 21 -55 46 -80 58 -38 17 -45 24 -41 42 2 12 9 60 15 107 6 47 24 176 40 288 17 111 30 207 30 212 0 6 9 10 19 10 16 0 20 -10 25 -62z m583 -532 c-16 -24 -241 -386 -310 -497 -26 -43 -63 -94 -82 -115 -44 -48 -63 -82 -74 -131 -7 -34 -8 -29 -14 47 -11 151 -29 521 -26 525 2 1 110 55 239 118 l235 115 23 -21 c19 -18 20 -23 9 -41z m446 -84 c68 -61 132 -121 141 -131 19 -21 46 -3 -432 -300 l-212 -132 -27 32 c-42 49 -104 72 -171 64 l-55 -7 22 34 c12 18 90 142 174 276 l152 243 30 -8 c17 -4 60 -8 96 -8 55 0 72 4 105 27 21 15 42 26 46 25 4 -1 63 -53 131 -115z m-1769 -179 l280 -282 -20 -23 c-14 -17 -439 -474 -604 -651 -17 -18 -19 -18 -78 10 l-61 28 5 50 c5 55 47 620 64 860 18 251 18 255 43 255 12 0 36 9 52 19 17 11 32 19 35 18 3 -1 131 -129 284 -284z m2116 -148 c98 -91 149 -145 146 -155 -2 -8 -12 -35 -21 -59 -9 -25 -14 -55 -11 -67 5 -20 2 -22 -87 -28 -155 -11 -564 -36 -703 -43 l-131 -6 -7 37 c-4 21 -9 43 -12 49 -2 7 12 21 33 32 20 11 168 102 327 202 160 101 296 182 303 180 7 -1 80 -65 163 -142z m-1317 -68 c4 -95 10 -208 14 -251 l6 -78 -50 7 c-29 4 -68 2 -92 -5 l-41 -11 -145 132 c-80 72 -145 134 -145 138 0 3 18 25 41 48 l41 42 39 -19 c50 -26 128 -26 178 -1 51 26 107 91 122 140 7 22 15 38 19 36 4 -2 10 -82 13 -178z m-323 -237 c58 -51 111 -99 119 -106 11 -10 8 -19 -20 -54 -23 -28 -35 -55 -39 -86 l-5 -45 -105 -40 c-323 -123 -719 -269 -728 -269 -5 0 -17 12 -27 26 -19 30 -39 5 195 249 64 66 189 200 280 298 l164 177 30 -28 c17 -16 78 -70 136 -122z m1774 -62 c17 -40 81 -103 119 -117 42 -16 124 -13 159 5 17 9 34 12 37 7 4 -4 59 -75 121 -158 63 -82 159 -206 213 -274 54 -68 96 -129 94 -135 -24 -58 -283 -723 -298 -762 l-19 -50 -59 4 c-32 2 -75 -1 -96 -8 -48 -16 -101 -63 -126 -112 -11 -21 -24 -38 -30 -38 -10 0 -683 150 -844 188 l-80 19 -8 54 c-11 78 -51 137 -116 171 -95 50 -204 31 -267 -46 l-30 -36 -61 26 c-71 31 -73 34 -73 159 0 50 -7 229 -15 400 l-14 310 24 20 c52 44 68 129 40 215 l-9 25 35 -29 c47 -40 90 -56 149 -56 98 0 176 58 199 148 7 23 13 42 14 43 3 1 857 56 894 58 28 1 35 -4 47 -31z m588 -25 l168 -37 0 -68 c0 -83 15 -122 71 -183 l42 -46 -49 -126 c-27 -70 -53 -128 -59 -129 -5 -2 -71 76 -145 172 -74 97 -167 216 -206 267 l-70 91 35 48 c20 26 38 48 41 48 3 0 80 -17 172 -37z m-2052 -42 c17 -5 25 -14 25 -30 0 -20 -14 -29 -114 -67 -63 -25 -116 -42 -119 -40 -8 9 7 53 29 81 40 50 115 74 179 56z m3558 -27 c126 -63 165 -214 87 -332 -68 -101 -218 -126 -320 -53 -60 43 -80 90 -80 188 0 74 3 85 30 124 19 27 50 54 84 71 69 36 129 37 199 2z m-3520 -176 l-3 -103 -39 -13 c-71 -23 -162 22 -193 96 -8 19 -13 35 -11 37 11 9 216 84 231 84 16 1 17 -9 15 -101z m2921 56 c112 -19 209 -38 216 -40 7 -3 15 -31 18 -64 3 -37 15 -77 31 -106 l26 -46 -28 -21 c-15 -12 -83 -67 -152 -122 -174 -140 -503 -399 -517 -408 -7 -5 -33 19 -69 64 l-57 71 22 207 c35 323 24 286 89 304 32 9 73 30 94 47 39 32 78 102 78 138 0 18 4 21 23 17 12 -2 114 -21 226 -41z m-3195 -87 c7 -19 28 -50 46 -70 l32 -37 -42 -113 c-105 -281 -183 -483 -190 -490 -4 -4 -128 44 -276 109 -148 64 -301 130 -340 146 l-70 30 0 78 1 77 190 71 c466 173 599 222 603 227 14 14 33 2 46 -28z m2678 -86 c6 -5 -38 -440 -46 -448 -1 -2 -35 37 -74 87 l-70 90 40 103 c22 56 47 121 55 145 15 42 16 42 52 36 20 -4 39 -9 43 -13z m-2487 -46 c17 0 42 4 57 8 l26 7 6 -93 c11 -172 28 -652 25 -679 l-4 -27 -209 89 c-115 49 -211 91 -212 93 -2 2 43 124 100 273 56 148 108 286 115 306 11 35 15 37 39 31 15 -4 41 -8 57 -8z m3363 -92 c26 -15 49 -28 51 -30 2 -1 -21 -56 -51 -120 -30 -65 -119 -263 -199 -440 l-144 -321 -40 -13 c-22 -7 -43 -13 -47 -14 -4 0 -71 81 -149 180 -149 190 -174 224 -168 229 97 80 693 556 696 556 2 0 25 -12 51 -27z m168 -48 c6 -2 14 -46 18 -107 14 -212 88 -1002 102 -1090 5 -35 3 -38 -28 -51 -18 -8 -41 -24 -52 -35 l-18 -21 -38 24 c-21 13 -87 46 -146 73 l-107 48 2 70 c3 94 -24 146 -99 192 -30 17 -64 32 -77 32 -38 0 -54 -41 214 550 66 146 126 280 133 298 12 30 15 32 49 26 20 -3 41 -7 47 -9z m-1179 -212 c38 -49 72 -93 76 -100 12 -19 -22 -296 -37 -308 -378 -300 -411 -324 -422 -313 -5 6 42 132 248 656 33 83 61 152 63 152 2 0 34 -39 72 -87z m-3047 -121 c178 -78 326 -145 327 -149 4 -10 -93 -263 -105 -275 -13 -13 -592 529 -592 554 0 16 5 19 23 15 12 -3 168 -68 347 -145z m-27 -255 c125 -115 227 -215 227 -223 0 -17 -119 -335 -129 -347 -7 -7 -99 152 -414 717 -94 168 -99 180 -82 192 17 13 26 7 94 -59 42 -39 178 -166 304 -280z m589 9 c106 -46 205 -89 219 -96 33 -15 36 -34 45 -322 6 -190 5 -208 -10 -208 -9 0 -35 -9 -57 -20 l-40 -21 -202 192 c-111 106 -217 207 -235 224 l-33 32 57 151 c31 84 59 152 60 152 2 0 90 -38 196 -84z m2773 -3 c28 -37 98 -128 157 -202 l107 -136 -24 -25 c-13 -14 -29 -38 -34 -53 -15 -40 -13 -137 4 -167 21 -37 19 -42 -28 -74 -23 -17 -111 -81 -195 -144 l-154 -114 -22 21 c-12 11 -36 26 -54 32 -41 14 -41 -2 3 433 19 191 35 355 35 365 0 18 124 130 145 130 6 0 33 -29 60 -66z m-275 -441 c-17 -174 -33 -335 -36 -358 -5 -40 -5 -40 -65 -53 -33 -8 -61 -12 -62 -10 -1 2 -40 43 -86 91 l-83 87 21 44 c36 74 23 177 -30 233 l-20 21 23 15 c13 9 100 77 193 152 142 113 171 132 173 115 2 -11 -10 -162 -28 -337z m-2105 278 c3 0 2 -20 -2 -45 -23 -173 163 -306 316 -226 l45 23 45 -49 c264 -283 497 -536 499 -542 3 -8 -222 -189 -272 -220 -21 -13 -36 -7 -232 99 -115 62 -228 123 -251 136 l-42 24 15 35 c33 81 1 206 -68 258 -18 14 -56 31 -83 38 -28 7 -53 15 -56 18 -4 4 -10 115 -14 249 l-7 242 52 -20 c28 -11 53 -20 55 -20z m-465 -328 l205 -199 -22 -40 c-17 -30 -23 -57 -23 -100 l0 -59 -137 -13 c-76 -6 -165 -14 -199 -18 l-61 -5 -82 148 -82 148 40 105 c21 59 54 143 71 189 l32 82 26 -19 c15 -11 119 -110 232 -219z m1170 118 c146 -33 353 -79 460 -103 l195 -43 13 -58 c7 -32 11 -59 10 -60 -2 -1 -97 -76 -213 -166 -115 -90 -215 -167 -221 -172 -7 -5 -91 78 -240 239 -126 136 -251 271 -277 299 l-48 52 22 36 c11 20 24 36 27 36 4 0 126 -27 272 -60z m745 -329 c71 -66 184 -77 259 -26 l34 23 86 -88 c47 -48 86 -92 86 -97 0 -6 -7 -16 -16 -24 -29 -24 -54 -87 -54 -137 l0 -50 -107 -40 c-60 -22 -184 -70 -278 -105 l-169 -65 -36 18 c-19 10 -92 78 -162 152 l-126 135 120 94 c66 52 164 129 217 171 53 42 98 77 100 77 2 1 23 -17 46 -38z m992 -282 c-136 -288 -316 -678 -381 -824 -27 -62 -39 -79 -53 -77 -85 14 -112 13 -156 -6 l-47 -21 -53 57 c-329 351 -334 357 -351 408 -9 28 -28 62 -41 74 -14 13 -25 27 -25 31 0 4 33 20 73 35 55 21 287 112 433 171 6 2 17 -9 23 -25 7 -16 27 -43 44 -60 106 -103 280 -73 348 59 23 47 25 135 4 186 -9 20 -12 40 -7 45 17 17 317 236 320 233 1 -1 -58 -130 -131 -286z m-310 81 c29 -13 53 -34 74 -67 27 -42 30 -55 27 -105 -5 -69 -41 -121 -102 -149 -52 -23 -90 -24 -141 0 -95 44 -133 148 -86 239 23 45 46 66 91 86 47 20 87 19 137 -4z m-2387 -67 c81 -108 207 -123 325 -39 18 14 30 9 140 -50 66 -36 175 -95 243 -132 67 -36 122 -69 122 -72 -1 -8 -584 -460 -595 -460 -3 0 -23 12 -45 26 -64 42 -112 47 -197 20 -19 -6 -28 6 -85 111 -36 65 -124 227 -197 361 -73 134 -131 245 -129 247 3 3 284 30 358 34 19 1 34 -10 60 -46z m1317 -190 l122 -128 -42 -15 c-65 -23 -105 -51 -133 -93 l-25 -38 -149 78 c-197 103 -190 97 -155 125 122 97 251 197 255 198 3 0 60 -57 127 -127z m-287 -202 c79 -43 145 -83 147 -87 1 -5 -115 -51 -260 -103 -144 -52 -332 -120 -417 -151 -247 -92 -230 -86 -240 -70 -11 17 -21 8 145 135 65 50 195 150 289 223 94 72 175 132 181 132 5 0 75 -36 155 -79z m200 -171 c0 -84 53 -161 132 -194 46 -20 128 -21 172 -2 48 20 102 81 117 132 7 24 16 44 20 44 4 0 86 -86 182 -191 l175 -191 -27 -54 c-25 -52 -27 -54 -61 -49 -112 15 -861 86 -1364 129 -153 14 -283 29 -288 34 -5 5 -8 20 -6 32 3 20 40 36 308 135 168 62 373 137 455 167 83 31 158 56 168 57 14 1 17 -8 17 -49z"/>
</g>
</svg>
